<?xml version="1.0" encoding="UTF-8"?>
<svg xmlns="http://www.w3.org/2000/svg" xmlns:xlink="http://www.w3.org/1999/xlink" viewBox="0 0 12.83 23.45">
  <defs>
    <style>
      .cls-1 {
        fill: #fffbff;
      }

      .cls-2 {
        fill: #ffc7e5;
      }

      .cls-3 {
        isolation: isolate;
      }

      .cls-4 {
        fill: url(#linear-gradient);
      }

      .cls-4, .cls-5, .cls-6 {
        mix-blend-mode: overlay;
      }

      .cls-5 {
        fill: url(#linear-gradient-2);
      }

      .cls-7 {
        fill: #fff;
      }

      .cls-8 {
        fill: #ff91cc;
      }
    </style>
    <linearGradient id="linear-gradient" x1="-267.12" y1="86.08" x2="-267.84" y2="76.84" gradientTransform="translate(220.43 -160.31) rotate(-22.76)" gradientUnits="userSpaceOnUse">
      <stop offset="0" stop-color="#000" stop-opacity="0"/>
      <stop offset="1" stop-color="#000"/>
    </linearGradient>
    <linearGradient id="linear-gradient-2" x1="117.13" y1="-66" x2="116.68" y2="-71.77" gradientTransform="translate(-122.17 35.55) rotate(16.37)" xlink:href="#linear-gradient"/>
  </defs>
  <g class="cls-3">
    <g id="Layer_2" data-name="Layer 2">
      <g id="Layer_1-2" data-name="Layer 1">
        <g>
          <g>
            <path class="cls-2" d="M7.2,23.32c-.21-.02-5.09-.5-6.62-2.69-.44-.63-.56-1.35-.35-2.12.14-.52.38-.95.71-1.28.44-.42,1.03-.64,1.72-.64.87,0,1.78.37,2.3.9.02-.96.69-2.22,1.78-2.73.31-.14.63-.21.96-.21.47,0,.94.15,1.41.44.68.43,1.08,1.03,1.19,1.8.38,2.65-2.84,6.34-2.98,6.5-.02.03-.06.04-.09.04,0,0,0,0-.01,0Z"/>
            <path class="cls-8" d="M7.68,14.68c.42,0,.87.12,1.34.42,3.43,2.16-1.81,8.1-1.81,8.1,0,0-7.91-.74-6.87-4.66.14-.53.38-.93.68-1.22.45-.43,1.04-.6,1.63-.6,1.05,0,2.12.55,2.47,1.22-.26-.93.45-2.5,1.65-3.06.28-.13.58-.2.9-.2M7.68,14.43c-.34,0-.68.07-1.01.22-1.03.48-1.71,1.62-1.83,2.57-.55-.46-1.38-.76-2.19-.76-.72,0-1.34.23-1.8.67-.35.35-.61.8-.75,1.34-.22.82-.09,1.56.37,2.23,1.57,2.24,6.5,2.73,6.71,2.75,0,0,.02,0,.02,0,.07,0,.14-.03.19-.08.14-.16,3.4-3.89,3.01-6.6-.12-.8-.54-1.44-1.25-1.88-.49-.3-.98-.46-1.47-.46h0Z"/>
          </g>
          <path class="cls-4" d="M7.21,23.2s-7.91-.74-6.87-4.66c.14-.53.38-.93.68-1.22.89,2.46,3.63,5.78,5.82,3.63,2.28-2.23.61-5.1-.06-6.07.64-.29,1.41-.3,2.24.22,3.43,2.16-1.81,8.1-1.81,8.1Z"/>
          <g class="cls-6">
            <path class="cls-7" d="M7.68,14.88c.4,0,.82.13,1.23.39.6.38.94.89,1.04,1.56.33,2.29-2.36,5.6-2.83,6.15-.72-.08-4.95-.65-6.28-2.55-.39-.55-.49-1.16-.31-1.85.38-1.45,1.49-1.67,2.11-1.67.95,0,1.96.49,2.29,1.11.04.07.11.11.18.11.03,0,.05,0,.08-.01.1-.04.15-.15.12-.25-.15-.54.09-1.37.57-2.01.28-.37.89-.99,1.78-.99M7.68,14.68c-1.72,0-2.87,2.12-2.56,3.26-.35-.67-1.42-1.22-2.47-1.22-.99,0-1.96.49-2.32,1.82-1.03,3.92,6.87,4.66,6.87,4.66,0,0,5.25-5.95,1.81-8.1-.47-.3-.92-.42-1.34-.42h0Z"/>
          </g>
          <ellipse class="cls-1" cx="1.76" cy="18.08" rx="1.26" ry=".85" transform="translate(-13.1 7.63) rotate(-49.33)"/>
        </g>
        <g>
          <g>
            <path class="cls-2" d="M8.41,5.67s-.06-.01-.09-.04c-.09-.09-2.29-2.26-2.16-3.96.04-.49.27-.9.69-1.2.28-.21.58-.32.87-.35,0,0,.11,0,.11,0,.48,0,.96.25,1.32.69.24.3.4.65.45.96.35-.36.93-.61,1.49-.61.15,0,.29.02.42.05.52.14.9.51,1.09,1.07.17.49.12.96-.13,1.38-.87,1.46-3.91,1.98-4.04,2,0,0-.01,0-.02,0Z"/>
            <path class="cls-8" d="M7.83.25c1.02,0,1.79,1.22,1.65,1.92.2-.46.92-.88,1.61-.88.13,0,.27.01.39.05.43.11.8.41,1,.99.81,2.4-4.08,3.22-4.08,3.22,0,0-3.54-3.48-1.49-4.97.28-.2.55-.3.81-.33.03,0,.07,0,.1,0M7.83,0s-.08,0-.12,0c-.33.03-.64.15-.94.37-.45.33-.7.76-.74,1.3-.13,1.75,2.11,3.96,2.2,4.05.05.05.11.07.18.07.01,0,.03,0,.04,0,.13-.02,3.23-.55,4.13-2.06.27-.46.32-.96.15-1.49-.26-.77-.78-1.05-1.18-1.15-.15-.04-.3-.06-.46-.06-.52,0-1.05.2-1.42.5-.08-.28-.23-.56-.43-.81-.38-.47-.9-.74-1.41-.74h0Z"/>
          </g>
          <path class="cls-5" d="M8.41,5.55s-3.54-3.48-1.49-4.97c.28-.2.55-.3.81-.33-.54,1.55-.52,4.23,1.39,4.06,1.98-.18,2.31-2.23,2.36-2.97.43.11.8.41,1,.99.81,2.4-4.08,3.22-4.08,3.22Z"/>
          <g class="cls-6">
            <path class="cls-7" d="M7.82.48h0c.37,0,.75.2,1.04.56.28.35.44.79.38,1.09-.02.12.04.23.16.27.02,0,.05.01.07.01.09,0,.17-.05.21-.14.15-.35.77-.74,1.41-.74.4,0,.93.15,1.18.88.13.39.1.74-.1,1.08-.7,1.17-3.12,1.7-3.68,1.81-.4-.41-2.07-2.24-1.97-3.6.03-.39.2-.7.54-.94.26-.19.52-.28.78-.28M7.82.25c-.29,0-.6.1-.91.33-2.05,1.49,1.49,4.97,1.49,4.97,0,0,4.89-.82,4.08-3.22-.26-.76-.82-1.04-1.39-1.04-.7,0-1.41.41-1.62.88.14-.71-.62-1.92-1.65-1.92h0Z"/>
          </g>
          <ellipse class="cls-1" cx="7.78" cy=".92" rx=".79" ry=".53" transform="translate(-.04 1.39) rotate(-10.2)"/>
        </g>
      </g>
    </g>
  </g>
</svg>