<?xml version="1.0" encoding="UTF-8"?>
<svg xmlns="http://www.w3.org/2000/svg" xmlns:xlink="http://www.w3.org/1999/xlink" viewBox="0 0 10.15 9.02">
  <defs>
    <style>
      .cls-1 {
        fill: #fffbff;
      }

      .cls-2 {
        fill: #ffc7e5;
      }

      .cls-3 {
        isolation: isolate;
      }

      .cls-4 {
        fill: url(#linear-gradient);
      }

      .cls-4, .cls-5 {
        mix-blend-mode: overlay;
      }

      .cls-6 {
        fill: #fff;
      }

      .cls-7 {
        fill: #ff91cc;
      }
    </style>
    <linearGradient id="linear-gradient" x1="-350.28" y1="81.81" x2="-351.01" y2="72.59" gradientTransform="translate(-260.88 -237.13) rotate(-150.2) scale(1 -1)" gradientUnits="userSpaceOnUse">
      <stop offset="0" stop-color="#000" stop-opacity="0"/>
      <stop offset="1" stop-color="#000"/>
    </linearGradient>
  </defs>
  <g class="cls-3">
    <g id="Layer_2" data-name="Layer 2">
      <g id="Layer_1-2" data-name="Layer 1">
        <g>
          <g>
            <path class="cls-2" d="M2.5,8.9s-.08-.02-.1-.05c-.12-.17-2.86-4.22-2.16-6.8C.44,1.29.91.74,1.64.4c.4-.18.79-.28,1.17-.28.42,0,.83.12,1.2.34,1.02.63,1.53,1.97,1.43,2.92.48-.39,1.23-.64,1.98-.64.85,0,1.57.31,2.02.87.29.37.48.82.55,1.36.11.78-.09,1.46-.58,2.03-1.53,1.76-5.49,1.89-6.67,1.89h-.25Z"/>
            <path class="cls-7" d="M2.81.25c.42,0,.8.12,1.13.33,1.12.7,1.63,2.34,1.27,3.23.38-.55,1.29-.93,2.21-.93.72,0,1.45.24,1.93.82.26.32.45.75.52,1.3.49,3.59-5.79,3.78-7.13,3.78-.16,0-.25,0-.25,0,0,0-4.47-6.53-.8-8.25.4-.19.77-.27,1.12-.27M2.81,0c-.4,0-.81.1-1.22.29C.83.65.33,1.22.12,2c-.72,2.64,2.06,6.73,2.17,6.91.05.07.12.11.2.11,0,0,.09,0,.26,0,1.19,0,5.2-.14,6.76-1.93.52-.59.72-1.31.61-2.13-.08-.56-.27-1.03-.58-1.42-.48-.59-1.24-.91-2.12-.91-.68,0-1.35.2-1.85.51,0-.96-.53-2.17-1.5-2.78-.39-.24-.82-.36-1.27-.36h0Z"/>
          </g>
          <path class="cls-4" d="M2.5,8.77s7.93.24,7.38-3.78c-.07-.55-.26-.97-.52-1.3-1.18,2.33-4.3,5.28-6.21,2.89-1.99-2.49.02-5.13.8-6.01-.6-.37-1.36-.47-2.25-.06-3.67,1.72.8,8.25.8,8.25Z"/>
          <g class="cls-5">
            <path class="cls-6" d="M2.82.46c.94,0,1.52.66,1.78,1.05.48.72.66,1.65.42,2.22-.04.1,0,.21.09.26.03.02.07.03.1.03.07,0,.13-.03.17-.09.34-.49,1.2-.84,2.04-.84.6,0,2.02.19,2.25,1.93.09.69-.07,1.27-.51,1.76-1.48,1.7-5.62,1.78-6.44,1.78-.05,0-.09,0-.12,0C2.21,7.96-.05,4.35.56,2.12c.18-.65.58-1.11,1.22-1.41.36-.17.7-.25,1.03-.25M2.82.25c-.35,0-.72.08-1.12.27-3.67,1.71.81,8.26.81,8.26,0,0,.08,0,.23,0,1.3,0,7.64-.18,7.15-3.78-.21-1.54-1.34-2.11-2.46-2.11-.92,0-1.83.39-2.21.93.48-1.15-.52-3.56-2.4-3.56h0Z"/>
          </g>
          <ellipse class="cls-1" cx="8.53" cy="4.36" rx=".85" ry="1.26" transform="translate(-.99 5.45) rotate(-33.63)"/>
        </g>
      </g>
    </g>
  </g>
</svg>