<?xml version="1.0" encoding="UTF-8"?>
<svg xmlns="http://www.w3.org/2000/svg" xmlns:xlink="http://www.w3.org/1999/xlink" viewBox="0 0 71.95 33.26">
  <defs>
    <style>
      .cls-1 {
        fill: #fffbff;
      }

      .cls-2 {
        fill: url(#linear-gradient-3);
      }

      .cls-3 {
        fill: url(#linear-gradient-2);
      }

      .cls-4 {
        fill: #ffc7e5;
      }

      .cls-5 {
        fill: url(#linear-gradient);
      }

      .cls-6 {
        isolation: isolate;
      }

      .cls-7 {
        fill: url(#linear-gradient-4);
      }

      .cls-7, .cls-8, .cls-9 {
        mix-blend-mode: overlay;
      }

      .cls-8 {
        fill: url(#linear-gradient-5);
      }

      .cls-10 {
        fill: #fff;
      }

      .cls-11 {
        fill: #ff91cc;
      }
    </style>
    <linearGradient id="linear-gradient" x1="31.87" y1="22.03" x2="34.02" y2="9.52" gradientUnits="userSpaceOnUse">
      <stop offset=".06" stop-color="#d1c7cf"/>
      <stop offset="1" stop-color="#ffb3e4"/>
    </linearGradient>
    <linearGradient id="linear-gradient-2" x1="28.23" y1="28.36" x2="41.36" y2="5.6" gradientUnits="userSpaceOnUse">
      <stop offset=".06" stop-color="#db99ff"/>
      <stop offset=".96" stop-color="#ffb0e3"/>
    </linearGradient>
    <linearGradient id="linear-gradient-3" x1="29.88" y1="25.51" x2="36.78" y2="13.22" gradientUnits="userSpaceOnUse">
      <stop offset=".06" stop-color="#e4d1ff"/>
      <stop offset="1" stop-color="#ffe0f4"/>
    </linearGradient>
    <linearGradient id="linear-gradient-4" x1="-698.79" y1="-5.13" x2="-699.71" y2="-16.89" gradientTransform="translate(-546.77 -313.2) rotate(-150.2) scale(1 -1)" gradientUnits="userSpaceOnUse">
      <stop offset="0" stop-color="#000" stop-opacity="0"/>
      <stop offset="1" stop-color="#000"/>
    </linearGradient>
    <linearGradient id="linear-gradient-5" x1="-222.84" y1="-47.39" x2="-223.41" y2="-54.62" gradientTransform="translate(-195.5 114.75) rotate(163.63) scale(1 -1)" xlink:href="#linear-gradient-4"/>
  </defs>
  <g class="cls-6">
    <g id="Layer_2" data-name="Layer 2">
      <g id="Layer_1-2" data-name="Layer 1">
        <g>
          <g>
            <path class="cls-5" d="M54.85,27.63c-1.38-2.32-3.76-2.71-5.62-2.37.03-1.01-.55-2.04-1.34-2.25-.57-.17-1-.03-1.26.12-.63.37-.8,1.1-.82,1.19-.08.37.15.74.52.81.37.08.73-.14.82-.51.02-.1.1-.26.18-.3.04-.02.13,0,.16,0,.14.06.44.53.36,1.03-.03.21-.12.37-.25.5,0,0,0,0,0,0-.32.34-.87.47-1.35.51-1.29.11-2.72-.49-3.83-1.61-1.08-1.1-1.65-2.51-1.52-3.76.01-.12-.01-.23-.06-.33.34-.45.59-.95.72-1.47.15-.59.13-1.18-.03-1.73.27-.22.5-.45.7-.69.02.12.05.24.08.35.23.82.78,1.57,1.5,2.08,0,.01,0,.02,0,.03,0,.09.26,2.18,1.94,2.88.03.01.06.03.1.04.66.24,1.13.09,1.41-.09.29-.18.48-.44.6-.71.63.31,1.48.62,2.18.46.41-.09.73-.33.94-.69.23-.4.28-.84.15-1.27-.08-.26-.22-.5-.4-.7.18-.05.36-.1.54-.16.78-.26,2.62-1.36,3-2.92.14-.6.13-1.5-.78-2.42-1.23-1.26-3.77-1.98-6.18-1.76-1.78.16-3.21.79-4.11,1.8-.05-.82-.28-1.56-.53-2.06-.13-.25-.39-.4-.67-.38-.28.02-.52.22-.6.49,0,.01-.35,1.15-1.08,1.71-.66.51-1.66.94-2.05,1.09-1.69-.36-3.23.43-4.07,1.15-.17-1.09-.82-2.7-2.34-3.52-.19-.37-.68-1.34-.85-2.16-.19-.9.28-1.99.29-2,.11-.26.06-.56-.14-.76-.2-.2-.49-.26-.76-.15-.52.22-1.17.63-1.74,1.22-.03-1.35-.71-2.77-1.96-4.04-1.69-1.73-4.1-2.83-5.84-2.67-1.28.12-1.88.79-2.16,1.34-.73,1.43-.04,3.46.38,4.17.1.16.2.32.3.47-.26.05-.53.13-.76.28-.38.24-.63.61-.71,1.06-.07.4.02.79.27,1.13.43.58,1.28.9,1.96,1.06-.08.29-.1.61,0,.93.1.32.36.74,1.01.99.03.01.06.02.1.03,1.74.56,3.29-.87,3.35-.93,0,0,.02-.01.02-.02.87.08,1.78-.13,2.49-.61.09-.06.19-.13.28-.21,0,.31.02.63.08.97-.48.32-.87.75-1.15,1.29-.24.48-.37,1.02-.41,1.58-.1.05-.19.12-.25.21-.71,1.04-2.06,1.74-3.6,1.88-1.57.14-3.05-.33-3.96-1.26-.34-.35-.68-.81-.7-1.27,0,0,0,0,0,0,0-.18.03-.36.14-.54.27-.43.8-.59.94-.55.03.02.12.05.13.1.03.08-.02.25-.06.35-.17.33-.05.74.28.92.33.18.75.05.93-.28.04-.07.38-.75.15-1.43-.1-.28-.33-.67-.88-.91-.76-.35-1.85.05-2.48.84-1.19-1.47-3.26-2.71-5.81-1.85-2.24.76-2.51,2.29-2.52,2.91-.03,1.15.69,2.23,1.74,2.64.02,0,.04.02.06.02.71.26,1.28.22,1.69-.12.61-.51.47-1.38.43-1.55-.08-.37-.44-.61-.81-.53-.37.08-.61.44-.54.81,0,.04.01.12,0,.19-.07,0-.18-.03-.35-.1-.51-.2-.88-.76-.87-1.33.02-.72.58-1.3,1.59-1.64,2.64-.89,4.38,1.29,4.88,2.29.07.57.34,1.25,1.06,1.98.55.56,1.24.99,2.02,1.28.92.34,1.97.48,3.04.39,1.54-.13,2.93-.75,3.91-1.67.23.87.65,1.74,1.26,2.55,2.12,2.77,2.77,5.53,2.77,5.56,0,0,0,0,0,0,.02.09.06.18.12.26,0,0,.02,0,.02.02.08.09.17.17.28.21,0,0,0,0,0,0,0,0,0,0,0,0s0,0,0,0c0,0,0,0,0,0,.11.04.24.05.35.02,0,0,.02,0,.03,0,.1-.02.18-.06.25-.12,0,0,0,0,0,0,.02-.02,2.29-1.69,5.72-2.42.99-.21,1.88-.61,2.61-1.12.15,1.34.81,2.71,1.89,3.81.75.77,1.64,1.34,2.56,1.68.78.29,1.59.41,2.37.34,1.03-.09,1.68-.43,2.1-.82,1.03-.44,3.77-.97,5.2,1.43.55.92.6,1.73.15,2.28-.36.44-1,.63-1.52.45-.17-.06-.28-.12-.33-.15.04-.05.09-.11.14-.15.29-.23.35-.66.11-.96-.23-.3-.66-.35-.96-.12-.14.11-.81.68-.68,1.46.09.53.49.93,1.21,1.19.02,0,.04.02.06.02,1.06.37,2.31,0,3.04-.88.39-.48,1.18-1.82-.03-3.85ZM44,14.9c.62-.92,1.84-1.5,3.44-1.64,2-.18,4.13.39,5.08,1.35.5.51.48.9.42,1.14-.21.87-1.5,1.74-2.1,1.94-.84.28-1.79.39-1.8.39-.3.03-.55.27-.6.57-.05.3.1.6.38.73.3.14.91.55,1.01.88.02.05.02.1-.08.21-.4.09-1.38-.37-1.92-.74-.21-.13-.47-.16-.69-.04-.22.11-.37.33-.38.58-.01.22-.12.57-.22.63-.01,0-.09.02-.25-.05-.47-.2-.75-.64-.91-1.04.46.04.89-.06,1.23-.3.67-.46.87-1.01.92-1.4.14-.98-.53-1.81-.6-1.91-.24-.29-.67-.33-.97-.09-.29.24-.33.68-.09.97.07.08.35.5.3.84,0,.06-.03.25-.34.46-.16.11-.49.08-.84-.08-.64-.29-1.17-.9-1.36-1.55-.17-.61-.05-1.23.36-1.85ZM26.36,10.38c-.57.38-1.37.5-2.04.3-.36-.1-.64-.3-.69-.49-.1-.35,0-.51.04-.56.18-.28.63-.42.78-.45.37-.07.62-.42.55-.79-.06-.37-.42-.62-.79-.56-.12.02-1.16.22-1.7,1.06-.21.33-.42.88-.21,1.66.11.41.37.76.74,1.03-.38.2-.88.36-1.36.2-.18-.05-.22-.11-.22-.12-.03-.1.09-.42.24-.62.15-.2.19-.46.09-.69-.07-.18-.22-.31-.4-.38-.05-.02-.11-.03-.16-.04-.66-.08-1.7-.36-1.96-.75.02-.09.04-.12.09-.15.28-.18.96-.11,1.34-.01.3.08.61-.05.76-.31.16-.26.12-.6-.09-.82,0,0-.66-.7-1.12-1.47-.33-.55-.74-2.05-.34-2.84.11-.22.35-.53,1.06-.59,1.34-.12,3.33.83,4.74,2.27,1.13,1.15,1.68,2.39,1.55,3.49-.08.74-.39,1.29-.92,1.64ZM41.16,14.54c.26-.2.49-.45.68-.7.03.75-.17,1.63-.96,2.37-.19-.24-.42-.48-.68-.7-.09-.08-.19-.14-.28-.21.42-.21.86-.47,1.24-.76ZM29.61,9.34c-.02.31,0,.64.07.96.1.46.27.95.45,1.38-.12,0-.23-.02-.35-.02-.34,0-.66.03-.97.09-.12-1.07.3-1.86.81-2.41ZM36.66,21.67c-2.52.54-4.43,1.53-5.44,2.14-.37-1.12-1.18-3.11-2.75-5.16-1.13-1.48-1.49-3.28-.9-4.46.39-.77,1.14-1.17,2.18-1.15,2.78.04,3.11,2.9,3.12,3.03.02.19.28,1,.76,1.18s1.21-.27,1.34-.4c.09-.08,2.19-2.05,4.34-.28.8.66,1.12,1.46.91,2.29-.32,1.29-1.76,2.42-3.58,2.81Z"/>
            <path class="cls-3" d="M21.21,1.6c1.71,0,3.92,1.07,5.5,2.69,1.25,1.27,1.93,2.69,1.96,4.04.57-.59,1.22-1,1.74-1.22.09-.04.18-.05.27-.05.18,0,.36.07.49.21.2.2.25.5.14.76,0,.01-.48,1.1-.29,2,.17.82.65,1.79.85,2.16,1.52.82,2.18,2.43,2.34,3.52.69-.6,1.87-1.24,3.21-1.24.28,0,.57.03.86.09.39-.15,1.38-.58,2.05-1.09.73-.56,1.08-1.7,1.08-1.71.08-.27.32-.46.6-.49.02,0,.04,0,.06,0,.26,0,.49.14.61.38.25.5.48,1.24.53,2.06.9-1.01,2.34-1.64,4.11-1.8.29-.03.58-.04.87-.04,2.13,0,4.23.69,5.31,1.8.9.92.92,1.83.78,2.42-.37,1.56-2.22,2.66-3,2.92-.18.06-.36.11-.54.16.17.21.31.44.4.7.13.43.08.87-.15,1.27-.2.36-.53.59-.94.69-.13.03-.27.04-.41.04-.6,0-1.26-.25-1.77-.51-.13.27-.32.53-.6.71-.18.11-.43.22-.76.22-.19,0-.41-.04-.65-.12-.03-.01-.06-.02-.1-.04-1.68-.7-1.93-2.8-1.94-2.88,0-.01,0-.02,0-.03-.71-.51-1.26-1.26-1.5-2.08-.03-.11-.06-.22-.08-.35-.2.24-.42.47-.7.69.16.55.18,1.13.03,1.73-.13.52-.38,1.01-.72,1.47.04.1.07.21.06.33-.13,1.26.43,2.66,1.52,3.76,1.02,1.03,2.31,1.63,3.51,1.63.11,0,.21,0,.31-.01.48-.04,1.04-.17,1.35-.51,0,0,0,0,0,0,.12-.13.22-.29.25-.5.07-.5-.22-.97-.36-1.03-.02,0-.07-.02-.11-.02-.02,0-.04,0-.05.01-.07.04-.15.21-.18.3-.08.31-.36.53-.67.53-.05,0-.1,0-.15-.02-.36-.07-.6-.44-.52-.81.02-.08.19-.82.82-1.19.17-.1.42-.2.74-.2.15,0,.33.02.51.08.79.22,1.37,1.24,1.34,2.25.37-.07.76-.11,1.17-.11,1.6,0,3.35.62,4.46,2.48,1.21,2.03.42,3.37.03,3.85-.53.66-1.35,1.02-2.17,1.02-.29,0-.58-.05-.86-.14-.02,0-.04-.01-.06-.02-.71-.26-1.12-.66-1.21-1.19-.13-.78.54-1.35.68-1.46.13-.1.27-.15.42-.15.2,0,.41.09.54.27.23.3.18.73-.11.96-.05.04-.1.1-.14.15.06.04.16.09.33.15.13.05.27.07.42.07.41,0,.84-.19,1.11-.52.45-.55.4-1.36-.15-2.28-.84-1.41-2.13-1.8-3.26-1.8-.8,0-1.51.2-1.94.38-.42.39-1.07.73-2.1.82-.14.01-.29.02-.43.02-.64,0-1.3-.12-1.94-.36-.92-.34-1.81-.91-2.56-1.68-1.08-1.1-1.74-2.47-1.89-3.81-.74.51-1.62.91-2.61,1.12-3.43.73-5.69,2.41-5.72,2.42,0,0,0,0,0,0-.07.05-.16.1-.25.12,0,0,0,0,0,0,0,0-.01,0-.02,0,0,0,0,0,0,0-.05,0-.09.01-.14.01-.07,0-.15-.01-.22-.04,0,0,0,0,0,0,0,0,0,0,0,0,0,0,0,0,0,0,0,0,0,0,0,0s0,0,0,0c0,0,0,0,0,0-.11-.04-.21-.12-.28-.21,0,0-.02,0-.02-.02-.06-.08-.1-.17-.12-.26,0,0,0,0,0,0,0-.03-.65-2.79-2.77-5.56-.62-.8-1.03-1.68-1.26-2.55-.98.93-2.38,1.54-3.91,1.67-.22.02-.43.03-.65.03-.84,0-1.65-.14-2.39-.41-.78-.29-1.48-.72-2.02-1.28-.72-.74-1-1.41-1.06-1.98-.42-.84-1.7-2.5-3.66-2.5-.38,0-.79.06-1.23.21-1.01.34-1.58.92-1.59,1.64-.01.57.35,1.13.87,1.33.18.06.29.09.35.1,0-.07,0-.15,0-.19-.08-.37.16-.73.54-.81.05-.01.09-.01.14-.01.32,0,.6.23.67.55.03.17.18,1.04-.43,1.55-.23.2-.52.29-.85.29-.25,0-.54-.06-.84-.17-.02,0-.04-.02-.06-.02-1.05-.41-1.77-1.5-1.74-2.64.01-.62.29-2.15,2.52-2.91.58-.2,1.14-.29,1.67-.29,1.79,0,3.22,1,4.14,2.13.48-.59,1.21-.97,1.87-.97.22,0,.42.04.61.13.55.24.78.63.88.91.24.69-.11,1.36-.15,1.43-.12.23-.36.36-.61.36-.11,0-.22-.03-.32-.08-.33-.18-.46-.59-.28-.92.05-.09.09-.27.06-.35-.02-.04-.1-.08-.13-.1-.02,0-.04,0-.06,0-.19,0-.64.17-.88.55-.11.18-.15.36-.14.54,0,0,0,0,0,0,.02.46.36.92.7,1.27.8.82,2.06,1.28,3.42,1.28.18,0,.36,0,.54-.02,1.54-.13,2.88-.84,3.6-1.88.07-.1.16-.16.25-.21.04-.56.17-1.1.41-1.58.27-.55.67-.98,1.15-1.29-.07-.34-.09-.66-.08-.97-.1.08-.19.15-.28.21-.61.41-1.37.62-2.13.62-.12,0-.24,0-.36-.02,0,0-.01.01-.02.02-.05.05-1.15,1.06-2.52,1.06-.27,0-.54-.04-.83-.13-.03-.01-.07-.02-.1-.03-.66-.24-.92-.67-1.01-.99-.1-.33-.08-.65,0-.93-.68-.17-1.53-.49-1.96-1.06-.25-.34-.34-.73-.27-1.13.08-.45.33-.82.71-1.06.23-.15.49-.23.76-.28-.1-.15-.21-.31-.3-.47-.42-.71-1.11-2.74-.38-4.17.28-.55.88-1.22,2.16-1.34.11-.01.23-.02.34-.02M20.88,9.04c-.06,0-.12,0-.17-.02-.21-.05-.5-.1-.78-.1-.23,0-.44.03-.56.11-.05.03-.08.06-.09.15.27.39,1.31.67,1.96.75.06,0,.11.02.16.04.18.06.32.2.4.38.1.23.06.49-.09.69-.15.2-.28.52-.24.62,0,.01.05.07.22.12.14.04.27.06.41.06.35,0,.68-.12.95-.26-.37-.27-.63-.62-.74-1.03-.21-.78,0-1.33.21-1.66.53-.84,1.58-1.04,1.7-1.06.04,0,.08,0,.12,0,.33,0,.62.23.68.57.06.37-.18.73-.55.79-.15.03-.6.17-.78.45-.03.05-.13.21-.04.56.05.19.33.39.69.49.22.06.44.09.67.09.49,0,.98-.14,1.37-.39.53-.35.84-.9.92-1.64.12-1.1-.43-2.34-1.55-3.49-1.32-1.35-3.17-2.28-4.5-2.28-.08,0-.16,0-.24.01-.72.06-.95.37-1.06.59-.4.8.01,2.29.34,2.84.46.77,1.11,1.46,1.12,1.47.21.22.25.56.09.82-.13.21-.35.34-.59.34M28.8,11.75c.29-.06.58-.09.9-.09.02,0,.04,0,.07,0,.12,0,.23.01.35.02-.18-.43-.35-.92-.45-1.38-.07-.32-.08-.65-.07-.96-.5.55-.92,1.34-.81,2.41M31.21,23.81c1.01-.61,2.92-1.6,5.44-2.14,1.82-.39,3.26-1.52,3.58-2.81.21-.84-.11-1.63-.91-2.29-.66-.55-1.32-.74-1.92-.74-1.34,0-2.36.96-2.43,1.02-.11.11-.64.44-1.09.44-.09,0-.18-.01-.26-.04-.49-.18-.75-.99-.76-1.18-.01-.13-.34-2.99-3.12-3.03-.02,0-.04,0-.06,0-1.01,0-1.74.4-2.12,1.15-.6,1.19-.24,2.98.9,4.46,1.57,2.05,2.38,4.04,2.75,5.16M45.56,18.45c.11,0,.2-.02.27-.07.31-.21.33-.39.34-.46.05-.34-.23-.76-.3-.84-.24-.29-.2-.72.09-.97.13-.11.28-.16.44-.16.2,0,.39.08.53.25.08.09.74.92.6,1.91-.05.39-.26.94-.92,1.4-.3.21-.66.31-1.05.31-.06,0-.12,0-.18,0,.16.39.44.84.91,1.04.11.05.18.06.21.06.02,0,.03,0,.03,0,.1-.06.21-.41.22-.63.01-.25.16-.47.38-.58.1-.05.2-.07.3-.07.14,0,.27.04.39.12.5.34,1.35.75,1.8.75.04,0,.08,0,.12-.01.1-.11.1-.16.08-.21-.1-.33-.71-.73-1.01-.88-.28-.13-.43-.43-.38-.73.05-.3.3-.53.6-.57,0,0,.96-.11,1.8-.39.6-.2,1.89-1.07,2.1-1.94.06-.24.08-.63-.42-1.14-.82-.85-2.56-1.39-4.32-1.39-.25,0-.5.01-.75.03-1.6.14-2.83.73-3.44,1.64-.41.61-.54,1.24-.36,1.85.19.66.72,1.26,1.36,1.55.21.09.41.14.57.14M40.88,16.21c.79-.74.99-1.62.96-2.37-.19.25-.42.5-.68.7-.37.29-.82.55-1.24.76.09.07.19.13.28.21.26.22.49.45.68.7M21.21.85h0c-.14,0-.28,0-.41.02-1.27.12-2.25.74-2.76,1.75-.79,1.55-.24,3.58.25,4.59-.02.01-.04.02-.05.03-.55.35-.92.9-1.04,1.56-.11.6.03,1.21.4,1.71.42.57,1.11.93,1.74,1.16,0,0,0,0,0,.01-.26-.12-.57-.18-.89-.18-.63,0-1.28.24-1.83.65-1.18-1.16-2.67-1.81-4.18-1.81-.63,0-1.27.11-1.91.32-2.76.93-3.02,2.99-3.03,3.6-.03,1.46.88,2.84,2.22,3.36l.08.03c.39.14.76.22,1.1.22.51,0,.97-.16,1.33-.47.9-.76.75-1.93.68-2.27-.14-.67-.73-1.15-1.4-1.15-.1,0-.2.01-.3.03-.32.07-.61.24-.82.5-.02-.06-.02-.12-.02-.17.01-.53.76-.84,1.08-.95.34-.11.67-.17.98-.17,1.47,0,2.53,1.24,2.93,1.98.13.8.55,1.56,1.25,2.28.62.63,1.39,1.12,2.3,1.46.83.31,1.72.46,2.65.46.24,0,.47-.01.71-.03,1.28-.11,2.48-.52,3.48-1.18.26.62.61,1.21,1.03,1.76,1.99,2.6,2.61,5.16,2.64,5.27l.03.14.02.02c.05.13.11.26.2.37l.1.13.05.03c.1.1.21.18.32.24l.03.03.14.05h0s.13.05.13.05h.04c.1.02.21.04.32.04.06,0,.12,0,.18-.01h.07l.09-.02c.14-.03.27-.08.4-.16h.04s.12-.1.12-.1c.07-.05,2.21-1.6,5.41-2.28.68-.15,1.33-.37,1.93-.67.33,1.15.98,2.24,1.88,3.16.82.83,1.8,1.47,2.84,1.86.73.27,1.47.41,2.2.41.17,0,.33,0,.5-.02,1-.09,1.82-.4,2.43-.92.37-.14.94-.27,1.54-.27,1.17,0,2.05.48,2.62,1.44.17.29.54,1.01.21,1.42-.04.05-.08.09-.13.12,0-.32-.09-.65-.3-.92-.27-.35-.68-.55-1.13-.55-.32,0-.63.11-.88.3-.27.22-1.15,1.01-.96,2.17.09.56.46,1.32,1.69,1.77.03.01.07.02.1.03.33.12.71.18,1.09.18,1.06,0,2.09-.49,2.76-1.3.38-.47,1.52-2.21.03-4.71-1.09-1.83-2.91-2.84-5.1-2.84-.17,0-.33,0-.5.02-.23-1.02-.9-1.87-1.77-2.13,0,0,0,0,0,0,.54.21,1.04.32,1.5.32.2,0,.4-.02.58-.06.61-.14,1.11-.51,1.42-1.04.33-.57.41-1.24.21-1.86,0-.02-.01-.04-.02-.06,1.03-.45,2.76-1.64,3.17-3.33.27-1.1-.08-2.21-.97-3.12-1.22-1.25-3.46-2.03-5.85-2.03-.31,0-.63.01-.94.04-1.38.13-2.58.51-3.53,1.13-.1-.35-.23-.68-.37-.98-.24-.49-.73-.79-1.28-.79-.04,0-.09,0-.13,0-.59.05-1.08.45-1.25,1.02-.08.25-.38.99-.82,1.33-.5.39-1.26.73-1.67.91-.26-.04-.52-.06-.78-.06-1.13,0-2.08.38-2.75.77-.38-1.05-1.1-2.14-2.23-2.83-.2-.39-.55-1.15-.68-1.77-.11-.54.14-1.31.24-1.55.24-.54.12-1.16-.29-1.58-.26-.27-.64-.43-1.02-.43-.19,0-.38.04-.56.11-.31.13-.62.3-.92.5-.32-1.09-.98-2.16-1.95-3.15-1.73-1.77-4.1-2.91-6.04-2.92h0ZM21.92,7.36c-.08-.08-.62-.69-1.01-1.33-.28-.47-.54-1.67-.31-2.12.02-.05.08-.15.46-.19.06,0,.12,0,.17,0,1.13,0,2.8.86,3.96,2.05.97.99,1.44,2.01,1.34,2.88-.06.51-.25.87-.59,1.1-.26.17-.6.27-.95.27-.16,0-.32-.02-.47-.06-.02,0-.03,0-.05-.01.04-.01.07-.02.1-.03.77-.14,1.29-.88,1.16-1.66-.12-.69-.71-1.19-1.42-1.19-.08,0-.16,0-.24.02-.21.04-1.11.23-1.81.91-.06-.23-.17-.44-.34-.62v-.02h-.01ZM24.99,12.89c.31,0,.63-.03.93-.09-.09.14-.17.28-.25.43-.23.45-.38.96-.45,1.52-.06.06-.11.12-.16.19-.59.86-1.73,1.44-3.04,1.55-.16.01-.32.02-.47.02-.95,0-1.81-.25-2.46-.69.03,0,.06,0,.09,0,.53,0,1.02-.29,1.27-.76.07-.13.34-.69.32-1.37.05.02.09.04.14.06l.12.04c.35.11.7.17,1.06.17,1.3,0,2.35-.71,2.81-1.07.03,0,.07,0,.1,0h0ZM31.62,22.72c-.49-1.26-1.29-2.88-2.56-4.53-.95-1.24-1.29-2.75-.82-3.67.25-.5.72-.74,1.45-.74,2.14.03,2.41,2.12,2.44,2.36.04.37.4,1.49,1.25,1.81.16.06.33.09.51.09.7,0,1.4-.45,1.61-.65.03-.03.87-.81,1.91-.81.51,0,.98.19,1.44.57.86.71.71,1.33.66,1.54-.25,1-1.48,1.93-3.01,2.26-2.03.43-3.69,1.15-4.88,1.78h0ZM45.34,17.64s-.03-.01-.05-.02c-.44-.2-.82-.63-.94-1.07-.11-.39-.03-.79.26-1.22.49-.72,1.52-1.19,2.89-1.32.22-.02.45-.03.69-.03,1.56,0,3.12.48,3.79,1.16.27.28.24.39.23.44-.12.48-1.09,1.23-1.61,1.41-.7.23-1.5.34-1.62.35h-.03c-.24.03-.47.12-.66.25-.09-.97-.65-1.7-.78-1.86-.27-.33-.68-.52-1.11-.52-.33,0-.66.12-.92.33-.61.51-.69,1.42-.19,2.02.01.02.03.05.05.08h0ZM41.66,20.81c.3-.47.52-.96.64-1.45.04-.16.07-.33.09-.49.21.27.45.52.72.74.14.73.65,2.48,2.35,3.2l.13.05s.1.03.14.05c-.47.51-.62,1.11-.65,1.25-.08.37,0,.77.2,1.1.09.14.2.26.33.36-.91-.1-1.88-.6-2.66-1.39-.93-.94-1.42-2.12-1.31-3.16,0-.08,0-.17,0-.25h0Z"/>
          </g>
          <g>
            <path class="cls-2" d="M52.78,32.4c-.31,0-.61-.05-.89-.15-.81-.3-1.24-.72-1.33-1.29-.13-.81.51-1.39.71-1.55.14-.11.3-.17.48-.17.24,0,.47.11.61.3.26.34.2.83-.13,1.09-.02.01-.03.03-.05.05.05.02.12.06.22.09.12.04.25.06.38.06.4,0,.79-.19,1.04-.49.42-.52.37-1.29-.15-2.17-.87-1.45-2.21-1.76-3.18-1.76s-1.7.28-1.9.37c-.49.46-1.21.75-2.12.83-.15.01-.29.02-.44.02-.65,0-1.32-.12-1.97-.37-.95-.35-1.84-.94-2.59-1.7-1.04-1.06-1.71-2.38-1.9-3.72-.75.5-1.6.85-2.52,1.05-3.37.72-5.59,2.34-5.68,2.41-.09.07-.19.11-.29.14-.08,0-.13.01-.19.01-.09,0-.17-.01-.25-.04-.14-.05-.24-.13-.34-.24-.09-.1-.13-.2-.16-.31-.03-.12-.7-2.84-2.76-5.52-.57-.75-.99-1.57-1.24-2.43-1.01.9-2.37,1.46-3.86,1.59-.22.02-.44.03-.65.03-.85,0-1.67-.14-2.42-.42-.8-.29-1.51-.75-2.06-1.3-.64-.65-1.01-1.34-1.09-2.04-.44-.88-1.71-2.42-3.56-2.42-.39,0-.79.07-1.2.21-.97.33-1.51.88-1.53,1.55-.01.53.33,1.06.81,1.24.1.04.17.06.23.07,0-.03,0-.05,0-.06-.09-.42.19-.84.61-.92.05-.01.11-.02.16-.02.37,0,.69.26.76.62.04.18.18,1.09-.46,1.64-.25.21-.55.32-.91.32-.26,0-.56-.06-.88-.18-1.15-.45-1.89-1.57-1.87-2.76.01-.64.29-2.22,2.59-2.99.57-.19,1.14-.29,1.7-.29,1.53,0,3.03.76,4.15,2.08.49-.56,1.21-.92,1.87-.92.24,0,.46.05.65.14.58.25.82.66.93.96.25.73-.11,1.43-.15,1.51-.13.25-.4.41-.69.41-.13,0-.25-.03-.37-.09-.37-.2-.52-.67-.32-1.05.05-.09.07-.23.06-.27l-.04-.13-.06.09c-.16,0-.58.15-.8.51-.09.15-.13.3-.12.49.02.46.38.91.67,1.21.78.8,2,1.25,3.36,1.25.17,0,.35,0,.53-.02,1.51-.13,2.83-.82,3.53-1.84.07-.1.16-.18.29-.24,0-.53.13-1.07.37-1.54.27-.53.64-.96,1.13-1.29-.04-.24-.07-.49-.07-.74-.05.04-.09.07-.14.1-.62.41-1.39.64-2.18.64-.12,0-.24,0-.37-.02,0,.04-1.12,1.08-2.54,1.08-.29,0-.58-.04-.86-.13l-.1-.03c-.7-.26-.97-.71-1.07-1.05-.09-.28-.09-.58-.02-.89-.65-.17-1.49-.49-1.92-1.08-.27-.36-.36-.78-.28-1.21.09-.48.35-.87.75-1.12.19-.12.41-.21.65-.26-.08-.12-.15-.24-.23-.36-.43-.72-1.13-2.8-.39-4.26.29-.57.91-1.27,2.24-1.39.12-.01.23-.02.35-.02,1.74,0,3.98,1.09,5.57,2.72,1.2,1.23,1.88,2.57,1.97,3.89.48-.46,1.06-.86,1.62-1.09.1-.04.2-.06.3-.06.21,0,.41.08.55.23.22.23.29.57.16.86,0,.01-.47,1.07-.28,1.95.17.81.64,1.76.84,2.13,1.38.73,2.1,2.2,2.33,3.39.47-.37,1.63-1.16,3.14-1.16.3,0,.59.03.88.09.34-.15,1.32-.57,1.97-1.07.67-.51,1.01-1.55,1.05-1.66.09-.31.36-.53.68-.55h.01c.36,0,.62.16.75.43.27.55.46,1.22.52,1.88.93-.94,2.32-1.52,4.03-1.68.29-.03.58-.04.88-.04,2.18,0,4.3.72,5.38,1.83.93.95.95,1.89.8,2.51-.38,1.59-2.26,2.72-3.06,2.99-.14.05-.27.09-.41.13.15.2.26.41.33.62.14.46.09.92-.16,1.34-.22.38-.56.63-1,.73-.13.03-.28.05-.43.05-.5,0-1.08-.16-1.73-.48-.15.29-.35.51-.6.67-.24.15-.52.23-.81.23-.22,0-.45-.04-.68-.13l-.1-.04c-1.73-.72-1.99-2.87-2-2.96-.7-.49-1.26-1.27-1.5-2.09-.01-.05-.03-.11-.04-.16-.16.18-.34.35-.53.51.15.57.16,1.14.02,1.72-.12.51-.37,1.01-.73,1.5.07.04.09.16.07.28-.13,1.23.43,2.61,1.49,3.69,1,1.02,2.26,1.6,3.45,1.6.1,0,.21,0,.31-.01.42-.04.98-.15,1.29-.48.12-.13.2-.28.22-.45.07-.47-.22-.89-.31-.93-.12,0-.19.13-.21.23-.09.35-.4.6-.76.6-.06,0-.12,0-.17-.02-.2-.04-.37-.15-.48-.33-.11-.17-.15-.39-.11-.59.02-.08.2-.85.86-1.25.24-.14.51-.21.79-.21.17,0,.36.03.54.08.78.21,1.39,1.2,1.41,2.23.36-.06.72-.09,1.07-.09,1.95,0,3.57.9,4.54,2.52,1.24,2.08.43,3.46.02,3.96-.54.66-1.38,1.06-2.25,1.06h0ZM29.76,12.93c-.97,0-1.68.38-2.04,1.1-.58,1.16-.23,2.91.89,4.36,1.47,1.92,2.29,3.8,2.73,5.08,1.16-.69,3-1.59,5.37-2.09,1.79-.38,3.2-1.48,3.51-2.74.2-.8-.11-1.56-.88-2.2-.58-.48-1.2-.72-1.86-.72-1.28,0-2.25.89-2.36.99-.14.13-.68.46-1.15.46-.11,0-.2-.02-.29-.05-.54-.2-.8-1.05-.82-1.25-.01-.12-.31-2.91-3.03-2.95l-.06-.09v.09ZM45.59,19.71c.2.43.47.71.8.85.1.04.16.05.18.05.04-.03.15-.32.16-.54.01-.28.18-.53.43-.66.11-.05.22-.08.34-.08.16,0,.31.04.44.13.52.35,1.34.74,1.75.74.12-.06.12-.08.11-.1-.09-.29-.66-.68-.96-.82-.31-.15-.49-.49-.43-.83.06-.34.34-.61.68-.64.01,0,.95-.11,1.78-.39.61-.21,1.85-1.07,2.04-1.87.05-.22.07-.57-.4-1.05-.79-.81-2.5-1.36-4.26-1.36-.25,0-.5.01-.74.03-1.58.14-2.77.71-3.38,1.6-.4.59-.52,1.19-.35,1.77.18.63.69,1.22,1.31,1.5.19.09.38.13.53.13.09,0,.17-.02.22-.05.18-.12.28-.25.3-.39.04-.31-.22-.7-.28-.77-.13-.16-.2-.36-.18-.57.02-.21.12-.39.28-.53.14-.12.32-.18.5-.18.23,0,.45.1.6.28.13.16.76.99.62,1.98-.06.41-.27.99-.96,1.46-.31.21-.69.32-1.1.32h-.04ZM40.33,15.24c.23.19.44.4.63.63.54-.54.83-1.2.86-1.97-.17.2-.35.37-.54.51-.3.23-.67.47-1.11.7.06.04.11.08.16.12ZM21.62,11.42s.05.03.16.06c.12.04.25.06.38.06.24,0,.5-.06.78-.19-.33-.27-.56-.61-.66-.99-.22-.81,0-1.39.22-1.74.54-.84,1.56-1.06,1.76-1.1.04,0,.09-.01.13-.01.38,0,.71.27.77.65.07.42-.21.83-.63.9-.17.03-.57.17-.72.41-.03.04-.11.17-.02.49.04.16.3.33.63.43.2.06.42.09.65.09.48,0,.95-.14,1.31-.38.5-.33.8-.86.88-1.57.12-1.07-.42-2.28-1.53-3.41-1.29-1.32-3.12-2.25-4.43-2.25-.08,0-.16,0-.23,0-.67.06-.88.34-.99.54-.37.74,0,2.2.33,2.75.45.76,1.1,1.44,1.1,1.45.24.25.28.64.1.94-.14.24-.4.38-.67.38-.07,0-.13,0-.2-.03-.17-.05-.46-.09-.75-.09-.23,0-.42.03-.51.1.16.35,1.09.64,1.83.73.07,0,.13.02.18.04.2.07.37.23.45.43.11.26.07.56-.1.78-.15.2-.24.46-.23.53h0ZM29.58,9.41c-.48.6-.68,1.28-.62,2.04.28-.05.54-.07.82-.07.12,0,.2,0,.27.01-.18-.46-.32-.88-.39-1.26-.05-.23-.07-.47-.07-.72Z"/>
            <path class="cls-10" d="M21.28,1.4c1.71,0,3.92,1.07,5.5,2.69,1.25,1.27,1.93,2.69,1.96,4.04.57-.59,1.22-1,1.74-1.22.09-.04.18-.05.27-.05.18,0,.36.07.49.21.2.2.25.5.14.76,0,.01-.48,1.1-.29,2,.17.82.65,1.79.85,2.16,1.52.82,2.18,2.43,2.34,3.52.69-.6,1.87-1.24,3.21-1.24.28,0,.57.03.86.09.39-.15,1.38-.58,2.05-1.09.73-.56,1.08-1.7,1.08-1.71.08-.27.32-.46.6-.49.02,0,.04,0,.06,0,.26,0,.49.14.61.38.25.5.48,1.24.53,2.06.9-1.01,2.34-1.64,4.11-1.8.29-.03.58-.04.87-.04,2.13,0,4.23.69,5.31,1.8.9.92.92,1.83.78,2.42-.37,1.56-2.22,2.66-3,2.92-.18.06-.36.11-.54.16.17.21.31.44.4.7.13.43.08.87-.15,1.27-.2.36-.53.59-.94.69-.13.03-.27.04-.41.04-.6,0-1.26-.25-1.77-.51-.13.27-.32.53-.6.71-.18.11-.43.22-.76.22-.19,0-.41-.04-.65-.12-.03-.01-.06-.02-.1-.04-1.68-.7-1.93-2.8-1.94-2.88,0-.01,0-.02,0-.03-.71-.51-1.26-1.26-1.5-2.08-.03-.11-.06-.22-.08-.35-.2.24-.42.47-.7.69.16.55.18,1.13.03,1.73-.13.52-.38,1.01-.72,1.47.04.1.07.21.06.33-.13,1.26.43,2.66,1.52,3.76,1.02,1.03,2.31,1.63,3.51,1.63.11,0,.21,0,.31-.01.48-.04,1.04-.17,1.35-.51,0,0,0,0,0,0,.12-.13.22-.29.25-.5.07-.5-.22-.97-.36-1.03-.02,0-.07-.02-.11-.02-.02,0-.04,0-.05.01-.07.04-.15.21-.18.3-.08.31-.36.53-.67.53-.05,0-.1,0-.15-.02-.36-.07-.6-.44-.52-.81.02-.08.19-.82.82-1.19.17-.1.42-.2.74-.2.15,0,.33.02.51.08.79.22,1.37,1.24,1.34,2.25.37-.07.76-.11,1.17-.11,1.6,0,3.35.62,4.46,2.48,1.21,2.03.42,3.37.03,3.85-.53.66-1.35,1.02-2.17,1.02-.29,0-.58-.05-.86-.14-.02,0-.04-.01-.06-.02-.71-.26-1.12-.66-1.21-1.19-.13-.78.54-1.35.68-1.46.13-.1.27-.15.42-.15.2,0,.41.09.54.27.23.3.18.73-.11.96-.05.04-.1.1-.14.15.06.04.16.09.33.15.13.05.27.07.42.07.41,0,.84-.19,1.11-.52.45-.55.4-1.36-.15-2.28-.84-1.41-2.13-1.8-3.26-1.8-.8,0-1.51.2-1.94.38-.42.39-1.07.73-2.1.82-.14.01-.29.02-.43.02-.64,0-1.3-.12-1.94-.36-.92-.34-1.81-.91-2.56-1.68-1.08-1.1-1.74-2.47-1.89-3.81-.74.51-1.62.91-2.61,1.12-3.43.73-5.69,2.41-5.72,2.42,0,0,0,0,0,0-.07.05-.16.1-.25.12,0,0,0,0,0,0,0,0-.01,0-.02,0,0,0,0,0,0,0-.05,0-.09.01-.14.01-.07,0-.15-.01-.22-.04,0,0,0,0,0,0,0,0,0,0,0,0,0,0,0,0,0,0,0,0,0,0,0,0,0,0,0,0,0,0h0s0,0,0,0c-.11-.04-.21-.12-.28-.21,0,0-.02,0-.02-.02-.06-.08-.1-.17-.12-.26,0,0,0,0,0,0,0-.03-.65-2.79-2.77-5.56-.62-.8-1.03-1.68-1.26-2.55-.98.93-2.38,1.54-3.91,1.67-.22.02-.43.03-.65.03-.84,0-1.65-.14-2.39-.41-.78-.29-1.48-.72-2.02-1.28-.72-.74-1-1.41-1.06-1.98-.42-.84-1.7-2.5-3.66-2.5-.38,0-.79.06-1.23.21-1.01.34-1.58.92-1.59,1.64-.01.57.35,1.13.87,1.33.18.06.29.09.35.1,0-.07,0-.15,0-.19-.08-.37.16-.73.54-.81.05-.01.09-.01.14-.01.32,0,.6.23.67.55.03.17.18,1.04-.43,1.55-.23.2-.52.29-.85.29-.25,0-.54-.06-.84-.17-.02,0-.04-.02-.06-.02-1.05-.41-1.77-1.5-1.74-2.64.01-.62.29-2.15,2.52-2.91.58-.2,1.14-.29,1.67-.29,1.79,0,3.22,1,4.14,2.13.48-.59,1.21-.97,1.87-.97.22,0,.42.04.61.13.55.24.78.63.88.91.24.69-.11,1.36-.15,1.43-.12.23-.36.36-.61.36-.11,0-.22-.03-.32-.08-.33-.18-.46-.59-.28-.92.05-.09.09-.27.06-.35-.02-.04-.1-.08-.13-.1-.02,0-.04,0-.06,0-.19,0-.64.17-.88.55-.11.18-.15.36-.14.54,0,0,0,0,0,0,.02.46.36.92.7,1.27.8.82,2.06,1.28,3.42,1.28.18,0,.36,0,.54-.02,1.54-.13,2.88-.84,3.6-1.88.07-.1.16-.16.25-.21.04-.56.17-1.1.41-1.58.27-.55.67-.98,1.15-1.29-.07-.34-.09-.66-.08-.97-.1.08-.19.15-.28.21-.61.41-1.37.62-2.13.62-.12,0-.24,0-.36-.02,0,0-.01.01-.02.02-.05.05-1.15,1.06-2.52,1.06-.27,0-.54-.04-.83-.13-.03-.01-.07-.02-.1-.03-.66-.24-.92-.67-1.01-.99-.1-.33-.08-.65,0-.93-.68-.17-1.53-.49-1.96-1.06-.25-.34-.34-.73-.27-1.13.08-.45.33-.82.71-1.06.23-.15.49-.23.76-.28-.1-.15-.21-.31-.3-.47-.42-.71-1.11-2.74-.38-4.17.28-.55.88-1.22,2.16-1.34.11-.01.23-.02.34-.02M20.95,8.85c-.06,0-.12,0-.17-.02-.21-.05-.5-.1-.78-.1-.23,0-.44.03-.56.11-.05.03-.08.06-.09.15.27.39,1.31.67,1.96.75.06,0,.11.02.16.04.18.06.32.2.4.38.1.23.06.49-.09.69-.15.2-.28.52-.24.62,0,.01.05.07.22.12.14.04.28.06.41.06.35,0,.68-.12.95-.26-.37-.27-.63-.62-.74-1.03-.21-.78,0-1.33.21-1.66.53-.84,1.58-1.04,1.7-1.06.04,0,.08,0,.12,0,.33,0,.62.23.68.57.06.37-.18.73-.55.79-.15.03-.6.17-.78.45-.03.05-.13.21-.04.56.05.19.33.39.69.49.22.06.44.09.67.09.49,0,.98-.14,1.37-.39.53-.35.84-.9.92-1.64.12-1.1-.43-2.34-1.55-3.49-1.32-1.35-3.17-2.28-4.5-2.28-.08,0-.16,0-.24.01-.72.06-.95.37-1.06.59-.4.8.01,2.29.34,2.84.46.77,1.11,1.46,1.12,1.47.21.22.25.56.09.82-.13.21-.35.34-.59.34M28.87,11.55c.29-.06.58-.09.9-.09.02,0,.04,0,.07,0,.12,0,.23.01.35.02-.18-.43-.35-.92-.45-1.38-.07-.32-.08-.65-.07-.96-.5.55-.92,1.34-.81,2.41M31.29,23.62c1.01-.61,2.92-1.6,5.44-2.14,1.82-.39,3.26-1.52,3.58-2.81.21-.84-.11-1.63-.91-2.29-.66-.55-1.32-.74-1.92-.74-1.34,0-2.36.96-2.43,1.02-.11.11-.64.44-1.09.44-.09,0-.17-.01-.25-.04-.49-.18-.75-.99-.76-1.18-.01-.13-.34-2.99-3.12-3.03-.02,0-.04,0-.06,0-1.01,0-1.74.4-2.12,1.15-.6,1.19-.24,2.98.9,4.46,1.57,2.05,2.38,4.04,2.75,5.16M45.63,18.25c.11,0,.2-.02.27-.07.3-.21.33-.39.34-.46.05-.34-.23-.76-.3-.84-.24-.29-.2-.72.09-.97.13-.11.28-.16.44-.16.2,0,.39.08.53.25.08.09.74.92.6,1.91-.05.39-.26.94-.92,1.4-.3.2-.66.31-1.05.31-.06,0-.12,0-.18,0,.16.39.44.84.91,1.04.11.05.18.06.21.06.02,0,.03,0,.03,0,.1-.06.21-.41.22-.63.01-.25.16-.47.38-.58.1-.05.2-.07.3-.07.14,0,.27.04.39.12.5.34,1.35.75,1.8.75.04,0,.08,0,.12-.01.1-.11.1-.16.08-.21-.1-.33-.71-.73-1.01-.88-.28-.13-.43-.43-.38-.73.05-.3.3-.53.6-.57,0,0,.96-.11,1.8-.39.6-.2,1.89-1.07,2.1-1.94.06-.24.08-.63-.42-1.14-.82-.85-2.56-1.39-4.32-1.39-.25,0-.5.01-.75.03-1.6.14-2.83.73-3.44,1.64-.41.61-.54,1.24-.36,1.85.19.66.72,1.26,1.36,1.55.21.09.41.14.57.14M40.95,16.01c.79-.74.99-1.62.96-2.37-.19.25-.42.5-.68.7-.37.29-.82.55-1.24.76.09.07.19.13.28.21.26.22.49.45.68.7M21.28,1.22h0c-.12,0-.24,0-.36.02-1.37.12-2.01.85-2.31,1.44-.76,1.5-.05,3.61.39,4.35.05.09.1.17.16.25-.2.06-.39.14-.55.24-.43.27-.7.68-.79,1.18-.08.46.02.9.3,1.28.43.58,1.23.91,1.89,1.09-.05.3-.04.59.04.85.11.36.4.84,1.13,1.11l.1.03c.29.09.59.14.89.14,1.32,0,2.4-.89,2.61-1.08.1,0,.19.01.29.01.81,0,1.6-.23,2.23-.66.01.17.03.35.06.52-.47.34-.84.77-1.11,1.29-.23.45-.37.97-.42,1.55-.1.06-.17.13-.23.22-.68,1-1.98,1.67-3.46,1.8-.17.02-.35.02-.52.02-1.33,0-2.53-.45-3.29-1.22-.28-.29-.62-.72-.64-1.15,0-.16.03-.3.11-.43.21-.33.6-.47.72-.47,0,0,0,0,.01,0,0,.04-.02.12-.05.17-.22.42-.06.95.36,1.17.13.07.27.1.41.1.32,0,.62-.18.77-.46.04-.08.42-.82.16-1.58-.11-.32-.37-.75-.98-1.02-.2-.09-.44-.14-.69-.14-.65,0-1.36.34-1.87.87-1.12-1.29-2.62-2.03-4.15-2.03-.57,0-1.15.1-1.73.29-2.35.79-2.64,2.42-2.65,3.08-.03,1.22.74,2.38,1.86,2.82l.06.02c.33.12.64.18.91.18.38,0,.7-.11.97-.34.69-.58.53-1.54.5-1.73-.08-.41-.44-.7-.85-.7-.06,0-.12,0-.18.02-.23.05-.42.18-.55.37-.11.17-.16.37-.14.57-.03,0-.05-.02-.09-.03-.44-.17-.75-.66-.74-1.15.01-.63.53-1.15,1.46-1.47.39-.13.79-.2,1.17-.2,1.79,0,3.02,1.48,3.48,2.37.09.71.46,1.4,1.11,2.06.56.57,1.27,1.02,2.09,1.32.77.28,1.59.43,2.45.43.22,0,.44,0,.66-.03,1.45-.13,2.79-.66,3.8-1.52.26.83.66,1.61,1.21,2.32,2.06,2.69,2.71,5.37,2.74,5.48v.03s.01,0,.01,0c.03.11.08.2.14.29l.02.03h.02c.09.12.19.19.31.24h0s.04.02.04.02h.03s0,.01,0,.01c.08.02.16.04.25.04.05,0,.1,0,.15-.01h.02c.15-.03.25-.07.34-.13h0s.03-.02.03-.02c.09-.07,2.32-1.68,5.64-2.39.88-.19,1.7-.52,2.43-.98.21,1.31.88,2.59,1.9,3.62.76.77,1.67,1.37,2.63,1.72.67.25,1.34.37,2,.37.15,0,.3,0,.45-.02.92-.08,1.65-.37,2.18-.85.23-.1.94-.35,1.84-.35.95,0,2.26.3,3.1,1.71.5.84.56,1.58.16,2.06-.23.28-.6.45-.96.45-.12,0-.24-.02-.35-.06-.03-.01-.06-.02-.08-.03.32-.3.36-.81.08-1.17-.17-.21-.42-.34-.69-.34-.2,0-.38.06-.54.19-.15.12-.89.75-.75,1.64.1.6.55,1.05,1.33,1.34l.07.03c.29.1.6.15.92.15.89,0,1.76-.41,2.32-1.09.42-.51,1.25-1.94-.02-4.06-.99-1.66-2.63-2.57-4.62-2.57-.33,0-.65.02-.98.07-.05-1.05-.67-1.99-1.48-2.21-.19-.06-.38-.09-.56-.09-.3,0-.59.08-.84.23-.7.41-.89,1.22-.91,1.31-.05.23,0,.47.12.67.13.19.32.32.54.37.06.01.12.02.19.02.4,0,.75-.27.85-.67.01-.06.05-.13.08-.17,0,0,.02,0,.03,0,.04.03.29.4.23.82-.02.15-.09.28-.2.4-.29.31-.83.42-1.24.45-.1,0-.2.01-.3.01-1.17,0-2.4-.57-3.38-1.57-1.04-1.06-1.59-2.41-1.46-3.61.01-.1,0-.21-.03-.32.34-.47.57-.96.69-1.45.14-.57.14-1.14,0-1.7.13-.11.26-.23.38-.36.23.82.78,1.59,1.5,2.13.05.35.39,2.29,2.05,2.99l.1.04c.25.09.49.14.72.14.31,0,.6-.08.86-.25.24-.15.43-.36.59-.62.63.3,1.2.45,1.69.45.16,0,.31-.02.45-.05.46-.11.83-.38,1.06-.78.26-.44.31-.93.16-1.42-.06-.18-.14-.36-.26-.54.1-.03.19-.06.29-.09.81-.27,2.73-1.42,3.12-3.05.15-.64.14-1.61-.82-2.6-1.1-1.13-3.24-1.86-5.45-1.86-.3,0-.59.01-.88.04-1.65.15-3.01.69-3.95,1.57-.08-.61-.26-1.22-.51-1.73-.15-.3-.45-.48-.78-.48-.03,0-.05,0-.08,0-.36.03-.66.27-.76.62,0,0-.34,1.1-1.02,1.62-.61.47-1.53.87-1.95,1.04-.28-.06-.56-.08-.84-.08-1.42,0-2.54.69-3.08,1.09-.25-1.17-.98-2.56-2.33-3.31-.21-.4-.64-1.3-.8-2.06-.18-.83.26-1.85.28-1.89.14-.33.08-.71-.18-.96-.16-.17-.39-.26-.62-.26-.12,0-.23.02-.34.07-.52.22-1.05.57-1.51.98-.14-1.28-.82-2.57-1.98-3.76-1.61-1.64-3.87-2.75-5.64-2.75h0ZM20.95,9.03c.31,0,.6-.16.75-.43.2-.34.15-.76-.11-1.04,0,0-.64-.69-1.09-1.44-.32-.54-.69-1.95-.33-2.66.1-.2.3-.44.91-.49.07,0,.15-.01.23-.01,1.29,0,3.08.91,4.36,2.22,1.09,1.11,1.62,2.29,1.5,3.33-.08.68-.36,1.19-.84,1.51-.34.23-.8.36-1.26.36-.22,0-.43-.03-.62-.09-.33-.09-.53-.26-.56-.36-.07-.27,0-.38.01-.41.12-.19.49-.33.66-.36.47-.08.79-.54.71-1.01-.07-.42-.43-.72-.86-.72-.05,0-.1,0-.15.01-.21.04-1.26.26-1.82,1.14-.23.36-.46.97-.23,1.81.09.35.29.67.57.93-.21.08-.41.12-.6.12-.12,0-.24-.02-.35-.05-.04-.01-.07-.02-.09-.03.02-.09.1-.27.21-.41.19-.25.23-.58.11-.87-.09-.22-.28-.4-.5-.48-.06-.02-.13-.04-.2-.05-.65-.07-1.44-.31-1.74-.57.07-.03.19-.06.41-.06.28,0,.56.05.73.09.07.02.15.03.22.03h0ZM29.04,11.34c-.03-.6.12-1.16.45-1.66.01.16.03.32.07.47.07.34.19.72.35,1.13-.02,0-.04,0-.06,0h-.07c-.24,0-.48.02-.73.06h0ZM31.39,23.34c-.45-1.28-1.26-3.12-2.7-5-1.09-1.43-1.44-3.14-.88-4.27.34-.69,1.02-1.05,1.95-1.05h.06c2.64.04,2.93,2.75,2.94,2.86.02.22.3,1.12.89,1.33.1.04.2.05.32.05.5,0,1.07-.35,1.22-.49.1-.1,1.06-.97,2.3-.97.64,0,1.24.23,1.8.69.74.62,1.04,1.34.85,2.1-.3,1.22-1.68,2.3-3.44,2.67-2.32.5-4.13,1.36-5.3,2.04h0ZM45.63,18.06c-.14,0-.32-.04-.5-.13-.59-.27-1.08-.83-1.25-1.43-.16-.56-.04-1.12.34-1.69.59-.87,1.76-1.42,3.31-1.56.24-.02.49-.03.74-.03,1.73,0,3.41.53,4.19,1.33.43.44.43.75.38.97-.19.77-1.39,1.61-1.98,1.81-.82.28-1.75.38-1.76.38-.39.04-.71.34-.77.72-.06.38.13.77.48.93.31.15.81.51.9.74,0,0,0,0-.01,0-.38,0-1.19-.37-1.7-.72-.15-.1-.32-.15-.49-.15-.13,0-.27.03-.39.09-.28.14-.47.42-.48.74,0,.15-.07.35-.11.45-.02,0-.05-.02-.09-.03-.28-.12-.51-.34-.69-.68.39-.02.75-.13,1.04-.34.72-.49.94-1.1,1-1.53.14-1.03-.51-1.89-.64-2.05-.17-.2-.41-.32-.67-.32-.2,0-.4.07-.56.2-.37.31-.42.86-.11,1.23.07.08.29.44.26.69,0,.04-.02.16-.26.33-.03.02-.09.04-.16.04h0ZM40.35,15.13c.39-.21.72-.43,1-.64.12-.1.25-.2.36-.32-.07.6-.32,1.12-.74,1.56-.18-.21-.37-.39-.57-.56-.02-.01-.03-.03-.05-.04h0Z"/>
          </g>
        </g>
        <g>
          <g>
            <path class="cls-4" d="M62.26,30.81s-.08-.02-.1-.05c-.15-.22-3.64-5.37-2.74-8.64.26-.94.85-1.63,1.77-2.06.5-.23,1-.35,1.48-.35.53,0,1.04.15,1.51.43,1.31.82,1.96,2.57,1.79,3.77.6-.52,1.59-.86,2.57-.86,1.07,0,1.98.39,2.55,1.09.37.46.6,1.04.69,1.71.13.99-.11,1.85-.74,2.56-1.94,2.23-6.98,2.4-8.48,2.4h-.32Z"/>
            <path class="cls-11" d="M62.66,19.82c.54,0,1.02.16,1.45.41,1.43.89,2.08,2.99,1.61,4.12.48-.7,1.65-1.19,2.82-1.19.92,0,1.85.3,2.46,1.05.33.41.57.96.67,1.65.62,4.58-7.38,4.82-9.09,4.82-.2,0-.32,0-.32,0,0,0-5.7-8.33-1.02-10.52.51-.24.99-.34,1.42-.34M62.66,19.57c-.5,0-1.01.12-1.53.36-.95.45-1.57,1.17-1.84,2.14-.91,3.33,2.61,8.53,2.76,8.74.05.07.12.11.2.11,0,0,.12,0,.32,0,1.51,0,6.59-.18,8.57-2.44.65-.74.9-1.64.77-2.66-.09-.7-.34-1.3-.72-1.77-.6-.74-1.55-1.14-2.65-1.14-.9,0-1.8.28-2.43.71.04-1.23-.62-2.82-1.88-3.61-.49-.3-1.02-.45-1.58-.45h0Z"/>
          </g>
          <path class="cls-7" d="M62.26,30.68s10.1.3,9.4-4.81c-.09-.7-.34-1.24-.67-1.65-1.51,2.97-5.48,6.73-7.92,3.68-2.53-3.17.03-6.54,1.03-7.66-.76-.47-1.73-.6-2.87-.08-4.68,2.19,1.02,10.52,1.02,10.52Z"/>
          <g class="cls-9">
            <path class="cls-10" d="M62.67,20.09c1.19,0,1.93.84,2.27,1.34.61.92.84,2.11.54,2.83-.05.12,0,.27.12.33.04.02.08.03.13.03.08,0,.17-.04.22-.11.43-.62,1.53-1.07,2.6-1.07.76,0,2.57.24,2.87,2.47.12.88-.09,1.62-.65,2.25-1.89,2.16-7.17,2.27-8.21,2.27-.06,0-.11,0-.15,0-.51-.78-3.39-5.37-2.61-8.22.23-.83.74-1.42,1.56-1.8.45-.21.9-.32,1.32-.32M62.67,19.82c-.44,0-.92.1-1.43.34-4.67,2.18,1.03,10.52,1.03,10.52,0,0,.11,0,.29,0,1.66,0,9.73-.23,9.11-4.82-.27-1.97-1.71-2.69-3.13-2.69-1.17,0-2.34.49-2.82,1.19.61-1.46-.67-4.54-3.05-4.54h0Z"/>
          </g>
          <ellipse class="cls-1" cx="69.95" cy="25.06" rx="1.08" ry="1.61" transform="translate(-2.17 42.93) rotate(-33.63)"/>
        </g>
        <g>
          <g>
            <path class="cls-4" d="M5.45,7.01c-.16-.03-3.95-.68-5.04-2.49C.1,4,.04,3.43.25,2.82c.24-.7.7-1.15,1.34-1.32.17-.04.34-.06.53-.06.71,0,1.47.33,1.89.8.05-.41.25-.87.57-1.26.44-.54,1.03-.85,1.62-.85.04,0,.09,0,.14,0,.37.03.74.18,1.08.43.52.38.8.88.85,1.49.15,2.1-2.58,4.82-2.7,4.93-.02.02-.06.04-.09.04,0,0-.01,0-.02,0Z"/>
            <path class="cls-11" d="M6.2.25s.08,0,.12,0c.32.03.67.15,1.02.41,2.57,1.87-1.87,6.23-1.87,6.23,0,0-6.12-1.02-5.11-4.03.25-.73.72-1.1,1.26-1.24.16-.04.33-.06.49-.06.88,0,1.77.52,2.02,1.1-.18-.88.78-2.41,2.06-2.41M6.2,0h0c-.63,0-1.25.33-1.72.9-.27.33-.46.71-.55,1.08-.46-.4-1.14-.67-1.81-.67-.19,0-.38.02-.55.07-.48.13-1.11.47-1.43,1.4-.22.64-.16,1.25.18,1.81,1.11,1.86,4.96,2.52,5.12,2.55.01,0,.03,0,.04,0,.06,0,.13-.03.18-.07.12-.12,2.9-2.87,2.74-5.03-.05-.65-.35-1.18-.9-1.58C7.12.19,6.74.04,6.35,0,6.29,0,6.25,0,6.2,0h0Z"/>
          </g>
          <path class="cls-8" d="M5.47,6.89S9.91,2.53,7.34.66c-.35-.25-.69-.38-1.02-.41.68,1.94.65,5.3-1.74,5.08-2.48-.23-2.89-2.8-2.96-3.72-.53.14-1,.51-1.26,1.24-1.02,3.01,5.11,4.03,5.11,4.03Z"/>
          <g class="cls-9">
            <path class="cls-10" d="M6.2.54c.32,0,.65.12.97.35.42.3.64.69.67,1.18.12,1.7-1.97,3.99-2.47,4.5-.7-.14-3.74-.81-4.61-2.27-.25-.42-.29-.86-.13-1.35.31-.91.97-1.11,1.47-1.11.8,0,1.57.49,1.76.93.05.11.15.17.26.17.03,0,.06,0,.09-.01.14-.04.23-.19.2-.33-.07-.37.12-.93.48-1.36.36-.45.84-.7,1.3-.7M6.2.25c-1.28,0-2.24,1.52-2.06,2.41-.25-.58-1.15-1.1-2.02-1.1-.72,0-1.42.35-1.75,1.3-1.02,3,5.11,4.03,5.11,4.03,0,0,4.43-4.36,1.87-6.23-.39-.29-.78-.41-1.14-.41h0Z"/>
          </g>
          <ellipse class="cls-1" cx="6.25" cy="1.08" rx=".67" ry=".99" transform="translate(4.08 7.04) rotate(-79.8)"/>
        </g>
      </g>
    </g>
  </g>
</svg>