<?xml version="1.0" encoding="UTF-8"?>
<svg xmlns="http://www.w3.org/2000/svg" xmlns:xlink="http://www.w3.org/1999/xlink" viewBox="0 0 86.29 57.61">
  <defs>
    <style>
      .cls-1 {
        fill: #2b2b2b;
      }

      .cls-2 {
        fill: url(#linear-gradient-8);
      }

      .cls-3 {
        fill: url(#linear-gradient-7);
      }

      .cls-4 {
        fill: url(#linear-gradient-5);
      }

      .cls-5 {
        fill: url(#linear-gradient-6);
      }

      .cls-6 {
        fill: url(#linear-gradient-9);
      }

      .cls-7 {
        fill: url(#linear-gradient-4);
      }

      .cls-8 {
        fill: url(#linear-gradient-3);
      }

      .cls-9 {
        fill: url(#linear-gradient-2);
      }

      .cls-10 {
        fill: url(#linear-gradient);
      }

      .cls-11 {
        fill: #ffb8df;
      }

      .cls-12 {
        isolation: isolate;
      }

      .cls-13 {
        fill: url(#linear-gradient-32);
      }

      .cls-13, .cls-14 {
        mix-blend-mode: multiply;
      }

      .cls-14 {
        fill: url(#linear-gradient-36);
      }

      .cls-15 {
        fill: #fff;
      }

      .cls-16 {
        fill: url(#linear-gradient-33);
      }

      .cls-16, .cls-17 {
        mix-blend-mode: overlay;
      }

      .cls-17 {
        fill: url(#linear-gradient-37);
      }

      .cls-18 {
        fill: url(#linear-gradient-10);
      }

      .cls-19 {
        fill: url(#linear-gradient-11);
      }

      .cls-20 {
        fill: url(#linear-gradient-12);
      }

      .cls-21 {
        fill: url(#linear-gradient-13);
      }

      .cls-22 {
        fill: url(#linear-gradient-19);
      }

      .cls-23 {
        fill: url(#linear-gradient-14);
      }

      .cls-24 {
        fill: url(#linear-gradient-21);
      }

      .cls-25 {
        fill: url(#linear-gradient-20);
      }

      .cls-26 {
        fill: url(#linear-gradient-22);
      }

      .cls-27 {
        fill: url(#linear-gradient-23);
      }

      .cls-28 {
        fill: url(#linear-gradient-28);
      }

      .cls-29 {
        fill: url(#linear-gradient-25);
      }

      .cls-30 {
        fill: url(#linear-gradient-31);
      }

      .cls-31 {
        fill: url(#linear-gradient-30);
      }

      .cls-32 {
        fill: url(#linear-gradient-15);
      }

      .cls-33 {
        fill: url(#linear-gradient-16);
      }

      .cls-34 {
        fill: url(#linear-gradient-17);
      }

      .cls-35 {
        fill: url(#linear-gradient-18);
      }

      .cls-36 {
        fill: url(#linear-gradient-35);
      }

      .cls-37 {
        fill: url(#linear-gradient-34);
      }

      .cls-38 {
        fill: url(#linear-gradient-27);
      }

      .cls-39 {
        fill: url(#linear-gradient-24);
      }

      .cls-40 {
        fill: url(#linear-gradient-26);
      }

      .cls-41 {
        fill: url(#linear-gradient-29);
      }
    </style>
    <linearGradient id="linear-gradient" x1="64.05" y1="43.95" x2="71.68" y2="43.95" gradientUnits="userSpaceOnUse">
      <stop offset=".06" stop-color="#d7c9ed"/>
      <stop offset=".44" stop-color="#fff"/>
      <stop offset="1" stop-color="#d7c9ed"/>
    </linearGradient>
    <linearGradient id="linear-gradient-2" x1="63.67" y1="43.95" x2="72.07" y2="43.95" gradientUnits="userSpaceOnUse">
      <stop offset="0" stop-color="#c19ffa"/>
      <stop offset=".04" stop-color="#d0b8f9"/>
      <stop offset=".58" stop-color="#cab5e8"/>
      <stop offset="1" stop-color="#c8b5e3"/>
    </linearGradient>
    <linearGradient id="linear-gradient-3" x1="71.83" y1="39.61" x2="79.19" y2="39.61" xlink:href="#linear-gradient"/>
    <linearGradient id="linear-gradient-4" x1="71.44" y1="39.61" x2="79.58" y2="39.61" xlink:href="#linear-gradient-2"/>
    <linearGradient id="linear-gradient-5" x1="78.62" y1="33.12" x2="85.9" y2="33.12" xlink:href="#linear-gradient"/>
    <linearGradient id="linear-gradient-6" x1="78.24" y1="33.12" x2="86.29" y2="33.12" xlink:href="#linear-gradient-2"/>
    <linearGradient id="linear-gradient-7" x1="360.34" y1="43.95" x2="367.96" y2="43.95" gradientTransform="translate(414.24) rotate(-180) scale(1 -1)" xlink:href="#linear-gradient"/>
    <linearGradient id="linear-gradient-8" x1="54.29" y1="43.95" x2="45.89" y2="43.95" xlink:href="#linear-gradient-2"/>
    <linearGradient id="linear-gradient-9" x1="368.12" y1="39.61" x2="375.48" y2="39.61" gradientTransform="translate(414.24) rotate(-180) scale(1 -1)" xlink:href="#linear-gradient"/>
    <linearGradient id="linear-gradient-10" x1="46.51" y1="39.61" x2="38.37" y2="39.61" xlink:href="#linear-gradient-2"/>
    <linearGradient id="linear-gradient-11" x1="374.9" y1="33.12" x2="382.18" y2="33.12" gradientTransform="translate(414.24) rotate(-180) scale(1 -1)" xlink:href="#linear-gradient"/>
    <linearGradient id="linear-gradient-12" x1="39.72" y1="33.12" x2="31.67" y2="33.12" xlink:href="#linear-gradient-2"/>
    <linearGradient id="linear-gradient-13" x1="-16.44" y1="16.32" x2="-8.67" y2="16.32" gradientTransform="translate(68.43 27.39) rotate(-9.96)" xlink:href="#linear-gradient"/>
    <linearGradient id="linear-gradient-14" x1="54.68" y1="46.38" x2="63.09" y2="44.9" xlink:href="#linear-gradient-2"/>
    <linearGradient id="linear-gradient-15" x1="745.71" y1="-323.12" x2="749.48" y2="-323.12" gradientTransform="translate(-641.91 -335.5) rotate(49.5) scale(1 .9)" xlink:href="#linear-gradient"/>
    <linearGradient id="linear-gradient-16" x1="64.38" y1="46.76" x2="62.67" y2="43.59" xlink:href="#linear-gradient-2"/>
    <linearGradient id="linear-gradient-17" x1="668.12" y1="-240.83" x2="671.63" y2="-240.83" gradientTransform="translate(-601.96 -187.54) rotate(38.59)" xlink:href="#linear-gradient"/>
    <linearGradient id="linear-gradient-18" x1="72.39" y1="43.06" x2="71.28" y2="41.08" xlink:href="#linear-gradient-2"/>
    <linearGradient id="linear-gradient-19" x1="559.43" y1="-222.02" x2="562.93" y2="-222.02" gradientTransform="translate(-524.46 14.18) rotate(23.69)" xlink:href="#linear-gradient"/>
    <linearGradient id="linear-gradient-20" x1="79.42" y1="37.15" x2="77.84" y2="35.52" xlink:href="#linear-gradient-2"/>
    <linearGradient id="linear-gradient-21" x1="463.84" y1="-193.28" x2="469.65" y2="-193.28" gradientTransform="translate(-361.99 314.83) rotate(-11.16) scale(.88 .98) skewX(-13.58)" xlink:href="#linear-gradient"/>
    <linearGradient id="linear-gradient-22" x1="48.81" y1="41.52" x2="43.29" y2="42.11" xlink:href="#linear-gradient-2"/>
    <linearGradient id="linear-gradient-23" x1="582.75" y1="-266.19" x2="588.56" y2="-266.19" gradientTransform="translate(-588.1 179.54) rotate(11.57)" xlink:href="#linear-gradient"/>
    <linearGradient id="linear-gradient-24" x1="41.91" y1="36.05" x2="36.15" y2="36.31" xlink:href="#linear-gradient-2"/>
    <linearGradient id="linear-gradient-25" x1="647.63" y1="-100.21" x2="654.11" y2="-100.21" gradientTransform="translate(-509.56 -74.87) rotate(22.01) scale(.87 1)" xlink:href="#linear-gradient"/>
    <linearGradient id="linear-gradient-26" x1="56.98" y1="46.73" x2="51.94" y2="43.28" xlink:href="#linear-gradient-2"/>
    <linearGradient id="linear-gradient-27" x1="51.4" y1="52.5" x2="60.31" y2="52.5" gradientTransform="translate(-19 -8.91) rotate(2.86)" xlink:href="#linear-gradient"/>
    <linearGradient id="linear-gradient-28" x1="29.33" y1="46.08" x2="38.99" y2="46.56" xlink:href="#linear-gradient-2"/>
    <linearGradient id="linear-gradient-29" x1="54.98" y1="44.01" x2="56.81" y2="44.01" gradientTransform="translate(-19 -8.91) rotate(2.86)" xlink:href="#linear-gradient"/>
    <linearGradient id="linear-gradient-30" x1="33.33" y1="37.78" x2="35.93" y2="37.91" xlink:href="#linear-gradient-2"/>
    <linearGradient id="linear-gradient-31" x1="137.6" y1="41.79" x2="88.24" y2="57.61" gradientTransform="translate(-81.76 -42.77) rotate(12.29)" gradientUnits="userSpaceOnUse">
      <stop offset="0" stop-color="#3d3442"/>
      <stop offset="1" stop-color="#29272e"/>
    </linearGradient>
    <linearGradient id="linear-gradient-32" x1="123.88" y1="17.72" x2="117.87" y2="57.83" gradientTransform="translate(-81.76 -42.77) rotate(12.29)" gradientUnits="userSpaceOnUse">
      <stop offset="0" stop-color="#81778b" stop-opacity="0"/>
      <stop offset="1" stop-color="#564e5c"/>
    </linearGradient>
    <linearGradient id="linear-gradient-33" x1="119.07" y1="54.89" x2="113.7" y2="76.56" gradientTransform="translate(-81.76 -42.77) rotate(12.29)" gradientUnits="userSpaceOnUse">
      <stop offset="0" stop-color="#fff" stop-opacity="0"/>
      <stop offset="1" stop-color="#fff"/>
    </linearGradient>
    <linearGradient id="linear-gradient-34" x1="-4.55" y1="14.89" x2="19.31" y2="4.62" gradientUnits="userSpaceOnUse">
      <stop offset="0" stop-color="#3d3442"/>
      <stop offset=".91" stop-color="#17161a"/>
    </linearGradient>
    <linearGradient id="linear-gradient-35" x1="35.58" y1="9.89" x2="-13.74" y2="25.7" gradientTransform="matrix(1,0,0,1,0,0)" xlink:href="#linear-gradient-31"/>
    <linearGradient id="linear-gradient-36" x1="30.7" y1="17.17" x2="15.09" y2="15.44" gradientTransform="matrix(1,0,0,1,0,0)" xlink:href="#linear-gradient-32"/>
    <linearGradient id="linear-gradient-37" x1="18.32" y1="13.41" x2="1.56" y2="21.38" gradientTransform="matrix(1,0,0,1,0,0)" xlink:href="#linear-gradient-33"/>
  </defs>
  <g class="cls-12">
    <g id="Layer_2" data-name="Layer 2">
      <g id="Layer_1-2" data-name="Layer 1">
        <g>
          <g>
            <g>
              <path class="cls-10" d="M71.46,42.81l-.53-.99c-.52-.95-1.73-1.29-2.68-.83-.95.46-1.9.88-2.85,1.2-.48.16-.84.5-1.08.93-.23.43-.33.96-.21,1.48l.25,1.09c.12.53.47.95.96,1.19.49.24,1.12.28,1.72.08,1.19-.41,2.33-.91,3.42-1.44,1.1-.54,1.52-1.78,1-2.73ZM68.69,41.9c.48-.23,1.07-.05,1.31.41l.52,1c.25.47.03,1.07-.49,1.32-1.06.51-2.16,1-3.3,1.39-.57.2-1.16-.08-1.3-.59l-.31-1.08c-.14-.51.14-1.04.62-1.2,1-.34,1.98-.77,2.96-1.25Z"/>
              <path class="cls-9" d="M69.14,40.8c.71,0,1.41.36,1.78,1.03l.53.99c.52.95.1,2.19-1,2.73-1.09.53-2.22,1.03-3.42,1.44-.26.09-.53.13-.78.13-.34,0-.66-.07-.93-.21-.49-.24-.84-.66-.96-1.19l-.25-1.09c-.12-.52-.02-1.06.21-1.48.23-.43.6-.77,1.08-.93.95-.33,1.9-.74,2.85-1.2.28-.14.59-.2.9-.2M66.34,46.09c.12,0,.25-.02.37-.06,1.15-.39,2.24-.87,3.3-1.39.52-.26.74-.85.49-1.32l-.52-1c-.17-.33-.51-.52-.87-.52-.15,0-.3.03-.44.1-.98.47-1.96.91-2.96,1.25-.49.17-.77.7-.62,1.2l.31,1.08c.11.4.5.66.93.66M69.14,40.41c-.37,0-.74.08-1.07.24-1.05.51-1.97.9-2.81,1.18-.55.19-1,.57-1.29,1.11-.3.55-.39,1.17-.25,1.76l.25,1.09c.15.64.56,1.15,1.17,1.45.33.16.71.25,1.1.25.31,0,.61-.05.91-.15,1.08-.37,2.18-.83,3.46-1.45.65-.32,1.12-.85,1.33-1.5.19-.6.13-1.22-.16-1.76l-.53-.98c-.42-.76-1.23-1.23-2.12-1.23h0ZM66.34,45.7c-.27,0-.5-.15-.56-.37l-.32-1.08c-.09-.3.08-.63.38-.73.92-.31,1.87-.72,3-1.27.09-.04.18-.06.27-.06.23,0,.43.12.53.31l.51.99c.06.12.07.27.03.41-.05.17-.18.31-.35.39-1.21.59-2.25,1.02-3.26,1.37-.08.03-.16.04-.24.04h0Z"/>
            </g>
            <g>
              <path class="cls-8" d="M78.73,37.56l-.74-.84c-.72-.81-1.99-.86-2.83-.13-.85.73-1.7,1.46-2.57,2.18-.86.73-1,1.97-.32,2.82l.71.87c.68.84,1.98.92,2.86.18.88-.73,1.75-1.48,2.62-2.23.88-.76,1-2.04.28-2.85ZM75.81,37.35c.42-.36,1.04-.33,1.39.07l.74.84c.35.4.29,1.02-.14,1.39-.87.75-1.74,1.48-2.61,2.22-.43.36-1.06.32-1.39-.08l-.72-.86c-.34-.41-.27-1.02.16-1.38.87-.72,1.72-1.45,2.58-2.19Z"/>
              <path class="cls-7" d="M76.52,36.08c.54,0,1.08.22,1.46.65l.74.84c.72.81.6,2.09-.28,2.85-.87.75-1.74,1.49-2.62,2.23-.4.34-.9.51-1.38.51-.57,0-1.11-.23-1.48-.69l-.71-.87c-.68-.84-.54-2.09.32-2.82.86-.72,1.72-1.45,2.57-2.18.4-.35.89-.52,1.37-.52M74.51,42.12c.23,0,.47-.08.67-.25.87-.73,1.74-1.47,2.61-2.22.42-.37.49-.99.14-1.39l-.74-.84c-.18-.21-.45-.32-.71-.32-.24,0-.48.08-.67.25-.85.73-1.71,1.46-2.58,2.19-.42.36-.49.97-.16,1.38l.72.86c.18.22.45.33.72.33M76.52,35.69c-.59,0-1.17.22-1.63.61-.85.73-1.7,1.45-2.56,2.18-1.03.87-1.19,2.34-.38,3.36l.71.87c.42.53,1.07.83,1.78.83.59,0,1.17-.21,1.63-.6.88-.73,1.75-1.48,2.62-2.23.51-.44.83-1.08.88-1.74.04-.62-.16-1.21-.56-1.66l-.74-.84c-.44-.49-1.08-.78-1.75-.78h0ZM74.51,41.73c-.17,0-.32-.07-.43-.19l-.72-.86c-.2-.24-.15-.62.11-.84.87-.73,1.73-1.46,2.58-2.19.12-.1.27-.16.42-.16h0c.17,0,.32.07.42.19l.74.84c.09.11.14.25.13.4-.01.17-.1.33-.23.45-.86.74-1.73,1.48-2.6,2.21-.12.1-.27.16-.42.16h0Z"/>
            </g>
            <g>
              <path class="cls-4" d="M85.34,30.86l-.8-.78c-.78-.75-2.03-.72-2.83.05-.79.77-1.59,1.53-2.41,2.28-.82.75-.92,2.02-.2,2.83l.74.84c.72.81,2.01.84,2.87.05.85-.78,1.7-1.58,2.53-2.4.84-.82.87-2.13.09-2.88ZM82.41,30.85c.39-.38,1.01-.39,1.38-.02l.79.79c.38.37.36,1-.05,1.4-.82.81-1.66,1.6-2.5,2.37-.42.38-1.04.37-1.4-.02l-.75-.83c-.35-.39-.31-1.01.09-1.38.83-.76,1.64-1.52,2.43-2.31Z"/>
              <path class="cls-5" d="M83.17,29.54c.49,0,.99.18,1.36.54l.8.78c.78.75.75,2.05-.09,2.88-.83.82-1.68,1.62-2.53,2.4-.42.39-.94.57-1.45.57-.54,0-1.06-.21-1.42-.63l-.74-.84c-.72-.81-.62-2.07.2-2.83.82-.75,1.62-1.51,2.41-2.28.41-.4.94-.6,1.46-.6M81.33,35.68c.25,0,.5-.09.71-.28.85-.78,1.68-1.57,2.5-2.37.41-.4.43-1.03.05-1.4l-.79-.79c-.18-.18-.42-.27-.67-.27s-.52.1-.72.29c-.79.78-1.61,1.55-2.43,2.31-.4.37-.45.99-.09,1.38l.75.83c.18.2.43.3.69.3M83.17,29.15c-.65,0-1.26.25-1.73.71-.75.74-1.54,1.49-2.4,2.27-.98.9-1.08,2.41-.23,3.37l.75.84c.43.48,1.05.76,1.71.76.63,0,1.23-.24,1.71-.68.9-.83,1.73-1.62,2.54-2.41.49-.48.77-1.14.77-1.81,0-.62-.24-1.2-.68-1.62l-.8-.78c-.44-.42-1.02-.65-1.63-.65h0ZM81.33,35.29c-.16,0-.3-.06-.41-.17l-.75-.83c-.21-.23-.18-.61.07-.84.87-.8,1.67-1.56,2.44-2.31.12-.12.28-.18.44-.18.15,0,.29.06.4.16l.79.79c.1.1.16.24.15.38,0,.17-.07.34-.2.47-.79.77-1.6,1.55-2.5,2.37-.13.12-.28.18-.44.18h0Z"/>
            </g>
            <g>
              <path class="cls-3" d="M47.5,45.54c1.09.53,2.22,1.03,3.42,1.44.6.21,1.23.16,1.72-.08.49-.24.84-.66.96-1.19l.25-1.09c.12-.52.02-1.06-.21-1.48-.23-.43-.6-.77-1.08-.93-.95-.33-1.9-.74-2.85-1.2-.95-.46-2.15-.13-2.68.83l-.53.99c-.52.95-.1,2.19,1,2.73ZM52.23,43.15c.49.17.77.7.62,1.2l-.31,1.08c-.14.51-.73.79-1.3.59-1.15-.39-2.24-.87-3.3-1.39-.52-.26-.74-.85-.49-1.32l.52-1c.24-.47.83-.65,1.31-.41.98.47,1.96.91,2.96,1.25Z"/>
              <path class="cls-2" d="M48.81,40.8c.31,0,.61.07.9.2.95.46,1.9.88,2.85,1.2.48.16.84.5,1.08.93.23.43.33.96.21,1.48l-.25,1.09c-.12.53-.47.95-.96,1.19-.28.14-.6.21-.93.21-.26,0-.52-.04-.78-.13-1.19-.41-2.33-.91-3.42-1.44-1.1-.54-1.52-1.78-1-2.73l.53-.99c.37-.67,1.07-1.03,1.78-1.03M51.61,46.09c.43,0,.82-.26.93-.66l.31-1.08c.14-.51-.14-1.04-.62-1.2-1-.34-1.98-.77-2.96-1.25-.14-.07-.29-.1-.44-.1-.35,0-.7.19-.87.52l-.52,1c-.25.47-.03,1.07.49,1.32,1.06.51,2.16,1,3.3,1.39.12.04.25.06.37.06M48.81,40.41c-.89,0-1.7.47-2.12,1.23l-.54.99c-.29.53-.35,1.16-.16,1.75.21.65.68,1.19,1.33,1.5,1.28.62,2.38,1.08,3.46,1.45.3.1.6.15.91.15.39,0,.77-.09,1.1-.25.61-.29,1.02-.81,1.17-1.45l.25-1.09c.14-.59.05-1.21-.25-1.76-.3-.54-.74-.93-1.29-1.11-.84-.29-1.76-.67-2.81-1.18-.33-.16-.7-.24-1.07-.24h0ZM51.61,45.7c-.08,0-.16-.01-.24-.04-1.01-.35-2.05-.78-3.26-1.37-.17-.08-.29-.22-.35-.39-.05-.14-.04-.28.03-.41l.52-1c.1-.19.3-.31.53-.31.1,0,.19.02.27.06,1.13.55,2.09.95,3.01,1.27.3.1.46.43.38.73l-.31,1.07c-.06.22-.29.38-.56.38h0Z"/>
            </g>
            <g>
              <path class="cls-6" d="M39.51,40.41c.87.75,1.74,1.49,2.62,2.23.88.74,2.18.67,2.86-.18l.71-.87c.68-.84.54-2.09-.32-2.82-.86-.72-1.72-1.45-2.57-2.18-.85-.73-2.12-.68-2.83.13l-.74.84c-.72.81-.6,2.09.28,2.85ZM44.72,39.54c.42.36.49.97.16,1.38l-.72.86c-.34.41-.96.45-1.39.08-.87-.73-1.74-1.47-2.61-2.22-.42-.37-.49-.99-.14-1.39l.74-.84c.35-.4.97-.43,1.39-.07.85.73,1.71,1.46,2.58,2.19Z"/>
              <path class="cls-18" d="M41.43,36.08c.48,0,.97.17,1.37.52.85.73,1.7,1.46,2.57,2.18.86.73,1,1.97.32,2.82l-.71.87c-.37.46-.91.69-1.48.69-.48,0-.98-.17-1.38-.51-.88-.73-1.75-1.48-2.62-2.23-.88-.76-1-2.04-.28-2.85l.74-.84c.38-.43.92-.65,1.46-.65M43.44,42.12c.27,0,.54-.11.72-.33l.72-.86c.34-.41.27-1.02-.16-1.38-.87-.72-1.72-1.45-2.58-2.19-.2-.17-.44-.25-.67-.25-.27,0-.53.11-.71.32l-.74.84c-.35.4-.29,1.02.14,1.39.87.75,1.74,1.48,2.61,2.22.2.17.44.25.67.25M41.43,35.69c-.67,0-1.31.28-1.75.78l-.74.84c-.4.45-.6,1.04-.56,1.66.04.66.36,1.29.88,1.74.87.75,1.75,1.49,2.62,2.23.46.39,1.04.6,1.63.6.71,0,1.36-.3,1.78-.83l.71-.87c.82-1.02.65-2.49-.38-3.36-.86-.72-1.72-1.45-2.56-2.18-.45-.39-1.03-.61-1.63-.61h0ZM43.44,41.73c-.15,0-.3-.06-.42-.16-.87-.73-1.74-1.47-2.6-2.21-.13-.12-.22-.28-.23-.45-.01-.15.04-.29.13-.39l.74-.84c.1-.12.26-.19.42-.19.15,0,.3.06.42.16.86.74,1.71,1.47,2.58,2.19.26.22.31.59.11.84l-.72.86c-.1.12-.26.19-.43.19h0Z"/>
            </g>
            <g>
              <path class="cls-19" d="M32.71,33.74c.83.82,1.68,1.62,2.53,2.4.86.79,2.15.76,2.87-.05l.74-.84c.72-.81.62-2.07-.2-2.83-.82-.75-1.62-1.51-2.41-2.28-.79-.77-2.04-.81-2.83-.05l-.8.78c-.78.75-.75,2.05.09,2.88ZM37.97,33.16c.4.37.45.99.09,1.38l-.75.83c-.35.39-.98.41-1.4.02-.85-.78-1.68-1.57-2.5-2.37-.41-.4-.43-1.03-.05-1.4l.79-.79c.37-.37.99-.36,1.38.02.79.78,1.61,1.55,2.43,2.31Z"/>
              <path class="cls-20" d="M34.78,29.54c.52,0,1.05.2,1.46.6.79.77,1.59,1.53,2.41,2.28.82.75.92,2.02.2,2.83l-.74.84c-.37.42-.89.63-1.42.63-.51,0-1.03-.19-1.45-.57-.85-.78-1.7-1.58-2.53-2.4-.84-.82-.87-2.13-.09-2.88l.8-.78c.38-.36.87-.54,1.36-.54M36.62,35.68c.26,0,.51-.1.69-.3l.75-.83c.35-.39.31-1.01-.09-1.38-.83-.76-1.64-1.52-2.43-2.31-.2-.2-.46-.29-.72-.29-.24,0-.49.09-.67.27l-.79.79c-.38.37-.36,1,.05,1.4.82.81,1.66,1.6,2.5,2.37.2.19.46.28.71.28M34.78,29.15c-.62,0-1.2.23-1.63.65l-.81.78c-.43.42-.68.99-.68,1.62,0,.67.28,1.33.77,1.81.8.79,1.63,1.58,2.54,2.41.47.44,1.08.68,1.71.68.66,0,1.29-.28,1.71-.76l.74-.84c.85-.96.75-2.47-.23-3.37-.86-.79-1.64-1.53-2.4-2.27-.47-.46-1.08-.71-1.73-.71h0ZM36.62,35.29c-.16,0-.32-.06-.44-.18-.89-.82-1.71-1.59-2.5-2.37-.13-.13-.2-.3-.2-.47,0-.15.05-.28.15-.38l.79-.79c.1-.1.24-.16.4-.16.17,0,.32.07.44.18.77.76,1.57,1.51,2.44,2.31.25.23.28.61.07.84l-.75.83c-.1.11-.25.18-.41.18h0Z"/>
            </g>
            <g>
              <path class="cls-21" d="M62.87,45.89l-.24-1.09c-.12-.53-.44-.95-.82-1.25-.19-.15-.4-.25-.62-.33-.22-.07-.45-.1-.68-.08-.94.07-1.89.05-2.81-.09-.46-.07-.91.05-1.31.31-.39.25-.75.66-.92,1.18l-.34,1.07c-.17.51-.08,1.05.25,1.52.32.45.88.81,1.55.91,1.33.21,2.66.24,3.98.13.33-.02.64-.12.91-.25.27-.13.5-.32.68-.53.36-.42.48-.96.37-1.49ZM60.58,44.13c.25-.02.48.06.67.21.19.15.33.37.37.64l.17,1.11c.04.26-.04.51-.22.71-.17.2-.44.34-.75.36-1.24.1-2.5.07-3.74-.13-.31-.05-.56-.2-.72-.42-.16-.21-.22-.48-.16-.73l.25-1.09c.06-.26.22-.47.41-.6.2-.13.44-.21.68-.16,1,.16,2.02.18,3.04.1Z"/>
              <path class="cls-23" d="M57.44,43.02c.09,0,.17,0,.26.02.58.09,1.17.13,1.76.13.35,0,.7-.01,1.04-.04.04,0,.08,0,.13,0,.19,0,.38.03.56.09.22.08.43.18.62.33.38.3.7.72.82,1.25l.24,1.09c.12.53,0,1.07-.37,1.49-.18.21-.41.4-.68.53-.27.14-.58.23-.91.25-.48.04-.97.06-1.46.06-.84,0-1.68-.06-2.52-.19-.67-.1-1.23-.46-1.55-.91-.33-.46-.42-1-.25-1.52l.34-1.07c.17-.51.52-.92.92-1.18.32-.21.68-.33,1.05-.33M59.46,47.22c.46,0,.92-.02,1.37-.05.31-.02.57-.16.75-.36.17-.2.26-.45.22-.71l-.17-1.11c-.04-.26-.18-.48-.37-.64-.17-.14-.39-.21-.61-.21-.02,0-.04,0-.06,0-.37.03-.75.04-1.13.04-.64,0-1.28-.05-1.91-.15-.05,0-.1-.01-.14-.01-.19,0-.38.07-.54.18-.2.13-.35.34-.41.6l-.25,1.09c-.06.26,0,.52.16.73.16.21.42.36.72.42.79.12,1.58.18,2.37.18M57.44,42.63h0c-.43,0-.86.13-1.26.4-.51.33-.89.82-1.07,1.38l-.34,1.07c-.2.63-.1,1.29.3,1.86.4.57,1.06.96,1.81,1.07.83.13,1.7.2,2.58.2.49,0,.99-.02,1.49-.06.36-.02.72-.12,1.06-.29.3-.14.58-.36.8-.63.43-.5.59-1.17.45-1.82l-.24-1.09c-.13-.57-.46-1.08-.96-1.47-.22-.17-.46-.29-.73-.39-.22-.07-.45-.11-.69-.11-.05,0-.1,0-.15,0-.35.03-.69.04-1.02.04-.59,0-1.16-.04-1.7-.13-.11-.02-.22-.03-.32-.03h0ZM59.46,46.83c-.79,0-1.57-.06-2.31-.18-.2-.04-.38-.13-.47-.27-.07-.09-.14-.23-.1-.41l.25-1.09c.03-.15.13-.28.25-.37.07-.05.19-.11.32-.11.02,0,.05,0,.07,0,.64.1,1.3.15,1.98.15.38,0,.77-.02,1.16-.05h0c.17,0,.29.05.4.13.12.1.2.24.23.39l.17,1.11c.03.18-.05.32-.12.4-.12.14-.29.22-.48.23-.46.04-.91.05-1.35.05h0Z"/>
            </g>
          </g>
          <g>
            <path class="cls-15" d="M69.14,41.03c.66,0,1.27.35,1.57.91l.54.99c.21.38.25.83.11,1.27-.16.49-.51.89-1.01,1.13-1.26.61-2.34,1.06-3.39,1.42-.23.08-.47.12-.71.12-.3,0-.58-.06-.83-.18-.44-.21-.73-.58-.84-1.03l-.25-1.09c-.1-.44-.03-.91.19-1.32.22-.4.55-.69.95-.82.86-.3,1.8-.69,2.88-1.21.24-.12.52-.18.79-.18M66.34,46.32c.15,0,.3-.03.45-.08,1.03-.35,2.09-.8,3.33-1.4.32-.16.56-.43.67-.76.1-.3.07-.62-.07-.89l-.52-1c-.21-.4-.62-.64-1.08-.64-.19,0-.38.04-.54.13-1.11.54-2.04.93-2.94,1.24-.61.21-.95.87-.77,1.49l.31,1.07c.14.49.6.83,1.16.83M69.14,40.8c-.31,0-.61.07-.9.2-.95.46-1.9.88-2.85,1.2-.48.16-.84.5-1.08.93-.23.43-.33.96-.21,1.48l.25,1.09c.12.53.47.95.96,1.19.28.14.6.21.93.21.26,0,.52-.04.78-.13,1.19-.41,2.33-.91,3.42-1.44,1.1-.54,1.52-1.78,1-2.73l-.53-.99c-.37-.67-1.07-1.03-1.78-1.03h0ZM66.34,46.09c-.43,0-.82-.26-.93-.66l-.31-1.08c-.14-.51.14-1.04.62-1.2,1-.34,1.98-.77,2.96-1.25.14-.07.29-.1.44-.1.35,0,.7.19.87.52l.52,1c.25.47.03,1.07-.49,1.32-1.06.51-2.16,1-3.3,1.39-.12.04-.25.06-.37.06h0Z"/>
            <path class="cls-15" d="M76.52,36.31c.5,0,.96.21,1.28.57l.74.84c.29.33.43.76.4,1.21-.03.5-.27.97-.66,1.31-.87.75-1.74,1.49-2.62,2.22-.35.29-.78.45-1.23.45-.52,0-.99-.22-1.3-.6l-.71-.87c-.6-.75-.47-1.84.29-2.49.86-.72,1.72-1.45,2.57-2.18.34-.3.78-.46,1.22-.46M74.51,42.35c.3,0,.59-.11.82-.3.87-.73,1.74-1.47,2.61-2.22.26-.22.42-.54.44-.88.02-.31-.08-.62-.28-.85l-.74-.84c-.22-.25-.55-.4-.89-.4-.3,0-.6.11-.83.31-.85.73-1.71,1.46-2.57,2.19-.52.44-.61,1.21-.19,1.71l.72.86c.22.27.55.42.9.42M76.52,36.08c-.48,0-.97.17-1.37.52-.85.73-1.7,1.46-2.57,2.18-.86.73-1,1.97-.32,2.82l.71.87c.37.46.91.69,1.48.69.48,0,.98-.17,1.38-.51.88-.73,1.75-1.48,2.62-2.23.88-.76,1-2.04.28-2.85l-.74-.84c-.38-.43-.92-.65-1.46-.65h0ZM74.51,42.12c-.27,0-.54-.11-.72-.33l-.72-.86c-.34-.41-.27-1.02.16-1.38.87-.72,1.72-1.45,2.58-2.19.2-.17.44-.25.67-.25.27,0,.53.11.71.32l.74.84c.35.4.29,1.02-.14,1.39-.87.75-1.74,1.48-2.61,2.22-.2.17-.44.25-.67.25h0Z"/>
            <path class="cls-15" d="M83.17,29.77c.45,0,.88.17,1.2.48l.81.78c.31.3.49.72.49,1.17,0,.5-.21,1-.59,1.37-.8.79-1.62,1.57-2.52,2.39-.36.33-.82.51-1.29.51s-.93-.19-1.25-.55l-.74-.84c-.63-.71-.54-1.83.18-2.5.87-.79,1.65-1.54,2.41-2.29.35-.34.81-.53,1.3-.53M81.33,35.91c.32,0,.63-.12.87-.34.9-.82,1.72-1.6,2.51-2.38.25-.24.39-.57.39-.91,0-.32-.12-.61-.34-.83l-.79-.79c-.22-.22-.52-.34-.84-.34s-.64.13-.88.36c-.76.75-1.56,1.5-2.43,2.3-.5.46-.55,1.23-.11,1.72l.75.83c.22.24.53.38.87.38M83.17,29.54c-.52,0-1.05.2-1.46.6-.79.77-1.59,1.53-2.41,2.28-.82.75-.92,2.02-.2,2.83l.74.84c.37.42.89.63,1.42.63.51,0,1.03-.19,1.45-.57.85-.78,1.7-1.58,2.53-2.4.84-.82.87-2.13.09-2.88l-.8-.78c-.38-.36-.87-.54-1.36-.54h0ZM81.33,35.68c-.26,0-.51-.1-.69-.3l-.75-.83c-.35-.39-.31-1.01.09-1.38.83-.76,1.64-1.52,2.43-2.31.2-.2.46-.29.72-.29s.49.09.67.27l.79.79c.38.37.36,1-.05,1.4-.82.81-1.66,1.6-2.5,2.37-.2.19-.46.28-.71.28h0Z"/>
            <path class="cls-15" d="M48.81,41.03c.28,0,.55.06.79.18,1.07.52,2.01.92,2.88,1.21.4.14.73.42.95.82.22.41.29.88.19,1.32l-.25,1.09c-.1.45-.4.82-.84,1.03-.25.12-.53.18-.83.18-.24,0-.48-.04-.71-.12-1.05-.36-2.13-.81-3.39-1.42-.49-.24-.85-.64-1.01-1.13-.14-.43-.1-.88.11-1.27l.53-.98c.31-.56.91-.91,1.57-.91M51.61,46.32c.55,0,1.02-.33,1.16-.82l.31-1.08c.18-.62-.16-1.28-.77-1.49-.89-.31-1.83-.7-2.94-1.24-.17-.08-.36-.13-.55-.13-.46,0-.87.25-1.08.64l-.51.99c-.14.27-.17.59-.07.89.11.32.35.6.67.76,1.24.6,2.3,1.05,3.33,1.4.15.05.3.08.45.08M48.81,40.8c-.71,0-1.41.36-1.78,1.03l-.53.99c-.52.95-.1,2.19,1,2.73,1.09.53,2.22,1.03,3.42,1.44.26.09.53.13.78.13.34,0,.66-.07.93-.21.49-.24.84-.66.96-1.19l.25-1.09c.12-.52.02-1.06-.21-1.48-.23-.43-.6-.77-1.08-.93-.95-.33-1.9-.74-2.85-1.2-.28-.14-.59-.2-.9-.2h0ZM51.61,46.09c-.12,0-.25-.02-.37-.06-1.15-.39-2.24-.87-3.3-1.39-.52-.26-.74-.85-.49-1.32l.52-1c.17-.33.51-.52.87-.52.15,0,.3.03.44.1.98.47,1.96.91,2.96,1.25.49.17.77.7.62,1.2l-.31,1.08c-.11.4-.5.66-.93.66h0Z"/>
            <path class="cls-15" d="M41.43,36.31c.44,0,.88.16,1.22.46.85.73,1.7,1.46,2.57,2.18.77.65.89,1.74.29,2.49l-.71.87c-.31.38-.78.6-1.3.6-.45,0-.88-.16-1.23-.45-.87-.73-1.75-1.47-2.62-2.22-.39-.34-.63-.81-.66-1.31-.03-.45.11-.88.41-1.21l.74-.84c.32-.36.79-.57,1.28-.57M43.44,42.35c.36,0,.68-.15.9-.42l.72-.86c.42-.51.34-1.27-.19-1.71-.86-.72-1.72-1.45-2.57-2.19-.23-.2-.52-.31-.83-.31-.34,0-.67.15-.89.4l-.74.84c-.2.23-.3.53-.28.85.02.33.18.65.44.88.87.75,1.74,1.49,2.61,2.22.23.2.52.3.82.3M41.43,36.08c-.54,0-1.08.22-1.46.65l-.74.84c-.72.81-.6,2.09.28,2.85.87.75,1.74,1.49,2.62,2.23.4.34.9.51,1.38.51.57,0,1.11-.23,1.48-.69l.71-.87c.68-.84.54-2.09-.32-2.82-.86-.72-1.72-1.45-2.57-2.18-.4-.35-.89-.52-1.37-.52h0ZM43.44,42.12c-.23,0-.47-.08-.67-.25-.87-.73-1.74-1.47-2.61-2.22-.42-.37-.49-.99-.14-1.39l.74-.84c.18-.21.45-.32.71-.32.24,0,.48.08.67.25.85.73,1.71,1.46,2.58,2.19.42.36.49.97.16,1.38l-.72.86c-.18.22-.45.33-.72.33h0Z"/>
            <path class="cls-15" d="M34.78,29.77c.48,0,.94.19,1.3.53.76.75,1.55,1.5,2.41,2.29.73.67.81,1.79.18,2.5l-.75.84c-.31.35-.76.55-1.25.55s-.93-.18-1.29-.51c-.9-.83-1.73-1.61-2.52-2.39-.37-.37-.59-.86-.59-1.37,0-.45.18-.87.49-1.17l.8-.78c.32-.31.75-.48,1.2-.48M36.62,35.91c.33,0,.65-.14.87-.38l.75-.83c.44-.49.39-1.26-.11-1.72-.87-.8-1.66-1.55-2.43-2.3-.24-.23-.55-.36-.88-.36s-.61.12-.84.34l-.79.79c-.22.22-.34.51-.34.83,0,.34.14.67.39.91.79.78,1.61,1.56,2.51,2.38.24.22.55.34.87.34M34.78,29.54c-.49,0-.99.18-1.36.54l-.8.78c-.78.75-.75,2.05.09,2.88.83.82,1.68,1.62,2.53,2.4.42.39.94.57,1.45.57.54,0,1.06-.21,1.42-.63l.74-.84c.72-.81.62-2.07-.2-2.83-.82-.75-1.62-1.51-2.41-2.28-.41-.4-.94-.6-1.46-.6h0ZM36.62,35.68c-.25,0-.5-.09-.71-.28-.85-.78-1.68-1.57-2.5-2.37-.41-.4-.43-1.03-.05-1.4l.79-.79c.18-.18.42-.27.67-.27.26,0,.52.1.72.29.79.78,1.61,1.55,2.43,2.31.4.37.45.99.09,1.38l-.75.83c-.18.2-.43.3-.69.3h0Z"/>
            <path class="cls-15" d="M57.44,43.26c.07,0,.15,0,.22.02.57.09,1.17.14,1.8.14.35,0,.7-.01,1.06-.04.04,0,.07,0,.11,0,.17,0,.34.02.48.07.21.07.39.17.55.29.27.21.62.58.74,1.12l.24,1.09c.1.46-.01.93-.32,1.29-.17.2-.38.36-.6.47-.27.13-.54.21-.83.23-.48.04-.97.06-1.44.06-.85,0-1.69-.06-2.49-.19-.57-.09-1.1-.39-1.4-.81-.28-.4-.36-.87-.22-1.31l.34-1.07c.14-.42.43-.8.82-1.05.3-.2.61-.3.92-.3h0M59.46,47.45c.45,0,.92-.02,1.39-.06.35-.02.68-.18.91-.44.23-.26.32-.58.27-.9l-.17-1.11c-.05-.31-.21-.59-.46-.79-.22-.17-.48-.26-.76-.26h-.08c-.37.03-.75.05-1.11.05-.65,0-1.28-.05-1.87-.14-.06-.01-.12-.02-.19-.02-.23,0-.46.07-.67.22-.26.18-.44.44-.51.74l-.25,1.09c-.07.32,0,.65.2.93.2.26.5.44.88.51.77.12,1.58.18,2.41.18M57.44,43.02c-.37,0-.72.12-1.05.33-.39.25-.75.66-.92,1.18l-.34,1.07c-.17.51-.08,1.05.25,1.52.32.45.88.81,1.55.91.84.13,1.68.19,2.52.19.49,0,.97-.02,1.46-.06.33-.02.64-.12.91-.25.27-.13.5-.32.68-.53.36-.42.48-.96.37-1.49l-.24-1.09c-.12-.53-.44-.95-.82-1.25-.19-.15-.4-.25-.62-.33-.18-.06-.37-.09-.56-.09-.04,0-.08,0-.13,0-.35.03-.7.04-1.04.04-.59,0-1.18-.04-1.76-.13-.09-.01-.17-.02-.26-.02h0ZM59.46,47.22c-.79,0-1.58-.06-2.37-.18-.31-.05-.56-.2-.72-.42-.16-.21-.22-.48-.16-.73l.25-1.09c.06-.26.22-.47.41-.6.16-.11.35-.18.54-.18.05,0,.1,0,.14.01.63.1,1.27.15,1.91.15.38,0,.75-.02,1.13-.04.02,0,.04,0,.06,0,.23,0,.44.08.61.21.19.15.33.37.37.64l.17,1.11c.04.26-.04.51-.22.71-.17.2-.44.34-.75.36-.46.04-.91.05-1.37.05h0Z"/>
          </g>
          <g>
            <g>
              <path class="cls-32" d="M66.12,45.35c-1.6.33-3.22.65-4.88.83-.34.04-.67-.21-.73-.54-.06-.33.15-.62.48-.66,1.6-.18,3.18-.49,4.78-.82.33-.07.67.14.77.47.1.33-.09.64-.42.71Z"/>
              <path class="cls-33" d="M65.89,44.16c.29,0,.56.2.65.48.1.33-.09.64-.42.71-1.6.33-3.22.65-4.88.83-.02,0-.05,0-.07,0-.32,0-.6-.23-.66-.54-.06-.33.15-.62.48-.66,1.6-.18,3.18-.49,4.78-.82.04,0,.08-.01.12-.01M65.89,43.77h0c-.07,0-.14,0-.2.02-1.6.33-3.17.64-4.74.81-.27.03-.5.16-.65.37-.16.21-.21.47-.17.74.09.49.54.86,1.04.86.04,0,.08,0,.12,0,1.65-.18,3.26-.5,4.91-.84.27-.05.49-.21.62-.44.13-.23.17-.51.09-.77-.13-.44-.55-.76-1.02-.76h0Z"/>
            </g>
            <g>
              <path class="cls-34" d="M74.51,41.43c-1.58.83-3.18,1.62-4.79,2.4-.33.16-.72.03-.87-.28-.15-.31,0-.69.32-.85,1.6-.77,3.18-1.56,4.75-2.38.32-.17.71-.06.88.25.16.31.03.7-.29.86Z"/>
              <path class="cls-35" d="M74.24,40.24c.23,0,.45.12.56.33.16.31.03.7-.29.86-1.58.83-3.18,1.62-4.79,2.4-.1.05-.2.07-.3.07-.24,0-.46-.13-.57-.35-.15-.31,0-.69.32-.85,1.6-.77,3.18-1.56,4.75-2.38.1-.05.21-.08.32-.08M74.24,39.86c-.17,0-.34.04-.5.12-1.43.75-2.98,1.52-4.74,2.37-.52.25-.75.86-.51,1.37.17.35.52.57.92.57.16,0,.32-.04.47-.11,1.78-.86,3.35-1.64,4.8-2.4.25-.13.44-.35.52-.62.08-.26.06-.53-.07-.77-.17-.33-.52-.53-.9-.53h0Z"/>
            </g>
            <g>
              <path class="cls-22" d="M81.05,35.03c-1.32,1.21-2.66,2.39-4.01,3.55-.28.24-.69.22-.91-.05-.22-.26-.18-.67.09-.91,1.35-1.15,2.68-2.32,3.98-3.52.27-.24.67-.24.91.01.24.25.21.66-.06.91Z"/>
              <path class="cls-25" d="M80.66,33.93c.17,0,.33.06.45.19.24.25.21.66-.06.91-1.32,1.21-2.66,2.39-4.01,3.55-.13.11-.29.17-.44.17-.18,0-.35-.07-.47-.21-.22-.26-.18-.67.09-.91,1.35-1.15,2.68-2.32,3.98-3.52.13-.12.3-.18.46-.18M80.66,33.54h0c-.26,0-.52.1-.72.28-1.19,1.09-2.48,2.24-3.97,3.51-.44.38-.5,1.03-.14,1.45.19.22.47.35.76.35.25,0,.5-.09.69-.26,1.5-1.28,2.82-2.45,4.02-3.56.21-.19.33-.45.35-.74.01-.27-.08-.53-.26-.72-.19-.2-.45-.32-.74-.32h0Z"/>
            </g>
            <g>
              <path class="cls-24" d="M47.8,43.41c-1.54-.27-2.9-1.02-4.05-2.02-.24-.2-.25-.62-.04-.9.22-.29.56-.36.78-.17,1.07.93,2.31,1.6,3.66,1.84.28.04.44.36.36.7-.08.36-.4.6-.72.56Z"/>
              <path class="cls-26" d="M44.21,40.21c.1,0,.2.03.29.1,1.07.93,2.31,1.6,3.66,1.84.28.04.44.36.36.7-.07.33-.35.56-.64.56-.03,0-.05,0-.08,0-1.54-.27-2.9-1.02-4.05-2.02-.24-.2-.25-.62-.04-.9.13-.18.32-.28.49-.28M44.21,39.83c-.31,0-.6.16-.8.44-.34.46-.29,1.1.1,1.43,1.3,1.13,2.73,1.84,4.23,2.1.06,0,.1.01.15.01.48,0,.91-.36,1.02-.87.06-.3.01-.6-.15-.83-.13-.19-.32-.31-.54-.34-1.21-.21-2.38-.8-3.47-1.75-.16-.13-.34-.2-.54-.2h0Z"/>
            </g>
            <g>
              <path class="cls-27" d="M40.67,38.5c-1.63-.92-3-2.25-4.08-3.72-.23-.3-.16-.72.12-.91.29-.2.67-.12.89.16,1.01,1.38,2.24,2.56,3.69,3.38.3.16.42.54.27.85-.15.32-.55.43-.89.24Z"/>
              <path class="cls-39" d="M37.06,33.76c.2,0,.4.1.53.27,1.01,1.38,2.24,2.56,3.69,3.38.3.16.42.54.27.85-.1.21-.31.33-.54.33-.11,0-.23-.03-.35-.09-1.63-.92-3-2.25-4.08-3.72-.23-.3-.16-.72.12-.91.11-.07.23-.11.35-.11M37.06,33.38c-.2,0-.4.06-.57.18-.22.15-.37.39-.41.66-.05.28.03.57.2.8,1.21,1.65,2.62,2.94,4.2,3.82.17.09.36.14.54.14.39,0,.73-.21.89-.56.23-.5.03-1.1-.44-1.36-1.31-.74-2.51-1.84-3.56-3.27-.21-.27-.52-.43-.85-.43h0Z"/>
            </g>
            <g>
              <path class="cls-29" d="M56.71,46.02c-1.64.11-3.3-.13-4.78-.84-.15-.07-.26-.2-.3-.35-.04-.16-.02-.33.06-.48.08-.15.21-.26.34-.31.14-.06.29-.06.42,0,1.3.62,2.79.85,4.3.74.31-.03.56.22.57.56,0,.34-.26.64-.6.67Z"/>
              <path class="cls-40" d="M52.25,44c.07,0,.14.02.21.05,1.11.53,2.35.77,3.61.77.23,0,.46,0,.68-.02.02,0,.03,0,.05,0,.29,0,.52.24.52.56,0,.34-.26.64-.6.67-.25.02-.5.03-.75.03-1.39,0-2.77-.27-4.03-.86-.15-.07-.26-.2-.3-.35-.04-.16-.02-.33.06-.48.08-.15.21-.26.34-.31.07-.03.14-.04.22-.04M52.25,43.61c-.12,0-.24.02-.36.07-.22.08-.42.26-.54.49-.13.24-.16.51-.09.76.08.27.26.48.51.6,1.26.6,2.67.9,4.2.9.26,0,.52,0,.78-.03.55-.05.98-.52.97-1.07-.01-.53-.41-.94-.91-.94-.01,0-.07,0-.08,0-.21.01-.43.02-.65.02-1.27,0-2.43-.25-3.45-.73-.11-.06-.24-.08-.37-.08h0Z"/>
            </g>
          </g>
          <g>
            <path class="cls-15" d="M65.89,44.39c.19,0,.37.13.42.31.03.09.02.19-.03.27-.04.08-.12.13-.21.15-1.7.35-3.23.65-4.9.83-.2,0-.39-.15-.43-.35-.02-.09,0-.19.05-.26.05-.07.13-.11.22-.12,1.6-.18,3.18-.49,4.8-.82.02,0,.05,0,.08,0M65.89,44.16s-.08,0-.12.01c-1.59.33-3.18.64-4.78.82-.33.04-.54.33-.48.66.06.31.35.54.66.54.02,0,.05,0,.07,0,1.66-.18,3.28-.51,4.88-.83.33-.07.52-.39.42-.71-.09-.28-.36-.48-.65-.48h0Z"/>
            <path class="cls-15" d="M74.24,40.48c.15,0,.28.08.35.2.05.09.06.19.02.29-.03.11-.11.2-.22.26-1.44.76-3.01,1.54-4.78,2.39-.06.03-.13.05-.2.05-.16,0-.29-.08-.36-.21-.09-.19,0-.44.21-.54,1.77-.85,3.32-1.63,4.76-2.38.07-.03.14-.05.21-.05M74.24,40.24c-.11,0-.22.03-.32.08-1.57.82-3.15,1.61-4.75,2.38-.33.16-.47.54-.32.85.11.22.33.35.57.35.1,0,.2-.02.3-.07,1.61-.77,3.21-1.57,4.79-2.4.33-.17.46-.56.29-.86-.11-.21-.33-.33-.56-.33h0Z"/>
            <path class="cls-15" d="M80.66,34.16h0c.11,0,.21.04.28.12.07.07.1.17.1.27,0,.12-.06.22-.15.3-1.2,1.1-2.51,2.26-4.01,3.54-.08.07-.18.11-.29.11-.12,0-.22-.05-.29-.13-.14-.16-.11-.42.07-.57,1.49-1.28,2.79-2.43,3.98-3.52.08-.08.19-.12.3-.12M80.66,33.93c-.16,0-.33.06-.46.18-1.3,1.2-2.63,2.37-3.98,3.52-.28.24-.32.64-.09.91.12.14.29.21.47.21.15,0,.31-.05.44-.17,1.35-1.16,2.7-2.34,4.01-3.55.27-.25.3-.66.06-.91-.12-.13-.28-.19-.45-.19h0Z"/>
            <path class="cls-15" d="M44.21,40.45c.05,0,.1.02.13.05,1.18,1.02,2.45,1.65,3.78,1.89.05,0,.09.03.12.08.06.09.08.21.05.34-.05.21-.22.37-.44.37,0,0,0,0,0,0-1.39-.25-2.72-.91-3.94-1.97-.14-.12-.14-.39,0-.58.08-.11.2-.18.3-.18M44.21,40.21c-.17,0-.36.09-.49.28-.21.29-.2.7.04.9,1.15.99,2.51,1.75,4.05,2.02.03,0,.05,0,.08,0,.29,0,.57-.23.64-.56.07-.34-.09-.66-.36-.7-1.35-.24-2.59-.91-3.66-1.84-.08-.07-.18-.1-.29-.1h0Z"/>
            <path class="cls-15" d="M37.06,34c.13,0,.26.07.34.17,1.1,1.49,2.36,2.65,3.77,3.45.18.1.26.35.17.54-.06.12-.18.2-.33.2-.08,0-.16-.02-.23-.06-1.5-.84-2.84-2.07-4.01-3.66-.07-.1-.1-.21-.09-.33.02-.1.07-.19.15-.24.06-.04.14-.07.22-.07M37.06,33.76c-.12,0-.24.03-.35.11-.28.19-.35.61-.12.91,1.08,1.47,2.44,2.8,4.08,3.72.11.06.23.09.35.09.23,0,.44-.12.54-.33.14-.31.02-.69-.27-.85-1.44-.82-2.68-2-3.69-3.38-.13-.17-.33-.27-.53-.27h0Z"/>
            <path class="cls-15" d="M52.25,44.23s.07,0,.11.02c1.1.52,2.35.79,3.71.79.23,0,.47,0,.73-.03.16,0,.28.14.29.33,0,.22-.17.41-.39.43-.25.02-.49.03-.74.03-1.43,0-2.75-.28-3.92-.84-.09-.04-.15-.12-.18-.2-.03-.1-.01-.21.04-.31.05-.09.13-.17.23-.2.04-.02.09-.03.13-.03M52.25,44c-.07,0-.15.02-.22.04-.14.05-.26.16-.34.31-.08.15-.1.32-.06.48.04.15.15.28.3.35,1.25.6,2.64.86,4.03.86.25,0,.5,0,.75-.03.34-.03.61-.33.6-.67,0-.32-.24-.56-.52-.56-.01,0-.03,0-.05,0-.23.02-.46.02-.68.02-1.27,0-2.51-.24-3.61-.77-.07-.03-.14-.05-.21-.05h0Z"/>
          </g>
        </g>
        <g>
          <g>
            <path class="cls-38" d="M29.73,45.85c-.27,3.88,1.51,7.24,3.95,7.5s4.65-2.68,4.91-6.56c.27-3.88-1.51-7.24-3.95-7.5s-4.65,2.68-4.91,6.56ZM30.95,45.98c.19-2.82,1.79-4.96,3.56-4.77s3.07,2.63,2.88,5.45-1.79,4.94-3.57,4.76c-1.77-.19-3.06-2.62-2.87-5.44Z"/>
            <path class="cls-28" d="M34.34,39.27c.1,0,.2,0,.3.02,2.45.26,4.22,3.62,3.95,7.5-.25,3.72-2.29,6.58-4.61,6.58-.1,0-.2,0-.3-.02-2.45-.26-4.22-3.62-3.95-7.5.25-3.72,2.29-6.58,4.61-6.58M34.03,51.43c1.69,0,3.17-2.07,3.35-4.77.19-2.82-1.09-5.26-2.88-5.45-.07,0-.14-.01-.22-.01-1.68,0-3.16,2.08-3.35,4.78-.19,2.82,1.09,5.25,2.87,5.44.07,0,.15.01.22.01M34.34,38.89c-2.54,0-4.73,3.05-5,6.94-.28,4.08,1.65,7.63,4.3,7.91.11.01.23.02.34.02,2.54,0,4.73-3.05,5-6.94.28-4.08-1.65-7.63-4.3-7.91-.11-.01-.23-.02-.34-.02h0ZM34.03,51.04c-.06,0-.12,0-.18,0-1.54-.16-2.7-2.46-2.52-5.03.17-2.44,1.49-4.42,2.96-4.42.06,0,.12,0,.18,0,1.55.16,2.71,2.47,2.53,5.04-.17,2.47-1.47,4.41-2.97,4.41h0Z"/>
          </g>
          <path class="cls-15" d="M34.34,39.51c.09,0,.18,0,.27.01,2.32.24,4,3.5,3.74,7.25-.24,3.57-2.17,6.36-4.38,6.36-.09,0-.18,0-.27-.01-2.32-.25-4-3.5-3.74-7.25.24-3.57,2.17-6.36,4.38-6.36M34.03,51.66c1.82,0,3.4-2.19,3.59-4.99.2-2.94-1.18-5.5-3.09-5.7-.08,0-.16-.01-.24-.01-1.82,0-3.39,2.2-3.58,5-.2,2.94,1.18,5.49,3.08,5.69.08,0,.16.01.24.01M34.34,39.27c-2.32,0-4.36,2.85-4.61,6.58-.27,3.88,1.51,7.24,3.95,7.5.1.01.2.02.3.02,2.32,0,4.36-2.86,4.61-6.58.27-3.88-1.51-7.24-3.95-7.5-.1-.01-.2-.02-.3-.02h0ZM34.03,51.43c-.07,0-.15,0-.22-.01-1.77-.19-3.06-2.62-2.87-5.44.18-2.7,1.66-4.78,3.35-4.78.07,0,.14,0,.22.01,1.78.19,3.07,2.63,2.88,5.45-.18,2.7-1.66,4.77-3.35,4.77h0Z"/>
          <g>
            <path class="cls-41" d="M33.91,33.85s.55,4.74-.06,7.94c0,0,.93.17,1.33-.13s.36-5.86-.03-6.99-1.24-.83-1.24-.83Z"/>
            <path class="cls-31" d="M34.16,33.81c.28,0,.73.13.99.86.39,1.13.43,6.69.03,6.99-.18.14-.48.18-.75.18-.31,0-.58-.05-.58-.05.61-3.21.06-7.94.06-7.94,0,0,.1-.04.25-.04M34.16,33.43c-.2,0-.35.05-.38.06-.17.06-.28.23-.26.41,0,.05.54,4.72-.05,7.83-.02.1,0,.21.06.29.06.08.15.14.25.16.01,0,.31.06.65.06.43,0,.76-.09.98-.25.69-.52.43-6.46.1-7.43-.35-1.02-1.06-1.12-1.35-1.12h0Z"/>
          </g>
          <path class="cls-15" d="M34.17,34.05c.34,0,.6.25.76.71.39,1.12.38,6.3.11,6.72-.11.08-.33.13-.61.13-.11,0-.22,0-.3-.02.48-2.82.14-6.58.04-7.54M34.16,33.81c-.15,0-.25.04-.25.04,0,0,.55,4.74-.06,7.94,0,0,.27.05.58.05.27,0,.56-.04.75-.18.4-.3.36-5.86-.03-6.99-.26-.74-.71-.86-.99-.86h0Z"/>
        </g>
        <g>
          <g>
            <g>
              <path class="cls-30" d="M21.14,57.27c-.25,0-.34-.16-.67-.75-.2-.36-.48-.86-.83-1.4-1.24-1.89-2.59-2.96-4.02-3.19-.47-.08-.96-.12-1.46-.12-2.84,0-5.23,1.24-5.26,1.25-.05.03-.11.04-.16.04-.08,0-.16-.03-.23-.08-.11-.09-.15-.24-.1-.38.06-.18,6.41-18.18,11.72-30.66,2.38-5.55,4.13-9.1,5.37-10.85C30.37,4.23,35.74.44,35.8.41c.06-.04.13-.06.2-.06.06,0,.12.02.18.05.12.07.18.2.17.33,0,.03-.36,3.36-1.05,8.16-.98,6.89-2.63,16.81-4.92,24.92-.64,2.3-1.32,4.38-2.02,6.18-3.71,9.54-5.56,13.9-6.36,15.76-.29.69-.47,1.11-.5,1.21-.04.15-.2.29-.36.29Z"/>
              <path class="cls-1" d="M36,.69s-.35,3.3-1.05,8.15c-.97,6.83-2.61,16.74-4.91,24.88-.62,2.22-1.29,4.3-2.01,6.15-5.24,13.48-6.76,16.57-6.87,17.02,0,.02-.01.03-.02.03-.1,0-.51-.92-1.22-2-.9-1.38-2.31-3.03-4.25-3.34-.51-.08-1.02-.12-1.52-.12-2.97,0-5.42,1.29-5.42,1.29,0,0,6.35-18.03,11.71-30.64,2.07-4.83,3.97-8.86,5.33-10.79C30.67,4.4,36,.69,36,.69M36,0c-.14,0-.28.04-.39.12-.22.15-5.48,3.86-10.39,10.8-1.25,1.77-3.01,5.34-5.4,10.91-5.31,12.49-11.66,30.5-11.73,30.68-.09.27-.01.56.2.75.13.11.29.17.45.17.11,0,.22-.03.32-.08.02-.01,2.34-1.21,5.1-1.21.48,0,.96.04,1.41.11,1.33.21,2.6,1.24,3.79,3.04.35.53.62,1.02.82,1.38.34.62.52.93.97.93.32,0,.63-.25.69-.57.02-.08.21-.53.48-1.15.79-1.86,2.65-6.23,6.36-15.77.71-1.81,1.39-3.91,2.04-6.22,2.3-8.12,3.95-18.06,4.93-24.97.69-4.81,1.05-8.14,1.05-8.18.03-.27-.1-.53-.33-.67-.11-.06-.23-.1-.35-.1h0ZM36,1.38h0,0Z"/>
            </g>
            <path class="cls-11" d="M28.02,39.87c-5.24,13.48-6.76,16.57-6.87,17.02-.05.21-.46-.78-1.24-1.97,6.97-10.53,13.76-44.81,13.76-44.81l1.27-1.27c-1.23,8.7-3.56,22.38-6.93,31.03Z"/>
            <path class="cls-13" d="M30.04,33.72c.9-6.13,1.26-13.34-1.81-14.32-2.61-.82-5.5.8-7.79,2.71,2.07-4.83,3.97-8.86,5.33-10.79C30.67,4.4,36,.69,36,.69c0,0-.35,3.3-1.05,8.15-.97,6.83-2.61,16.74-4.91,24.88Z"/>
            <path class="cls-11" d="M31.75,12.29c-1.1,7.16-3.38,14.04-5.15,21.05-1.6,6.07-3.41,12.28-6.31,17.88-.44.76-.93,1.72-1.45,2.3,3.32-6.41,5.22-13.42,7.47-20.26,2.2-6.85,3.3-14.19,5.44-20.97h0Z"/>
            <path class="cls-16" d="M21.51,24.6l-10.21,25.19s2.89-2.68,5.41-.79c2.52,1.89,4.41,5.02,4.41,5.02,0,0,3.96-6.55,6.3-16.69"/>
          </g>
          <g>
            <g>
              <path class="cls-37" d="M15.02,12.16c-.14,0-14.29-.27-14.66-2.2-.08-.39.07-.87.45-1.41C2.4,6.23,7.67,2.9,17.32,1.15c2.43-.44,4.64-.67,6.57-.67,6.57,0,7.92,2.59,7.97,2.7.08.17.02.37-.15.46-6.01,3.19-16.17,8.53-16.69,8.53Z"/>
              <path class="cls-1" d="M23.89.83c6.43,0,7.66,2.5,7.66,2.5,0,0-16.02,8.49-16.53,8.49s-14.03-.42-14.32-1.92C.41,8.4,5.21,3.7,17.39,1.49c2.61-.47,4.75-.66,6.51-.66M23.89.14c-1.95,0-4.18.23-6.63.67C7.51,2.58,2.15,5.98.53,8.36c-.43.62-.6,1.19-.5,1.67.15.77.85,1.5,7.7,2.08,3.39.29,6.94.4,7.3.4.21,0,.69,0,16.85-8.57.33-.17.46-.58.3-.91-.15-.3-1.61-2.89-8.28-2.89h0Z"/>
            </g>
            <g>
              <path class="cls-36" d="M8.35,30.68c-1.2-.14-1.93-.35-2.41-1.11-.12-.18-.23-.4-.32-.66-.15-.39-.29-.89-.46-1.52l-.13-.49c-.06-.23-.13-.46-.21-.71l-.08-.25c-.51-1.61-.48-2.86-.45-3.96.03-1.35.06-2.52-.92-4.08-.76-1.22-1.53-2.87-2.11-4.53-.21-.58-.4-1.18-.56-1.76-.54-2.01-.3-2.4-.21-2.54.18-.3.55-.3.68-.3.33,0,.76.09,1.37.21,1.08.22,2.56.52,4.42.52,1.73,0,3.46-.27,5.16-.81,1.49-.47,3.17-1.11,4.98-1.9,5.29-2.28,10.48-5.2,10.53-5.23.95-.28,1.74-.41,2.43-.41.5,0,.88.05,1.22.14,1.78.46,2.64,2.03,2.4,4.41-.01.14-.02.27-.04.4,0,0,0,.02,0,.03-.45,2.93-2.34,6.41-4.93,9.1-5.08,5.29-17.1,15.46-20.19,15.46-.06,0-.11,0-.16,0Z"/>
              <path class="cls-1" d="M30.05,1.49s.06,0,.08,0c.39,0,.73.04,1.05.13,1.73.44,2.35,2.01,2.15,4.05-.01.13-.02.27-.04.4t0,.01c-.42,2.74-2.23,6.21-4.83,8.91-5.59,5.82-17.13,15.36-19.94,15.36-.04,0-.08,0-.12,0-1.23-.14-1.79-.37-2.16-.95-.11-.16-.2-.36-.29-.59-.18-.47-.35-1.12-.58-1.99-.09-.3-.18-.61-.29-.97-1.11-3.54.44-5.17-1.4-8.12-.81-1.29-1.55-2.96-2.08-4.47-.23-.61-.41-1.21-.55-1.74-.3-1.13-.42-2-.25-2.28.06-.1.19-.14.38-.14.84,0,2.88.73,5.79.73,1.53,0,3.3-.2,5.26-.82,1.59-.5,3.31-1.17,5.02-1.91,5.37-2.31,10.56-5.24,10.56-5.24.86-.25,1.61-.37,2.26-.37M30.05.8c-.72,0-1.54.13-2.45.39-.05.01-.1.04-.15.06-.05.03-5.22,2.94-10.5,5.21-1.8.79-3.47,1.42-4.95,1.89-1.66.52-3.36.79-5.05.79-1.83,0-3.29-.3-4.35-.51-.63-.13-1.08-.22-1.44-.22-.57,0-.85.26-.97.48-.2.32-.33.91.17,2.81.16.6.35,1.2.57,1.8.59,1.67,1.37,3.35,2.14,4.59.92,1.48.9,2.54.86,3.89-.03,1.13-.06,2.4.47,4.07l.08.25c.08.25.15.48.21.71l.13.48c.17.64.31,1.15.47,1.56.1.27.22.51.36.73.54.85,1.38,1.11,2.65,1.25.06,0,.13.01.2.01,3.23,0,15.19-10.1,20.44-15.57,2.63-2.73,4.56-6.29,5.02-9.28,0-.01,0-.03,0-.04.02-.13.03-.26.04-.39.26-2.56-.71-4.3-2.66-4.8-.36-.1-.77-.15-1.22-.15h-.08Z"/>
            </g>
            <path class="cls-11" d="M31.18,1.62c-2.35,1.96-8.86,7.09-15.62,9.98-5.94,2.55-11.31,2.13-13.98,1.65-.23-.61-.41-1.21-.55-1.74,1.86.46,5.84.91,12.13-.99C22.28,7.78,30.14,1.49,30.14,1.49c.39,0,.73.04,1.05.13Z"/>
            <path class="cls-11" d="M33.33,5.67c-.01.13-.02.27-.04.4t0,.01c-2.36,3.66-8.6,12.61-16.25,17.64-4.79,3.15-8.39,4.8-10.81,5.67-.33-.51-.52-1.31-.87-2.58,2.44-.43,8.66-1.96,14.63-7.05,5.91-5.04,11.25-11.47,13.35-14.1Z"/>
            <path class="cls-11" d="M2.12,14.6c4.15.51,8.39-.14,12.38-1.24,5.22-1.83,9.81-5.5,14.21-8.77.96-.71,2.42-2.18,3.35-2.58-4.19,4.79-9.49,8.68-15.49,10.85-3.26,1.28-6.7,2.66-10.27,2.52-1.35-.08-3.12-.1-4.18-.77h0Z"/>
            <path class="cls-11" d="M5.75,25.55c3.99-1.54,7.84-3.42,11.53-5.58,5.97-3.92,10.86-9.23,15.17-14.89,0,0,.05.03.05.03-2.9,4.95-6.89,9.28-11.58,12.58-4.62,3.24-9.62,6.78-15.17,7.86h0Z"/>
            <path class="cls-14" d="M33.33,5.67c-.01.13-.02.27-.04.4t0,.01c-.42,2.74-2.23,6.21-4.83,8.91-5.67,5.91-17.49,15.65-20.07,15.35-1.23-.14-1.79-.37-2.16-.95-.11-.16-.2-.36-.29-.59,9.65-2.9,15.68-10.96,15.17-16.4-.26-2.66-2.02-4.3-3.87-5.3,5.37-2.31,10.56-5.24,10.56-5.24.9-.26,1.67-.38,2.34-.37.39,0,.73.04,1.05.13,1.73.44,2.35,2.01,2.15,4.05Z"/>
            <path class="cls-17" d="M17.03,8.66s-6.04,2.27-9.57,2.38-4.39-1.04-4.85.17,2.08,5.38,3.15,6.59,1.12,8.13,1.99,9.07,11.27-2.14,14.97-8.61"/>
          </g>
        </g>
      </g>
    </g>
  </g>
</svg>