<?xml version="1.0" encoding="UTF-8"?>
<svg xmlns="http://www.w3.org/2000/svg" xmlns:xlink="http://www.w3.org/1999/xlink" viewBox="0 0 36.68 57.61">
  <defs>
    <style>
      .cls-1 {
        fill: #2b2b2b;
      }

      .cls-2 {
        fill: url(#linear-gradient-5);
      }

      .cls-3 {
        fill: url(#linear-gradient-4);
      }

      .cls-4 {
        fill: url(#linear-gradient-2);
      }

      .cls-4, .cls-5 {
        mix-blend-mode: multiply;
      }

      .cls-5 {
        fill: url(#linear-gradient-6);
      }

      .cls-6 {
        fill: url(#linear-gradient);
      }

      .cls-7 {
        fill: #ffb8df;
      }

      .cls-8 {
        isolation: isolate;
      }

      .cls-9 {
        fill: url(#linear-gradient-3);
      }

      .cls-9, .cls-10 {
        mix-blend-mode: overlay;
      }

      .cls-10 {
        fill: url(#linear-gradient-7);
      }
    </style>
    <linearGradient id="linear-gradient" x1="137.6" y1="41.79" x2="88.24" y2="57.61" gradientTransform="translate(-81.76 -42.77) rotate(12.29)" gradientUnits="userSpaceOnUse">
      <stop offset="0" stop-color="#3d3442"/>
      <stop offset="1" stop-color="#29272e"/>
    </linearGradient>
    <linearGradient id="linear-gradient-2" x1="123.88" y1="17.72" x2="117.87" y2="57.83" gradientTransform="translate(-81.76 -42.77) rotate(12.29)" gradientUnits="userSpaceOnUse">
      <stop offset="0" stop-color="#81778b" stop-opacity="0"/>
      <stop offset="1" stop-color="#564e5c"/>
    </linearGradient>
    <linearGradient id="linear-gradient-3" x1="119.07" y1="54.89" x2="113.7" y2="76.56" gradientTransform="translate(-81.76 -42.77) rotate(12.29)" gradientUnits="userSpaceOnUse">
      <stop offset="0" stop-color="#fff" stop-opacity="0"/>
      <stop offset="1" stop-color="#fff"/>
    </linearGradient>
    <linearGradient id="linear-gradient-4" x1="-4.55" y1="14.89" x2="19.31" y2="4.62" gradientUnits="userSpaceOnUse">
      <stop offset="0" stop-color="#3d3442"/>
      <stop offset=".91" stop-color="#17161a"/>
    </linearGradient>
    <linearGradient id="linear-gradient-5" x1="35.58" y1="9.89" x2="-13.74" y2="25.7" gradientTransform="matrix(1,0,0,1,0,0)" xlink:href="#linear-gradient"/>
    <linearGradient id="linear-gradient-6" x1="30.7" y1="17.17" x2="15.09" y2="15.44" gradientTransform="matrix(1,0,0,1,0,0)" xlink:href="#linear-gradient-2"/>
    <linearGradient id="linear-gradient-7" x1="18.32" y1="13.41" x2="1.56" y2="21.38" gradientTransform="matrix(1,0,0,1,0,0)" xlink:href="#linear-gradient-3"/>
  </defs>
  <g class="cls-8">
    <g id="Layer_2" data-name="Layer 2">
      <g id="Layer_1-2" data-name="Layer 1">
        <g>
          <g>
            <g>
              <path class="cls-6" d="M21.14,57.27c-.25,0-.34-.16-.67-.75-.2-.36-.48-.86-.83-1.4-1.24-1.89-2.59-2.96-4.02-3.19-.47-.08-.96-.12-1.46-.12-2.84,0-5.23,1.24-5.26,1.25-.05.03-.11.04-.16.04-.08,0-.16-.03-.23-.08-.11-.09-.15-.24-.1-.38.06-.18,6.41-18.18,11.72-30.66,2.38-5.55,4.13-9.1,5.37-10.85C30.37,4.23,35.74.44,35.8.41c.06-.04.13-.06.2-.06.06,0,.12.02.18.05.12.07.18.2.17.33,0,.03-.36,3.36-1.05,8.16-.98,6.89-2.63,16.81-4.92,24.92-.64,2.3-1.32,4.38-2.02,6.18-3.71,9.54-5.56,13.9-6.36,15.76-.29.69-.47,1.11-.5,1.21-.04.15-.2.29-.36.29Z"/>
              <path class="cls-1" d="M36,.69s-.35,3.3-1.05,8.15c-.97,6.83-2.61,16.74-4.91,24.88-.62,2.22-1.29,4.3-2.01,6.15-5.24,13.48-6.76,16.57-6.87,17.02,0,.02-.01.03-.02.03-.1,0-.51-.92-1.22-2-.9-1.38-2.31-3.03-4.25-3.34-.51-.08-1.02-.12-1.52-.12-2.97,0-5.42,1.29-5.42,1.29,0,0,6.35-18.03,11.71-30.64,2.07-4.83,3.97-8.86,5.33-10.79C30.67,4.4,36,.69,36,.69M36,0c-.14,0-.28.04-.39.12-.22.15-5.48,3.86-10.39,10.8-1.25,1.77-3.01,5.34-5.4,10.91-5.31,12.49-11.66,30.5-11.73,30.68-.09.27-.01.56.2.75.13.11.29.17.45.17.11,0,.22-.03.32-.08.02-.01,2.34-1.21,5.1-1.21.48,0,.96.04,1.41.11,1.33.21,2.6,1.24,3.79,3.04.35.53.62,1.02.82,1.38.34.62.52.93.97.93.32,0,.63-.25.69-.57.02-.08.21-.53.48-1.15.79-1.86,2.65-6.23,6.36-15.77.71-1.81,1.39-3.91,2.04-6.22,2.3-8.12,3.95-18.06,4.93-24.97.69-4.81,1.05-8.14,1.05-8.18.03-.27-.1-.53-.33-.67-.11-.06-.23-.1-.35-.1h0ZM36,1.38h0,0Z"/>
            </g>
            <path class="cls-7" d="M28.02,39.87c-5.24,13.48-6.76,16.57-6.87,17.02-.05.21-.46-.78-1.24-1.97,6.97-10.53,13.76-44.81,13.76-44.81l1.27-1.27c-1.23,8.7-3.56,22.38-6.93,31.03Z"/>
            <path class="cls-4" d="M30.04,33.72c.9-6.13,1.26-13.34-1.81-14.32-2.61-.82-5.5.8-7.79,2.71,2.07-4.83,3.97-8.86,5.33-10.79C30.67,4.4,36,.69,36,.69c0,0-.35,3.3-1.05,8.15-.97,6.83-2.61,16.74-4.91,24.88Z"/>
            <path class="cls-7" d="M31.75,12.29c-1.1,7.16-3.38,14.04-5.15,21.05-1.6,6.07-3.41,12.28-6.31,17.88-.44.76-.93,1.72-1.45,2.3,3.32-6.41,5.22-13.42,7.47-20.26,2.2-6.85,3.3-14.19,5.44-20.97h0Z"/>
            <path class="cls-9" d="M21.51,24.6l-10.21,25.19s2.89-2.68,5.41-.79c2.52,1.89,4.41,5.02,4.41,5.02,0,0,3.96-6.55,6.3-16.69"/>
          </g>
          <g>
            <g>
              <path class="cls-3" d="M15.02,12.16c-.14,0-14.29-.27-14.66-2.2-.08-.39.07-.87.45-1.41C2.4,6.23,7.67,2.9,17.32,1.15c2.43-.44,4.64-.67,6.57-.67,6.57,0,7.92,2.59,7.97,2.7.08.17.02.37-.15.46-6.01,3.19-16.17,8.53-16.69,8.53Z"/>
              <path class="cls-1" d="M23.89.83c6.43,0,7.66,2.5,7.66,2.5,0,0-16.02,8.49-16.53,8.49s-14.03-.42-14.32-1.92C.41,8.4,5.21,3.7,17.39,1.49c2.61-.47,4.75-.66,6.51-.66M23.89.14c-1.95,0-4.18.23-6.63.67C7.51,2.58,2.15,5.98.53,8.36c-.43.62-.6,1.19-.5,1.67.15.77.85,1.5,7.7,2.08,3.39.29,6.94.4,7.3.4.21,0,.69,0,16.85-8.57.33-.17.46-.58.3-.91-.15-.3-1.61-2.89-8.28-2.89h0Z"/>
            </g>
            <g>
              <path class="cls-2" d="M8.35,30.68c-1.2-.14-1.93-.35-2.41-1.11-.12-.18-.23-.4-.32-.66-.15-.39-.29-.89-.46-1.52l-.13-.49c-.06-.23-.13-.46-.21-.71l-.08-.25c-.51-1.61-.48-2.86-.45-3.96.03-1.35.06-2.52-.92-4.08-.76-1.22-1.53-2.87-2.11-4.53-.21-.58-.4-1.18-.56-1.76-.54-2.01-.3-2.4-.21-2.54.18-.3.55-.3.68-.3.33,0,.76.09,1.37.21,1.08.22,2.56.52,4.42.52,1.73,0,3.46-.27,5.16-.81,1.49-.47,3.17-1.11,4.98-1.9,5.29-2.28,10.48-5.2,10.53-5.23.95-.28,1.74-.41,2.43-.41.5,0,.88.05,1.22.14,1.78.46,2.64,2.03,2.4,4.41-.01.14-.02.27-.04.4,0,0,0,.02,0,.03-.45,2.93-2.34,6.41-4.93,9.1-5.08,5.29-17.1,15.46-20.19,15.46-.06,0-.11,0-.16,0Z"/>
              <path class="cls-1" d="M30.05,1.49s.06,0,.08,0c.39,0,.73.04,1.05.13,1.73.44,2.35,2.01,2.15,4.05-.01.13-.02.27-.04.4t0,.01c-.42,2.74-2.23,6.21-4.83,8.91-5.59,5.82-17.13,15.36-19.94,15.36-.04,0-.08,0-.12,0-1.23-.14-1.79-.37-2.16-.95-.11-.16-.2-.36-.29-.59-.18-.47-.35-1.12-.58-1.99-.09-.3-.18-.61-.29-.97-1.11-3.54.44-5.17-1.4-8.12-.81-1.29-1.55-2.96-2.08-4.47-.23-.61-.41-1.21-.55-1.74-.3-1.13-.42-2-.25-2.28.06-.1.19-.14.38-.14.84,0,2.88.73,5.79.73,1.53,0,3.3-.2,5.26-.82,1.59-.5,3.31-1.17,5.02-1.91,5.37-2.31,10.56-5.24,10.56-5.24.86-.25,1.61-.37,2.26-.37M30.05.8c-.72,0-1.54.13-2.45.39-.05.01-.1.04-.15.06-.05.03-5.22,2.94-10.5,5.21-1.8.79-3.47,1.42-4.95,1.89-1.66.52-3.36.79-5.05.79-1.83,0-3.29-.3-4.35-.51-.63-.13-1.08-.22-1.44-.22-.57,0-.85.26-.97.48-.2.32-.33.91.17,2.81.16.6.35,1.2.57,1.8.59,1.67,1.37,3.35,2.14,4.59.92,1.48.9,2.54.86,3.89-.03,1.13-.06,2.4.47,4.07l.08.25c.08.25.15.48.21.71l.13.48c.17.64.31,1.15.47,1.56.1.27.22.51.36.73.54.85,1.38,1.11,2.65,1.25.06,0,.13.01.2.01,3.23,0,15.19-10.1,20.44-15.57,2.63-2.73,4.56-6.29,5.02-9.28,0-.01,0-.03,0-.04.02-.13.03-.26.04-.39.26-2.56-.71-4.3-2.66-4.8-.36-.1-.77-.15-1.22-.15h-.08Z"/>
            </g>
            <path class="cls-7" d="M31.18,1.62c-2.35,1.96-8.86,7.09-15.62,9.98-5.94,2.55-11.31,2.13-13.98,1.65-.23-.61-.41-1.21-.55-1.74,1.86.46,5.84.91,12.13-.99C22.28,7.78,30.14,1.49,30.14,1.49c.39,0,.73.04,1.05.13Z"/>
            <path class="cls-7" d="M33.33,5.67c-.01.13-.02.27-.04.4t0,.01c-2.36,3.66-8.6,12.61-16.25,17.64-4.79,3.15-8.39,4.8-10.81,5.67-.33-.51-.52-1.31-.87-2.58,2.44-.43,8.66-1.96,14.63-7.05,5.91-5.04,11.25-11.47,13.35-14.1Z"/>
            <path class="cls-7" d="M2.12,14.6c4.15.51,8.39-.14,12.38-1.24,5.22-1.83,9.81-5.5,14.21-8.77.96-.71,2.42-2.18,3.35-2.58-4.19,4.79-9.49,8.68-15.49,10.85-3.26,1.28-6.7,2.66-10.27,2.52-1.35-.08-3.12-.1-4.18-.77h0Z"/>
            <path class="cls-7" d="M5.75,25.55c3.99-1.54,7.84-3.42,11.53-5.58,5.97-3.92,10.86-9.23,15.17-14.89,0,0,.05.03.05.03-2.9,4.95-6.89,9.28-11.58,12.58-4.62,3.24-9.62,6.78-15.17,7.86h0Z"/>
            <path class="cls-5" d="M33.33,5.67c-.01.13-.02.27-.04.4t0,.01c-.42,2.74-2.23,6.21-4.83,8.91-5.67,5.91-17.49,15.65-20.07,15.35-1.23-.14-1.79-.37-2.16-.95-.11-.16-.2-.36-.29-.59,9.65-2.9,15.68-10.96,15.17-16.4-.26-2.66-2.02-4.3-3.87-5.3,5.37-2.31,10.56-5.24,10.56-5.24.9-.26,1.67-.38,2.34-.37.39,0,.73.04,1.05.13,1.73.44,2.35,2.01,2.15,4.05Z"/>
            <path class="cls-10" d="M17.03,8.66s-6.04,2.27-9.57,2.38-4.39-1.04-4.85.17,2.08,5.38,3.15,6.59,1.12,8.13,1.99,9.07,11.27-2.14,14.97-8.61"/>
          </g>
        </g>
      </g>
    </g>
  </g>
</svg>