<?xml version="1.0" encoding="UTF-8"?>
<svg id="Layer_2" data-name="Layer 2" xmlns="http://www.w3.org/2000/svg" xmlns:xlink="http://www.w3.org/1999/xlink" viewBox="0 0 56.97 24.6">
  <defs>
    <style>
      .cls-1 {
        fill: url(#linear-gradient-8);
      }

      .cls-2 {
        fill: url(#linear-gradient-7);
      }

      .cls-3 {
        fill: url(#linear-gradient-5);
      }

      .cls-4 {
        fill: url(#linear-gradient-6);
      }

      .cls-5 {
        fill: url(#linear-gradient-9);
      }

      .cls-6 {
        fill: url(#linear-gradient-4);
      }

      .cls-7 {
        fill: url(#linear-gradient-3);
      }

      .cls-8 {
        fill: url(#linear-gradient-2);
      }

      .cls-9 {
        fill: url(#linear-gradient);
      }

      .cls-10 {
        fill: #fff;
      }

      .cls-11 {
        fill: url(#linear-gradient-10);
      }

      .cls-12 {
        fill: url(#linear-gradient-11);
      }

      .cls-13 {
        fill: url(#linear-gradient-12);
      }

      .cls-14 {
        fill: url(#linear-gradient-13);
      }

      .cls-15 {
        fill: url(#linear-gradient-19);
      }

      .cls-16 {
        fill: url(#linear-gradient-14);
      }

      .cls-17 {
        fill: url(#linear-gradient-21);
      }

      .cls-18 {
        fill: url(#linear-gradient-20);
      }

      .cls-19 {
        fill: url(#linear-gradient-22);
      }

      .cls-20 {
        fill: url(#linear-gradient-23);
      }

      .cls-21 {
        fill: url(#linear-gradient-28);
      }

      .cls-22 {
        fill: url(#linear-gradient-25);
      }

      .cls-23 {
        fill: url(#linear-gradient-30);
      }

      .cls-24 {
        fill: url(#linear-gradient-15);
      }

      .cls-25 {
        fill: url(#linear-gradient-16);
      }

      .cls-26 {
        fill: url(#linear-gradient-17);
      }

      .cls-27 {
        fill: url(#linear-gradient-18);
      }

      .cls-28 {
        fill: url(#linear-gradient-27);
      }

      .cls-29 {
        fill: url(#linear-gradient-24);
      }

      .cls-30 {
        fill: url(#linear-gradient-26);
      }

      .cls-31 {
        fill: url(#linear-gradient-29);
      }
    </style>
    <linearGradient id="linear-gradient" x1="34.74" y1="14.8" x2="42.36" y2="14.8" gradientUnits="userSpaceOnUse">
      <stop offset=".06" stop-color="#d7c9ed"/>
      <stop offset=".44" stop-color="#fff"/>
      <stop offset="1" stop-color="#d7c9ed"/>
    </linearGradient>
    <linearGradient id="linear-gradient-2" x1="34.35" y1="14.8" x2="42.75" y2="14.8" gradientUnits="userSpaceOnUse">
      <stop offset="0" stop-color="#c19ffa"/>
      <stop offset=".04" stop-color="#d0b8f9"/>
      <stop offset=".58" stop-color="#cab5e8"/>
      <stop offset="1" stop-color="#c8b5e3"/>
    </linearGradient>
    <linearGradient id="linear-gradient-3" x1="42.51" y1="10.46" x2="49.88" y2="10.46" xlink:href="#linear-gradient"/>
    <linearGradient id="linear-gradient-4" x1="42.12" y1="10.46" x2="50.27" y2="10.46" xlink:href="#linear-gradient-2"/>
    <linearGradient id="linear-gradient-5" x1="49.3" y1="3.97" x2="56.58" y2="3.97" xlink:href="#linear-gradient"/>
    <linearGradient id="linear-gradient-6" x1="48.92" y1="3.97" x2="56.97" y2="3.97" xlink:href="#linear-gradient-2"/>
    <linearGradient id="linear-gradient-7" x1="-381.84" y1="14.8" x2="-374.21" y2="14.8" gradientTransform="translate(-357.26) rotate(-180) scale(1 -1)" xlink:href="#linear-gradient"/>
    <linearGradient id="linear-gradient-8" x1="24.97" y1="14.8" x2="16.57" y2="14.8" xlink:href="#linear-gradient-2"/>
    <linearGradient id="linear-gradient-9" x1="-374.06" y1="10.46" x2="-366.7" y2="10.46" gradientTransform="translate(-357.26) rotate(-180) scale(1 -1)" xlink:href="#linear-gradient"/>
    <linearGradient id="linear-gradient-10" x1="17.2" y1="10.46" x2="9.06" y2="10.46" xlink:href="#linear-gradient-2"/>
    <linearGradient id="linear-gradient-11" x1="-367.27" y1="3.97" x2="-359.99" y2="3.97" gradientTransform="translate(-357.26) rotate(-180) scale(1 -1)" xlink:href="#linear-gradient"/>
    <linearGradient id="linear-gradient-12" x1="10.4" y1="3.97" x2="2.35" y2="3.97" xlink:href="#linear-gradient-2"/>
    <linearGradient id="linear-gradient-13" x1="-79.59" y1="46.33" x2="-71.82" y2="46.33" gradientTransform="translate(96.12 -42.24) rotate(-9.96)" xlink:href="#linear-gradient"/>
    <linearGradient id="linear-gradient-14" x1="25.36" y1="17.22" x2="33.78" y2="15.75" xlink:href="#linear-gradient-2"/>
    <linearGradient id="linear-gradient-15" x1="716.61" y1="-700.26" x2="720.38" y2="-700.26" gradientTransform="translate(-909.06 -123.29) rotate(49.5) scale(1 .9)" xlink:href="#linear-gradient"/>
    <linearGradient id="linear-gradient-16" x1="35.07" y1="17.61" x2="33.36" y2="14.44" xlink:href="#linear-gradient-2"/>
    <linearGradient id="linear-gradient-17" x1="663.65" y1="-528.26" x2="667.15" y2="-528.26" gradientTransform="translate(-807.07 10.75) rotate(38.59)" xlink:href="#linear-gradient"/>
    <linearGradient id="linear-gradient-18" x1="43.07" y1="13.91" x2="41.96" y2="11.93" xlink:href="#linear-gradient-2"/>
    <linearGradient id="linear-gradient-19" x1="566.22" y1="-408.25" x2="569.73" y2="-408.25" gradientTransform="translate(-634.82 152.83) rotate(23.69)" xlink:href="#linear-gradient"/>
    <linearGradient id="linear-gradient-20" x1="50.1" y1="8" x2="48.52" y2="6.37" xlink:href="#linear-gradient-2"/>
    <linearGradient id="linear-gradient-21" x1="495.13" y1="-151.12" x2="500.94" y2="-151.12" gradientTransform="translate(-417.57 248.87) rotate(-11.16) scale(.88 .98) skewX(-13.58)" xlink:href="#linear-gradient"/>
    <linearGradient id="linear-gradient-22" x1="19.49" y1="12.37" x2="13.97" y2="12.96" xlink:href="#linear-gradient-2"/>
    <linearGradient id="linear-gradient-23" x1="579.19" y1="-370.15" x2="585.01" y2="-370.15" gradientTransform="translate(-634.78 252.95) rotate(11.57)" xlink:href="#linear-gradient"/>
    <linearGradient id="linear-gradient-24" x1="12.6" y1="6.9" x2="6.83" y2="7.16" xlink:href="#linear-gradient-2"/>
    <linearGradient id="linear-gradient-25" x1="711.37" y1="-274.93" x2="717.84" y2="-274.93" gradientTransform="translate(-655.9 37.13) rotate(22.01) scale(.87 1)" xlink:href="#linear-gradient"/>
    <linearGradient id="linear-gradient-26" x1="27.66" y1="17.58" x2="22.63" y2="14.13" xlink:href="#linear-gradient-2"/>
    <linearGradient id="linear-gradient-27" x1="29.87" y1="5.33" x2="38.77" y2="5.33" gradientTransform="translate(-29.17 10.13) rotate(2.86)" xlink:href="#linear-gradient"/>
    <linearGradient id="linear-gradient-28" x1=".01" y1="16.93" x2="9.68" y2="17.41" xlink:href="#linear-gradient-2"/>
    <linearGradient id="linear-gradient-29" x1="33.45" y1="-3.16" x2="35.28" y2="-3.16" gradientTransform="translate(-29.17 10.13) rotate(2.86)" xlink:href="#linear-gradient"/>
    <linearGradient id="linear-gradient-30" x1="4.01" y1="8.63" x2="6.61" y2="8.76" xlink:href="#linear-gradient-2"/>
  </defs>
  <g id="Layer_1-2" data-name="Layer 1">
    <g>
      <g>
        <g>
          <g>
            <path class="cls-9" d="M42.14,13.66l-.53-.99c-.52-.95-1.73-1.29-2.68-.83-.95.46-1.9.88-2.85,1.2-.48.16-.84.5-1.08.93-.23.43-.33.96-.21,1.48l.25,1.09c.12.53.47.95.96,1.19.49.24,1.12.28,1.72.08,1.19-.41,2.33-.91,3.42-1.44,1.1-.54,1.52-1.78,1-2.73ZM39.37,12.75c.48-.23,1.07-.05,1.31.41l.52,1c.25.47.03,1.07-.49,1.32-1.06.51-2.16,1-3.3,1.39-.57.2-1.16-.08-1.3-.59l-.31-1.08c-.14-.51.14-1.04.62-1.2,1-.34,1.98-.77,2.96-1.25Z"/>
            <path class="cls-8" d="M39.83,11.65c.71,0,1.41.36,1.78,1.03l.53.99c.52.95.1,2.19-1,2.73-1.09.53-2.22,1.03-3.42,1.44-.26.09-.53.13-.78.13-.34,0-.66-.07-.93-.21-.49-.24-.84-.66-.96-1.19l-.25-1.09c-.12-.52-.02-1.06.21-1.48.23-.43.6-.77,1.08-.93.95-.33,1.9-.74,2.85-1.2.28-.14.59-.2.9-.2M37.03,16.94c.12,0,.25-.02.37-.06,1.15-.39,2.24-.87,3.3-1.39.52-.26.74-.85.49-1.32l-.52-1c-.17-.33-.51-.52-.87-.52-.15,0-.3.03-.44.1-.98.47-1.96.91-2.96,1.25-.49.17-.77.7-.62,1.2l.31,1.08c.11.4.5.66.93.66M39.83,11.26c-.37,0-.74.08-1.07.24-1.05.51-1.97.9-2.81,1.18-.55.19-1,.57-1.29,1.11-.3.55-.39,1.17-.25,1.76l.25,1.09c.15.64.56,1.15,1.17,1.45.33.16.71.25,1.1.25.31,0,.61-.05.91-.15,1.08-.37,2.18-.83,3.46-1.45.65-.32,1.12-.85,1.33-1.5.19-.6.13-1.22-.16-1.76l-.53-.98c-.42-.76-1.23-1.23-2.12-1.23h0ZM37.03,16.55c-.27,0-.5-.15-.56-.37l-.32-1.08c-.09-.3.08-.63.38-.73.92-.31,1.87-.72,3-1.27.09-.04.18-.06.27-.06.22,0,.43.12.53.31l.51.99c.06.12.07.27.03.41-.05.17-.18.31-.35.39-1.21.59-2.25,1.02-3.26,1.37-.08.03-.16.04-.24.04h0Z"/>
          </g>
          <g>
            <path class="cls-7" d="M49.41,8.41l-.74-.84c-.72-.81-1.99-.86-2.83-.13-.85.73-1.7,1.46-2.57,2.18-.86.73-1,1.97-.32,2.82l.71.87c.68.84,1.98.92,2.86.18.88-.73,1.75-1.48,2.62-2.23.88-.76,1-2.04.28-2.85ZM46.49,8.2c.42-.36,1.04-.33,1.39.07l.74.84c.35.4.29,1.02-.14,1.39-.87.75-1.74,1.48-2.61,2.22-.43.36-1.06.32-1.39-.08l-.72-.86c-.34-.41-.27-1.02.16-1.38.87-.72,1.72-1.45,2.58-2.19Z"/>
            <path class="cls-6" d="M47.21,6.93c.54,0,1.08.22,1.46.65l.74.84c.72.81.6,2.09-.28,2.85-.87.75-1.74,1.49-2.62,2.23-.41.34-.9.51-1.38.51-.57,0-1.11-.23-1.48-.69l-.71-.87c-.68-.84-.54-2.09.32-2.82.86-.72,1.72-1.45,2.57-2.18.4-.35.89-.52,1.37-.52M45.2,12.97c.23,0,.47-.08.67-.25.87-.73,1.74-1.47,2.61-2.22.42-.37.49-.99.14-1.39l-.74-.84c-.18-.21-.45-.32-.71-.32-.24,0-.48.08-.67.25-.85.73-1.71,1.46-2.58,2.19-.42.36-.49.97-.16,1.38l.72.86c.18.22.45.33.72.33M47.21,6.54c-.59,0-1.17.22-1.63.61-.85.73-1.7,1.45-2.56,2.18-1.03.87-1.19,2.34-.38,3.36l.71.87c.42.53,1.07.83,1.78.83.59,0,1.17-.21,1.63-.6.88-.73,1.75-1.48,2.62-2.23.51-.44.83-1.08.88-1.74.04-.62-.16-1.21-.56-1.66l-.74-.84c-.44-.49-1.08-.78-1.75-.78h0ZM45.2,12.58c-.17,0-.32-.07-.43-.19l-.72-.86c-.2-.24-.15-.62.11-.84.87-.73,1.73-1.46,2.58-2.19.12-.1.27-.16.42-.16h0c.17,0,.32.07.42.19l.74.84c.09.11.14.25.13.4-.01.17-.1.33-.23.45-.86.74-1.73,1.48-2.6,2.21-.12.1-.27.16-.42.16h0Z"/>
          </g>
          <g>
            <path class="cls-3" d="M56.02,1.71l-.8-.78c-.78-.75-2.03-.72-2.83.05-.79.77-1.59,1.53-2.41,2.28-.82.75-.92,2.02-.2,2.83l.74.84c.72.81,2.01.84,2.87.05.85-.78,1.7-1.58,2.53-2.4.84-.82.87-2.13.09-2.88ZM53.1,1.7c.39-.38,1.01-.39,1.38-.02l.79.79c.38.37.36,1-.05,1.4-.82.81-1.66,1.6-2.5,2.37-.42.38-1.04.37-1.4-.02l-.75-.83c-.35-.39-.31-1.01.09-1.38.83-.76,1.64-1.52,2.43-2.31Z"/>
            <path class="cls-4" d="M53.85.39c.49,0,.99.18,1.36.54l.8.78c.78.75.75,2.05-.09,2.88-.83.82-1.68,1.62-2.53,2.4-.42.39-.94.57-1.45.57-.54,0-1.06-.21-1.42-.63l-.74-.84c-.72-.81-.62-2.07.2-2.83.82-.75,1.62-1.51,2.41-2.28.41-.4.94-.6,1.46-.6M52.01,6.53c.25,0,.5-.09.71-.28.85-.78,1.68-1.57,2.5-2.37.41-.4.43-1.03.05-1.4l-.79-.79c-.18-.18-.42-.27-.67-.27s-.52.1-.72.29c-.79.78-1.61,1.55-2.43,2.31-.4.37-.45.99-.09,1.38l.75.83c.18.2.43.3.69.3M53.85,0c-.65,0-1.26.25-1.73.71-.76.74-1.54,1.49-2.4,2.27-.98.9-1.08,2.41-.23,3.37l.75.84c.43.48,1.05.76,1.71.76.63,0,1.23-.24,1.71-.68.9-.83,1.74-1.62,2.54-2.41.49-.48.77-1.14.77-1.81,0-.62-.24-1.2-.68-1.62l-.8-.78c-.44-.42-1.02-.65-1.63-.65h0ZM52.01,6.14c-.16,0-.3-.06-.41-.17l-.75-.83c-.21-.23-.18-.61.07-.84.87-.8,1.67-1.56,2.44-2.31.12-.12.28-.18.44-.18.15,0,.29.06.4.16l.79.79c.1.1.16.24.15.38,0,.17-.07.34-.2.47-.79.78-1.6,1.55-2.5,2.37-.13.12-.28.18-.44.18h0Z"/>
          </g>
          <g>
            <path class="cls-2" d="M18.18,16.39c1.09.53,2.22,1.03,3.42,1.44.6.21,1.23.16,1.72-.08.49-.24.84-.66.96-1.19l.25-1.09c.12-.52.02-1.06-.21-1.48-.23-.43-.6-.77-1.08-.93-.95-.33-1.9-.74-2.85-1.2-.95-.46-2.15-.13-2.68.83l-.53.99c-.52.95-.1,2.19,1,2.73ZM22.91,14c.49.17.77.7.62,1.2l-.31,1.08c-.14.51-.73.79-1.3.59-1.15-.39-2.24-.87-3.3-1.39-.52-.26-.74-.85-.49-1.32l.52-1c.24-.47.83-.65,1.31-.41.98.47,1.96.91,2.96,1.25Z"/>
            <path class="cls-1" d="M19.49,11.65c.31,0,.61.07.9.2.95.46,1.9.88,2.85,1.2.48.16.84.5,1.08.93.23.43.33.96.21,1.48l-.25,1.09c-.12.53-.47.95-.96,1.19-.28.14-.6.21-.93.21-.26,0-.52-.04-.78-.13-1.19-.41-2.33-.91-3.42-1.44-1.1-.54-1.52-1.78-1-2.73l.53-.99c.37-.67,1.07-1.03,1.78-1.03M22.29,16.94c.43,0,.82-.26.93-.66l.31-1.08c.14-.51-.14-1.04-.62-1.2-1-.34-1.98-.77-2.96-1.25-.14-.07-.29-.1-.44-.1-.35,0-.7.19-.87.52l-.52,1c-.25.47-.03,1.07.49,1.32,1.06.51,2.16,1,3.3,1.39.12.04.25.06.37.06M19.49,11.26c-.89,0-1.7.47-2.12,1.23l-.54.99c-.29.53-.35,1.16-.16,1.75.21.65.68,1.19,1.33,1.5,1.28.62,2.38,1.08,3.46,1.45.3.1.6.15.91.15.39,0,.77-.09,1.1-.25.61-.29,1.02-.81,1.17-1.45l.25-1.09c.14-.59.05-1.21-.25-1.76-.3-.54-.74-.93-1.29-1.11-.84-.29-1.76-.67-2.81-1.18-.33-.16-.7-.24-1.07-.24h0ZM22.29,16.55c-.08,0-.16-.01-.24-.04-1.01-.35-2.05-.78-3.26-1.37-.17-.08-.29-.22-.35-.39-.05-.14-.04-.28.03-.41l.52-1c.1-.19.3-.31.53-.31.09,0,.19.02.27.06,1.13.55,2.09.95,3.01,1.27.3.1.46.43.38.73l-.31,1.07c-.06.22-.29.38-.56.38h0Z"/>
          </g>
          <g>
            <path class="cls-5" d="M10.19,11.26c.87.75,1.74,1.49,2.62,2.23.88.74,2.18.67,2.86-.18l.71-.87c.68-.84.54-2.09-.32-2.82-.86-.72-1.72-1.45-2.57-2.18-.85-.73-2.12-.68-2.83.13l-.74.84c-.72.81-.6,2.09.28,2.85ZM15.41,10.39c.42.36.49.97.16,1.38l-.72.86c-.34.41-.96.45-1.39.08-.87-.73-1.74-1.47-2.61-2.22-.42-.37-.49-.99-.14-1.39l.74-.84c.35-.4.97-.43,1.39-.07.85.73,1.71,1.46,2.58,2.19Z"/>
            <path class="cls-11" d="M12.11,6.93c.48,0,.97.17,1.37.52.85.73,1.7,1.46,2.57,2.18.86.73,1,1.97.32,2.82l-.71.87c-.37.46-.91.69-1.48.69-.48,0-.98-.17-1.38-.51-.88-.73-1.75-1.48-2.62-2.23-.88-.76-1-2.04-.28-2.85l.74-.84c.38-.43.92-.65,1.46-.65M14.13,12.97c.27,0,.54-.11.72-.33l.72-.86c.34-.41.27-1.02-.16-1.38-.87-.72-1.72-1.45-2.58-2.19-.2-.17-.44-.25-.67-.25-.27,0-.53.11-.71.32l-.74.84c-.35.4-.29,1.02.14,1.39.87.75,1.74,1.48,2.61,2.22.2.17.44.25.67.25M12.11,6.54c-.67,0-1.31.28-1.75.78l-.74.84c-.4.45-.6,1.04-.56,1.66.04.66.36,1.29.88,1.74.87.75,1.75,1.49,2.62,2.23.46.39,1.04.6,1.63.6.71,0,1.36-.3,1.78-.83l.71-.87c.82-1.02.65-2.49-.38-3.36-.86-.72-1.72-1.45-2.56-2.18-.45-.39-1.03-.61-1.63-.61h0ZM14.13,12.58c-.15,0-.3-.06-.42-.16-.87-.73-1.74-1.47-2.6-2.21-.13-.12-.22-.28-.23-.45-.01-.15.04-.29.13-.39l.74-.84c.1-.12.26-.19.42-.19.15,0,.3.06.42.16.86.74,1.71,1.47,2.58,2.19.26.22.31.59.11.84l-.72.86c-.1.12-.26.19-.43.19h0Z"/>
          </g>
          <g>
            <path class="cls-12" d="M3.39,4.59c.83.82,1.68,1.62,2.53,2.4.86.79,2.15.76,2.87-.05l.74-.84c.72-.81.62-2.07-.2-2.83-.82-.75-1.62-1.51-2.41-2.28-.79-.77-2.04-.81-2.83-.05l-.8.78c-.78.75-.75,2.05.09,2.88ZM8.66,4.01c.4.37.45.99.09,1.38l-.75.83c-.35.39-.98.41-1.4.02-.85-.78-1.68-1.57-2.5-2.37-.41-.4-.43-1.03-.05-1.4l.79-.79c.37-.37.99-.36,1.38.02.79.78,1.61,1.55,2.43,2.31Z"/>
            <path class="cls-13" d="M5.47.39c.52,0,1.05.2,1.46.6.79.77,1.59,1.53,2.41,2.28.82.75.92,2.02.2,2.83l-.74.84c-.37.42-.89.63-1.42.63-.51,0-1.03-.19-1.45-.57-.85-.78-1.7-1.58-2.53-2.4-.84-.82-.87-2.13-.09-2.88l.8-.78c.38-.36.87-.54,1.36-.54M7.31,6.53c.26,0,.51-.1.69-.3l.75-.83c.35-.39.31-1.01-.09-1.38-.83-.76-1.64-1.52-2.43-2.31-.2-.2-.46-.29-.72-.29s-.49.09-.67.27l-.79.79c-.38.37-.36,1,.05,1.4.82.81,1.66,1.6,2.5,2.37.2.19.46.28.71.28M5.47,0c-.62,0-1.2.23-1.63.65l-.81.78c-.43.42-.68.99-.68,1.62,0,.67.28,1.33.77,1.81.8.79,1.63,1.58,2.54,2.41.47.44,1.08.68,1.71.68.66,0,1.29-.28,1.71-.76l.74-.84c.85-.96.75-2.47-.23-3.37-.86-.79-1.64-1.53-2.4-2.27-.47-.46-1.08-.71-1.73-.71h0ZM7.31,6.14c-.16,0-.32-.06-.44-.18-.89-.82-1.71-1.59-2.5-2.37-.13-.13-.2-.3-.2-.47,0-.15.05-.28.15-.38l.79-.79c.1-.1.24-.16.4-.16h0c.17,0,.32.07.44.18.77.76,1.57,1.51,2.44,2.31.25.23.28.61.07.84l-.75.83c-.1.11-.25.18-.41.18h0Z"/>
          </g>
          <g>
            <path class="cls-14" d="M33.56,16.74l-.24-1.09c-.12-.53-.44-.95-.82-1.25-.19-.15-.4-.25-.62-.33-.22-.07-.45-.1-.68-.08-.94.07-1.89.05-2.81-.09-.46-.07-.91.05-1.31.31-.39.25-.75.66-.92,1.18l-.34,1.07c-.17.51-.08,1.05.25,1.52.32.45.88.81,1.55.91,1.33.21,2.66.24,3.98.13.33-.02.64-.12.91-.25.27-.13.5-.32.68-.53.36-.42.48-.96.37-1.49ZM31.27,14.98c.25-.02.48.06.67.21.19.15.33.37.37.64l.17,1.11c.04.26-.04.51-.22.71-.17.2-.44.34-.75.36-1.24.1-2.5.07-3.74-.13-.31-.05-.56-.2-.72-.42-.16-.21-.22-.48-.16-.73l.25-1.09c.06-.26.22-.47.41-.6.2-.13.44-.21.68-.16,1,.16,2.02.18,3.04.1Z"/>
            <path class="cls-16" d="M28.12,13.87c.09,0,.17,0,.26.02.58.09,1.17.13,1.76.13.35,0,.7-.01,1.04-.04.04,0,.08,0,.13,0,.19,0,.38.03.56.09.22.08.43.18.62.33.38.3.7.72.82,1.25l.24,1.09c.12.53,0,1.07-.37,1.49-.18.21-.41.4-.68.53-.27.14-.58.23-.91.25-.48.04-.97.06-1.46.06-.84,0-1.68-.06-2.52-.19-.67-.1-1.23-.46-1.55-.91-.33-.46-.42-1-.25-1.52l.34-1.07c.17-.51.52-.92.92-1.18.32-.21.68-.33,1.05-.33M30.14,18.07c.46,0,.92-.02,1.37-.05.31-.02.57-.16.75-.36.17-.2.26-.45.22-.71l-.17-1.11c-.04-.26-.18-.49-.37-.64-.17-.14-.39-.21-.61-.21-.02,0-.04,0-.06,0-.37.03-.75.04-1.13.04-.64,0-1.28-.05-1.91-.15-.05,0-.1-.01-.14-.01-.19,0-.38.07-.54.18-.2.13-.35.34-.41.6l-.25,1.09c-.06.26,0,.52.16.73.16.21.42.36.72.42.79.12,1.58.18,2.37.18M28.12,13.48h0c-.43,0-.86.13-1.26.4-.51.33-.89.82-1.07,1.38l-.34,1.07c-.2.63-.1,1.29.3,1.86.4.57,1.06.96,1.81,1.07.83.13,1.7.2,2.58.2.49,0,.99-.02,1.49-.06.36-.02.72-.12,1.06-.29.3-.14.58-.36.8-.63.43-.5.59-1.17.45-1.82l-.24-1.09c-.13-.57-.46-1.08-.96-1.47-.22-.17-.46-.29-.73-.39-.22-.07-.45-.11-.69-.11-.05,0-.1,0-.15,0-.35.03-.69.04-1.02.04-.59,0-1.16-.04-1.7-.13-.11-.02-.21-.03-.32-.03h0ZM30.14,17.68c-.79,0-1.57-.06-2.31-.18-.2-.04-.38-.13-.47-.27-.07-.09-.14-.23-.1-.41l.25-1.09c.03-.15.13-.28.25-.37.07-.05.19-.11.32-.11.02,0,.05,0,.07,0,.64.1,1.3.15,1.98.15.38,0,.77-.02,1.16-.05h0c.17,0,.29.05.4.13.12.1.2.24.23.39l.17,1.11c.03.18-.05.32-.12.4-.12.14-.29.22-.48.23-.46.04-.91.05-1.35.05h0Z"/>
          </g>
        </g>
        <g>
          <path class="cls-10" d="M39.83,11.88c.66,0,1.27.35,1.57.91l.54.99c.21.38.25.83.11,1.27-.16.49-.51.89-1.01,1.13-1.26.61-2.34,1.06-3.39,1.42-.23.08-.47.12-.71.12-.3,0-.58-.06-.83-.18-.44-.21-.73-.58-.84-1.03l-.25-1.09c-.1-.44-.03-.91.19-1.32.22-.4.55-.69.95-.82.86-.3,1.8-.69,2.88-1.21.24-.12.52-.18.79-.18M37.03,17.17c.15,0,.3-.03.45-.08,1.03-.35,2.09-.8,3.33-1.4.32-.16.56-.43.67-.76.1-.3.07-.62-.07-.89l-.52-1c-.21-.4-.62-.64-1.08-.64-.19,0-.38.04-.54.13-1.11.54-2.04.93-2.94,1.24-.61.21-.95.87-.77,1.49l.31,1.07c.14.49.6.83,1.16.83M39.83,11.65c-.31,0-.61.07-.9.2-.95.46-1.9.88-2.85,1.2-.48.16-.84.5-1.08.93-.23.43-.33.96-.21,1.48l.25,1.09c.12.53.47.95.96,1.19.28.14.6.21.93.21.26,0,.52-.04.78-.13,1.19-.41,2.33-.91,3.42-1.44,1.1-.54,1.52-1.78,1-2.73l-.53-.99c-.37-.67-1.07-1.03-1.78-1.03h0ZM37.03,16.94c-.43,0-.82-.26-.93-.66l-.31-1.08c-.14-.51.14-1.04.62-1.2,1-.34,1.98-.77,2.96-1.25.14-.07.29-.1.44-.1.35,0,.7.19.87.52l.52,1c.25.47.03,1.07-.49,1.32-1.06.51-2.16,1-3.3,1.39-.12.04-.25.06-.37.06h0Z"/>
          <path class="cls-10" d="M47.21,7.16c.5,0,.96.21,1.28.57l.74.84c.29.33.43.76.4,1.21-.03.5-.27.97-.66,1.31-.87.75-1.74,1.49-2.62,2.22-.35.29-.78.45-1.23.45-.52,0-.99-.22-1.3-.6l-.71-.87c-.6-.75-.47-1.84.29-2.49.86-.72,1.72-1.45,2.57-2.18.34-.3.78-.46,1.22-.46M45.2,13.2c.3,0,.59-.11.82-.3.87-.73,1.74-1.47,2.61-2.22.26-.22.42-.54.44-.88.02-.31-.08-.62-.28-.85l-.74-.84c-.22-.25-.55-.4-.89-.4-.3,0-.6.11-.83.31-.85.73-1.71,1.46-2.57,2.19-.52.44-.61,1.21-.19,1.71l.72.86c.22.27.55.42.9.42M47.21,6.93c-.48,0-.97.17-1.37.52-.85.73-1.7,1.46-2.57,2.18-.86.73-1,1.97-.32,2.82l.71.87c.37.46.91.69,1.48.69.48,0,.98-.17,1.38-.51.88-.73,1.75-1.48,2.62-2.23.88-.76,1-2.04.28-2.85l-.74-.84c-.38-.43-.92-.65-1.46-.65h0ZM45.2,12.97c-.27,0-.54-.11-.72-.33l-.72-.86c-.34-.41-.27-1.02.16-1.38.87-.72,1.72-1.45,2.58-2.19.2-.17.44-.25.67-.25.27,0,.53.11.71.32l.74.84c.35.4.29,1.02-.14,1.39-.87.75-1.74,1.48-2.61,2.22-.2.17-.44.25-.67.25h0Z"/>
          <path class="cls-10" d="M53.85.62c.45,0,.88.17,1.2.48l.81.78c.31.3.49.72.49,1.17,0,.5-.21,1-.59,1.37-.8.78-1.62,1.57-2.52,2.39-.36.33-.82.51-1.29.51s-.93-.19-1.25-.55l-.74-.84c-.63-.71-.54-1.83.18-2.5.86-.79,1.65-1.54,2.41-2.29.35-.34.81-.53,1.3-.53M52.01,6.76c.32,0,.63-.12.87-.34.9-.82,1.72-1.6,2.51-2.38.25-.24.39-.57.39-.91,0-.32-.12-.61-.34-.83l-.79-.79c-.22-.22-.52-.34-.84-.34s-.64.13-.88.36c-.76.75-1.56,1.5-2.43,2.3-.5.46-.55,1.23-.11,1.72l.75.83c.22.24.53.38.87.38M53.85.39c-.52,0-1.05.2-1.46.6-.79.77-1.59,1.53-2.41,2.28-.82.75-.92,2.02-.2,2.83l.74.84c.37.42.89.63,1.42.63.51,0,1.03-.19,1.45-.57.85-.78,1.7-1.58,2.53-2.4.84-.82.87-2.13.09-2.88l-.8-.78c-.38-.36-.87-.54-1.36-.54h0ZM52.01,6.53c-.26,0-.51-.1-.69-.3l-.75-.83c-.35-.39-.31-1.01.09-1.38.83-.76,1.64-1.52,2.43-2.31.2-.2.46-.29.72-.29s.49.09.67.27l.79.79c.38.37.36,1-.05,1.4-.82.81-1.66,1.6-2.5,2.37-.2.19-.46.28-.71.28h0Z"/>
          <path class="cls-10" d="M19.49,11.88c.28,0,.55.06.79.18,1.07.52,2.01.92,2.88,1.21.4.14.73.42.95.82.22.41.29.88.19,1.32l-.25,1.09c-.1.45-.4.82-.84,1.03-.25.12-.53.18-.83.18-.24,0-.48-.04-.71-.12-1.05-.36-2.13-.81-3.39-1.42-.49-.24-.85-.64-1.01-1.13-.14-.43-.1-.88.11-1.27l.53-.98c.31-.56.91-.91,1.57-.91M22.29,17.17c.55,0,1.02-.33,1.16-.82l.31-1.08c.18-.62-.16-1.28-.77-1.49-.9-.31-1.83-.7-2.94-1.24-.17-.08-.36-.13-.55-.13-.46,0-.87.25-1.08.64l-.52.99c-.14.27-.17.59-.07.89.11.32.35.6.67.76,1.24.6,2.3,1.05,3.33,1.4.15.05.3.08.45.08M19.49,11.65c-.71,0-1.41.36-1.78,1.03l-.53.99c-.52.95-.1,2.19,1,2.73,1.09.53,2.22,1.03,3.42,1.44.26.09.53.13.78.13.34,0,.66-.07.93-.21.49-.24.84-.66.96-1.19l.25-1.09c.12-.52.02-1.06-.21-1.48-.23-.43-.6-.77-1.08-.93-.95-.33-1.9-.74-2.85-1.2-.28-.14-.59-.2-.9-.2h0ZM22.29,16.94c-.12,0-.25-.02-.37-.06-1.15-.39-2.24-.87-3.3-1.39-.52-.26-.74-.85-.49-1.32l.52-1c.17-.33.51-.52.87-.52.15,0,.3.03.44.1.98.47,1.96.91,2.96,1.25.49.17.77.7.62,1.2l-.31,1.08c-.11.4-.5.66-.93.66h0Z"/>
          <path class="cls-10" d="M12.11,7.16c.44,0,.88.16,1.22.46.85.73,1.7,1.46,2.57,2.18.77.65.89,1.74.29,2.49l-.71.87c-.31.38-.78.6-1.3.6-.45,0-.88-.16-1.23-.45-.87-.73-1.75-1.47-2.62-2.22-.39-.34-.63-.81-.66-1.31-.03-.45.11-.88.41-1.21l.74-.84c.32-.36.79-.57,1.28-.57M14.13,13.2c.35,0,.68-.15.9-.42l.72-.86c.42-.51.34-1.27-.19-1.71-.86-.72-1.72-1.45-2.57-2.19-.23-.2-.52-.31-.83-.31-.34,0-.67.15-.89.4l-.74.84c-.2.23-.3.53-.28.85.02.33.18.65.44.88.87.75,1.74,1.49,2.61,2.22.23.2.52.3.82.3M12.11,6.93c-.54,0-1.08.22-1.46.65l-.74.84c-.72.81-.6,2.09.28,2.85.87.75,1.74,1.49,2.62,2.23.4.34.9.51,1.38.51.57,0,1.11-.23,1.48-.69l.71-.87c.68-.84.54-2.09-.32-2.82-.86-.72-1.72-1.45-2.57-2.18-.4-.35-.89-.52-1.37-.52h0ZM14.13,12.97c-.23,0-.47-.08-.67-.25-.87-.73-1.74-1.47-2.61-2.22-.42-.37-.49-.99-.14-1.39l.74-.84c.18-.21.45-.32.71-.32.24,0,.48.08.67.25.85.73,1.71,1.46,2.58,2.19.42.36.49.97.16,1.38l-.72.86c-.18.22-.45.33-.72.33h0Z"/>
          <path class="cls-10" d="M5.47.62c.48,0,.94.19,1.3.53.76.75,1.55,1.5,2.41,2.29.73.67.81,1.79.18,2.5l-.75.84c-.31.35-.76.55-1.25.55s-.93-.18-1.29-.51c-.9-.83-1.73-1.61-2.52-2.39-.37-.37-.59-.86-.59-1.37,0-.45.18-.87.49-1.17l.8-.78c.32-.31.75-.48,1.2-.48M7.31,6.76c.33,0,.65-.14.87-.38l.75-.83c.44-.49.39-1.26-.11-1.72-.87-.8-1.66-1.55-2.43-2.3-.24-.23-.55-.36-.88-.36-.32,0-.61.12-.84.34l-.79.79c-.22.22-.34.51-.34.83,0,.34.14.67.39.91.79.78,1.61,1.56,2.51,2.38.24.22.55.34.87.34M5.47.39c-.49,0-.99.18-1.36.54l-.8.78c-.78.75-.75,2.05.09,2.88.83.82,1.68,1.62,2.53,2.4.42.39.94.57,1.45.57.54,0,1.06-.21,1.42-.63l.74-.84c.72-.81.62-2.07-.2-2.83-.82-.75-1.62-1.51-2.41-2.28-.41-.4-.94-.6-1.46-.6h0ZM7.31,6.53c-.25,0-.5-.09-.71-.28-.85-.78-1.68-1.57-2.5-2.37-.41-.4-.43-1.03-.05-1.4l.79-.79c.18-.18.42-.27.67-.27s.52.1.72.29c.79.78,1.61,1.55,2.43,2.31.4.37.45.99.09,1.38l-.75.83c-.18.2-.43.3-.69.3h0Z"/>
          <path class="cls-10" d="M28.12,14.11c.07,0,.15,0,.22.02.57.09,1.18.14,1.8.14.35,0,.7-.01,1.06-.04.04,0,.07,0,.11,0,.17,0,.34.02.48.07.21.07.39.17.55.29.27.21.62.58.74,1.12l.24,1.09c.1.46-.01.93-.32,1.29-.17.2-.38.36-.6.47-.27.13-.54.21-.83.23-.48.04-.97.06-1.44.06-.85,0-1.69-.06-2.49-.19-.57-.09-1.1-.39-1.4-.81-.28-.4-.36-.87-.22-1.31l.34-1.07c.14-.42.43-.8.82-1.05.3-.2.61-.3.92-.3h0M30.14,18.3c.45,0,.92-.02,1.39-.06.35-.02.68-.18.91-.44.23-.26.32-.58.27-.9l-.17-1.11c-.05-.31-.21-.59-.46-.79-.22-.17-.48-.26-.76-.26h-.08c-.37.03-.75.05-1.11.05-.65,0-1.28-.05-1.87-.14-.06-.01-.12-.02-.19-.02-.23,0-.46.07-.67.22-.26.18-.44.44-.51.74l-.25,1.09c-.07.32,0,.65.2.93.2.26.5.44.88.51.77.12,1.58.18,2.41.18M28.12,13.87c-.37,0-.72.12-1.05.33-.39.25-.75.66-.92,1.18l-.34,1.07c-.17.51-.08,1.05.25,1.52.32.45.88.81,1.55.91.84.13,1.68.19,2.52.19.49,0,.97-.02,1.46-.06.33-.02.64-.12.91-.25.27-.13.5-.32.68-.53.36-.42.48-.96.37-1.49l-.24-1.09c-.12-.53-.44-.95-.82-1.25-.19-.15-.4-.25-.62-.33-.18-.06-.37-.09-.56-.09-.04,0-.08,0-.13,0-.35.03-.7.04-1.04.04-.59,0-1.18-.04-1.76-.13-.09-.01-.17-.02-.26-.02h0ZM30.14,18.07c-.79,0-1.58-.06-2.37-.18-.31-.05-.56-.2-.72-.42-.16-.21-.22-.48-.16-.73l.25-1.09c.06-.26.22-.47.41-.6.16-.11.35-.18.54-.18.05,0,.1,0,.14.01.63.1,1.27.15,1.91.15.38,0,.75-.02,1.13-.04.02,0,.04,0,.06,0,.23,0,.44.08.61.21.19.15.33.37.37.64l.17,1.11c.04.26-.04.51-.22.71-.17.2-.44.34-.75.36-.46.04-.92.05-1.37.05h0Z"/>
        </g>
        <g>
          <g>
            <path class="cls-24" d="M36.8,16.2c-1.6.33-3.22.65-4.88.83-.34.04-.67-.21-.73-.54-.06-.33.15-.62.48-.66,1.6-.18,3.18-.49,4.78-.82.33-.07.67.14.77.47.1.33-.09.64-.42.71Z"/>
            <path class="cls-25" d="M36.57,15.01c.29,0,.56.2.65.48.1.33-.09.64-.42.71-1.6.33-3.22.65-4.88.83-.02,0-.05,0-.07,0-.32,0-.6-.23-.66-.54-.06-.33.15-.62.48-.66,1.6-.18,3.18-.49,4.78-.82.04,0,.08-.01.12-.01M36.57,14.62h0c-.07,0-.14,0-.2.02-1.6.33-3.17.64-4.74.81-.27.03-.5.16-.65.37-.16.21-.21.47-.17.74.09.49.54.86,1.04.86.04,0,.08,0,.12,0,1.65-.18,3.26-.5,4.91-.84.27-.05.49-.21.62-.44.13-.23.17-.51.09-.77-.13-.44-.55-.76-1.02-.76h0Z"/>
          </g>
          <g>
            <path class="cls-26" d="M45.19,12.28c-1.58.83-3.18,1.62-4.79,2.4-.33.16-.72.03-.87-.28-.15-.31,0-.69.32-.85,1.6-.77,3.18-1.56,4.75-2.38.32-.17.71-.06.88.25.16.31.03.7-.29.86Z"/>
            <path class="cls-27" d="M44.93,11.09c.23,0,.45.12.56.33.16.31.03.7-.29.86-1.58.83-3.18,1.62-4.79,2.4-.1.05-.2.07-.3.07-.24,0-.46-.13-.57-.35-.15-.31,0-.69.32-.85,1.6-.77,3.18-1.56,4.75-2.38.1-.05.21-.08.32-.08M44.93,10.71c-.17,0-.34.04-.5.12-1.43.75-2.98,1.52-4.74,2.37-.52.25-.75.86-.51,1.37.17.35.52.57.92.57.16,0,.32-.04.47-.11,1.78-.86,3.35-1.64,4.8-2.4.25-.13.44-.35.52-.62.08-.26.06-.53-.07-.77-.17-.33-.52-.53-.9-.53h0Z"/>
          </g>
          <g>
            <path class="cls-15" d="M51.74,5.88c-1.32,1.21-2.66,2.39-4.01,3.55-.28.24-.69.22-.91-.05-.22-.26-.18-.67.09-.91,1.35-1.15,2.68-2.32,3.98-3.52.27-.24.67-.24.91.01.24.25.21.66-.06.91Z"/>
            <path class="cls-18" d="M51.34,4.77c.17,0,.33.06.45.19.24.25.21.66-.06.91-1.32,1.21-2.66,2.39-4.01,3.55-.13.11-.29.17-.44.17-.18,0-.35-.07-.47-.21-.22-.26-.18-.67.09-.91,1.35-1.15,2.68-2.32,3.98-3.52.13-.12.3-.18.46-.18M51.34,4.39c-.26,0-.52.1-.72.28-1.19,1.09-2.48,2.24-3.97,3.51-.44.38-.5,1.03-.14,1.45.19.22.47.35.76.35.25,0,.5-.09.69-.26,1.5-1.29,2.82-2.45,4.02-3.56.21-.19.33-.45.35-.74.01-.27-.08-.53-.26-.72-.19-.2-.45-.32-.74-.32h0Z"/>
          </g>
          <g>
            <path class="cls-17" d="M18.49,14.26c-1.54-.27-2.9-1.02-4.05-2.02-.24-.2-.25-.62-.04-.9.22-.29.56-.36.78-.17,1.07.93,2.31,1.6,3.66,1.84.28.04.44.36.36.7-.08.36-.4.6-.72.56Z"/>
            <path class="cls-19" d="M14.89,11.06c.1,0,.2.03.29.1,1.07.93,2.31,1.6,3.66,1.84.28.04.44.36.36.7-.07.33-.35.56-.64.56-.03,0-.05,0-.08,0-1.54-.27-2.9-1.02-4.05-2.02-.24-.2-.25-.62-.04-.9.13-.18.32-.28.49-.28M14.89,10.68h0c-.31,0-.6.16-.8.44-.34.46-.29,1.1.1,1.43,1.3,1.13,2.73,1.84,4.23,2.1.06,0,.1.01.15.01.48,0,.91-.36,1.02-.87.06-.3.01-.6-.15-.83-.13-.19-.32-.31-.54-.34-1.21-.21-2.38-.8-3.47-1.75-.16-.13-.34-.2-.54-.2h0Z"/>
          </g>
          <g>
            <path class="cls-20" d="M11.35,9.35c-1.63-.92-3-2.25-4.08-3.72-.23-.3-.16-.72.12-.91.29-.2.67-.12.89.16,1.01,1.38,2.24,2.56,3.69,3.38.3.16.42.54.27.85-.15.32-.55.43-.89.24Z"/>
            <path class="cls-29" d="M7.74,4.61c.2,0,.4.1.53.27,1.01,1.38,2.24,2.56,3.69,3.38.3.16.42.54.27.85-.1.21-.31.33-.54.33-.11,0-.23-.03-.35-.09-1.63-.92-3-2.25-4.08-3.72-.23-.3-.16-.72.12-.91.11-.07.23-.11.35-.11M7.74,4.22c-.2,0-.4.06-.57.18-.22.15-.37.39-.41.66-.05.28.03.57.2.8,1.21,1.65,2.62,2.94,4.2,3.82.17.09.36.14.54.14.39,0,.73-.21.89-.56.23-.5.03-1.1-.44-1.36-1.31-.74-2.51-1.84-3.56-3.27-.21-.27-.52-.43-.85-.43h0Z"/>
          </g>
          <g>
            <path class="cls-22" d="M27.39,16.87c-1.64.11-3.3-.13-4.78-.84-.15-.07-.26-.2-.3-.35-.04-.16-.02-.33.06-.48.08-.15.21-.26.34-.31.14-.06.29-.06.42,0,1.3.62,2.79.85,4.3.74.31-.03.56.22.57.56,0,.34-.26.64-.6.67Z"/>
            <path class="cls-30" d="M22.93,14.84c.07,0,.14.02.21.05,1.11.53,2.35.77,3.61.77.23,0,.46,0,.68-.02.02,0,.03,0,.05,0,.29,0,.52.24.52.56,0,.34-.26.64-.6.67-.25.02-.5.03-.75.03-1.39,0-2.77-.27-4.03-.86-.15-.07-.26-.2-.3-.35-.04-.16-.02-.33.06-.48.08-.15.21-.26.34-.31.07-.03.14-.04.22-.04M22.93,14.46c-.12,0-.24.02-.36.07-.22.08-.42.26-.54.49-.13.24-.16.51-.09.76.08.27.26.48.51.6,1.26.6,2.67.9,4.2.9.26,0,.52,0,.78-.03.55-.05.98-.52.97-1.07-.01-.53-.41-.94-.91-.94-.01,0-.07,0-.08,0-.21.01-.43.02-.65.02-1.27,0-2.43-.25-3.45-.73-.11-.06-.24-.08-.37-.08h0Z"/>
          </g>
        </g>
        <g>
          <path class="cls-10" d="M36.57,15.24c.19,0,.37.13.42.31.03.09.02.19-.03.27-.04.08-.12.13-.21.15-1.7.35-3.23.65-4.9.83-.2,0-.39-.15-.43-.35-.02-.09,0-.19.05-.26.05-.07.13-.11.22-.12,1.6-.18,3.18-.49,4.8-.82.02,0,.05,0,.08,0M36.57,15.01s-.08,0-.12.01c-1.59.33-3.18.64-4.78.82-.33.04-.54.33-.48.66.06.31.35.54.66.54.02,0,.05,0,.07,0,1.66-.18,3.28-.51,4.88-.83.33-.07.52-.39.42-.71-.09-.28-.36-.48-.65-.48h0Z"/>
          <path class="cls-10" d="M44.93,11.33c.15,0,.28.08.35.2.05.09.06.19.02.29-.03.11-.11.2-.22.26-1.44.76-3.01,1.54-4.78,2.39-.06.03-.13.05-.2.05-.16,0-.29-.08-.36-.21-.09-.19,0-.44.21-.54,1.77-.85,3.32-1.63,4.76-2.38.07-.03.14-.05.21-.05M44.93,11.09c-.11,0-.22.03-.32.08-1.57.82-3.15,1.61-4.75,2.38-.33.16-.47.54-.32.85.11.22.33.35.57.35.1,0,.2-.02.3-.07,1.61-.77,3.21-1.57,4.79-2.4.33-.17.46-.56.29-.86-.11-.21-.33-.33-.56-.33h0Z"/>
          <path class="cls-10" d="M51.34,5.01c.11,0,.21.04.28.12.07.07.1.17.1.27,0,.12-.06.22-.15.3-1.2,1.1-2.51,2.26-4.01,3.54-.08.07-.18.11-.29.11-.12,0-.22-.05-.29-.13-.14-.16-.11-.42.07-.57,1.49-1.28,2.79-2.43,3.98-3.52.08-.08.19-.12.3-.12M51.34,4.77c-.16,0-.33.06-.46.18-1.3,1.2-2.63,2.37-3.98,3.52-.28.24-.32.64-.09.91.12.14.29.21.47.21.15,0,.31-.05.44-.17,1.35-1.16,2.7-2.34,4.01-3.55.27-.25.3-.66.06-.91-.12-.13-.28-.19-.45-.19h0Z"/>
          <path class="cls-10" d="M14.89,11.3h0c.05,0,.1.02.13.05,1.18,1.02,2.45,1.65,3.78,1.89.05,0,.09.03.12.08.06.09.08.21.05.34-.05.21-.22.37-.44.37,0,0,0,0,0,0-1.39-.25-2.72-.91-3.94-1.97-.14-.12-.14-.39,0-.58.08-.11.2-.18.3-.18M14.89,11.06c-.17,0-.36.09-.49.28-.21.29-.2.7.04.9,1.15.99,2.51,1.75,4.05,2.02.03,0,.05,0,.08,0,.29,0,.57-.23.64-.56.07-.34-.09-.66-.36-.7-1.35-.24-2.59-.91-3.66-1.84-.08-.07-.18-.1-.29-.1h0Z"/>
          <path class="cls-10" d="M7.74,4.85c.13,0,.26.07.34.17,1.1,1.49,2.36,2.65,3.77,3.45.18.1.26.35.17.54-.06.12-.18.2-.33.2-.08,0-.16-.02-.23-.06-1.5-.84-2.84-2.07-4.01-3.66-.07-.1-.1-.21-.09-.33.02-.1.07-.19.15-.25.06-.04.14-.07.22-.07M7.74,4.61c-.12,0-.24.03-.35.11-.28.19-.35.61-.12.91,1.08,1.47,2.44,2.8,4.08,3.72.11.06.23.09.35.09.23,0,.44-.12.54-.33.14-.31.02-.69-.27-.85-1.44-.82-2.68-2-3.69-3.38-.13-.17-.33-.27-.53-.27h0Z"/>
          <path class="cls-10" d="M22.93,15.08s.07,0,.11.02c1.1.52,2.35.79,3.71.79.23,0,.47,0,.73-.03.16,0,.28.14.29.33,0,.22-.17.41-.39.43-.25.02-.49.03-.74.03-1.43,0-2.75-.28-3.92-.84-.09-.04-.15-.12-.18-.2-.03-.1-.01-.21.04-.31.05-.09.13-.17.23-.2.04-.02.09-.03.13-.03M22.93,14.84c-.07,0-.15.02-.22.04-.14.05-.26.16-.34.31-.08.15-.1.32-.06.48.04.15.15.28.3.35,1.25.6,2.64.86,4.03.86.25,0,.5,0,.75-.03.34-.03.61-.33.6-.67,0-.32-.24-.56-.52-.56-.01,0-.03,0-.05,0-.23.02-.46.02-.68.02-1.27,0-2.51-.24-3.61-.77-.07-.03-.14-.05-.21-.05h0Z"/>
        </g>
      </g>
      <g>
        <g>
          <path class="cls-28" d="M.41,16.7c-.27,3.88,1.51,7.24,3.95,7.5s4.65-2.68,4.91-6.56c.27-3.88-1.51-7.24-3.95-7.5S.68,12.82.41,16.7ZM1.63,16.83c.19-2.82,1.79-4.96,3.56-4.77s3.07,2.63,2.88,5.45-1.79,4.94-3.57,4.76c-1.77-.19-3.06-2.62-2.87-5.44Z"/>
          <path class="cls-21" d="M5.03,10.12c.1,0,.2,0,.3.02,2.45.26,4.22,3.62,3.95,7.5-.25,3.72-2.29,6.58-4.61,6.58-.1,0-.2,0-.3-.02-2.45-.26-4.22-3.62-3.95-7.5.25-3.72,2.29-6.58,4.61-6.58M4.72,22.28c1.69,0,3.17-2.07,3.35-4.77.19-2.82-1.09-5.26-2.88-5.45-.07,0-.14-.01-.22-.01-1.68,0-3.16,2.08-3.35,4.78-.19,2.82,1.09,5.25,2.87,5.44.07,0,.15.01.22.01M5.03,9.73C2.49,9.73.29,12.78.03,16.67c-.28,4.08,1.65,7.63,4.3,7.91.11.01.23.02.34.02,2.54,0,4.73-3.05,5-6.94.28-4.08-1.65-7.63-4.3-7.91-.11-.01-.23-.02-.34-.02h0ZM4.72,21.89c-.06,0-.12,0-.18,0-1.54-.16-2.7-2.46-2.52-5.03.17-2.44,1.49-4.42,2.96-4.42.06,0,.12,0,.18,0,1.55.16,2.71,2.47,2.53,5.04-.17,2.47-1.47,4.41-2.97,4.41h0Z"/>
        </g>
        <path class="cls-10" d="M5.03,10.36c.09,0,.18,0,.27.01,2.32.24,4,3.5,3.74,7.25-.24,3.57-2.17,6.36-4.38,6.36-.09,0-.18,0-.27-.01-2.32-.25-4-3.5-3.74-7.25.24-3.57,2.17-6.36,4.38-6.36M4.72,22.51c1.82,0,3.4-2.19,3.59-4.99.2-2.94-1.18-5.5-3.09-5.7-.08,0-.16-.01-.24-.01-1.82,0-3.39,2.2-3.58,5-.2,2.94,1.18,5.49,3.08,5.69.08,0,.16.01.24.01M5.03,10.12c-2.32,0-4.36,2.85-4.61,6.58-.27,3.88,1.51,7.24,3.95,7.5.1.01.2.02.3.02,2.32,0,4.36-2.86,4.61-6.58.27-3.88-1.51-7.24-3.95-7.5-.1-.01-.2-.02-.3-.02h0ZM4.72,22.28c-.07,0-.15,0-.22-.01-1.77-.19-3.06-2.62-2.87-5.44.18-2.7,1.66-4.78,3.35-4.78.07,0,.14,0,.22.01,1.78.19,3.07,2.63,2.88,5.45-.18,2.7-1.66,4.77-3.35,4.77h0Z"/>
        <g>
          <path class="cls-31" d="M4.59,4.7s.55,4.74-.06,7.94c0,0,.93.17,1.33-.13s.36-5.86-.03-6.99-1.24-.83-1.24-.83Z"/>
          <path class="cls-23" d="M4.85,4.66c.28,0,.73.13.99.86.39,1.13.43,6.69.03,6.99-.18.14-.48.18-.75.18-.31,0-.58-.05-.58-.05.61-3.21.06-7.94.06-7.94,0,0,.1-.04.25-.04M4.85,4.27c-.2,0-.35.05-.38.06-.17.06-.28.23-.26.41,0,.05.54,4.72-.05,7.83-.02.1,0,.21.06.29.06.08.15.14.25.16.01,0,.31.06.65.06.43,0,.76-.09.98-.25.69-.52.43-6.46.1-7.43-.35-1.02-1.06-1.12-1.35-1.12h0Z"/>
        </g>
        <path class="cls-10" d="M4.85,4.9c.34,0,.6.25.76.71.39,1.12.38,6.3.11,6.72-.11.08-.33.13-.61.13-.11,0-.22,0-.3-.02.48-2.82.14-6.58.04-7.54M4.85,4.66c-.15,0-.25.04-.25.04,0,0,.55,4.74-.06,7.94,0,0,.27.05.58.05.27,0,.56-.04.75-.18.4-.3.36-5.86-.03-6.99-.26-.74-.71-.86-.99-.86h0Z"/>
      </g>
    </g>
  </g>
</svg>