<?xml version="1.0" encoding="UTF-8"?>
<svg xmlns="http://www.w3.org/2000/svg" xmlns:xlink="http://www.w3.org/1999/xlink" viewBox="0 0 55.2 44.36">
  <defs>
    <style>
      .cls-1 {
        fill: #fffbff;
      }

      .cls-1, .cls-2, .cls-3 {
        mix-blend-mode: overlay;
      }

      .cls-4 {
        fill: url(#linear-gradient-8);
      }

      .cls-5 {
        fill: url(#linear-gradient-7);
      }

      .cls-6 {
        fill: url(#linear-gradient-5);
      }

      .cls-7 {
        fill: url(#linear-gradient-6);
      }

      .cls-8 {
        fill: url(#linear-gradient-9);
      }

      .cls-9 {
        fill: url(#linear-gradient-4);
      }

      .cls-10 {
        fill: url(#linear-gradient-3);
      }

      .cls-11 {
        fill: url(#linear-gradient-2);
      }

      .cls-12 {
        fill: #ffc7e5;
      }

      .cls-13 {
        fill: url(#linear-gradient);
      }

      .cls-14 {
        isolation: isolate;
      }

      .cls-15 {
        fill: #fff;
      }

      .cls-2 {
        fill: url(#linear-gradient-50);
      }

      .cls-16 {
        fill: url(#linear-gradient-43);
      }

      .cls-17 {
        fill: url(#linear-gradient-40);
      }

      .cls-18 {
        fill: url(#linear-gradient-41);
      }

      .cls-19 {
        fill: url(#linear-gradient-42);
      }

      .cls-20 {
        fill: url(#linear-gradient-49);
      }

      .cls-21 {
        fill: url(#linear-gradient-48);
      }

      .cls-22 {
        fill: url(#linear-gradient-45);
      }

      .cls-23 {
        fill: url(#linear-gradient-47);
      }

      .cls-24 {
        fill: url(#linear-gradient-44);
      }

      .cls-25 {
        fill: url(#linear-gradient-46);
      }

      .cls-26 {
        fill: url(#linear-gradient-10);
      }

      .cls-27 {
        fill: url(#linear-gradient-11);
      }

      .cls-28 {
        fill: url(#linear-gradient-12);
      }

      .cls-29 {
        fill: url(#linear-gradient-13);
      }

      .cls-30 {
        fill: url(#linear-gradient-19);
      }

      .cls-31 {
        fill: url(#linear-gradient-14);
      }

      .cls-32 {
        fill: url(#linear-gradient-21);
      }

      .cls-33 {
        fill: url(#linear-gradient-20);
      }

      .cls-34 {
        fill: url(#linear-gradient-22);
      }

      .cls-35 {
        fill: url(#linear-gradient-23);
      }

      .cls-36 {
        fill: url(#linear-gradient-28);
      }

      .cls-37 {
        fill: url(#linear-gradient-25);
      }

      .cls-38 {
        fill: url(#linear-gradient-32);
      }

      .cls-39 {
        fill: url(#linear-gradient-31);
      }

      .cls-40 {
        fill: url(#linear-gradient-33);
      }

      .cls-41 {
        fill: url(#linear-gradient-30);
      }

      .cls-42 {
        fill: url(#linear-gradient-15);
      }

      .cls-43 {
        fill: url(#linear-gradient-16);
      }

      .cls-44 {
        fill: url(#linear-gradient-17);
      }

      .cls-45 {
        fill: url(#linear-gradient-18);
      }

      .cls-46 {
        fill: url(#linear-gradient-35);
      }

      .cls-47 {
        fill: url(#linear-gradient-34);
      }

      .cls-48 {
        fill: url(#linear-gradient-36);
      }

      .cls-49 {
        fill: url(#linear-gradient-38);
      }

      .cls-50 {
        fill: url(#linear-gradient-27);
      }

      .cls-51 {
        fill: url(#linear-gradient-24);
      }

      .cls-52 {
        fill: url(#linear-gradient-26);
      }

      .cls-53 {
        fill: url(#linear-gradient-29);
      }

      .cls-54 {
        fill: url(#linear-gradient-37);
      }

      .cls-55 {
        fill: url(#linear-gradient-39);
      }
    </style>
    <linearGradient id="linear-gradient" x1="19.91" y1="20.53" x2="27.53" y2="20.53" gradientUnits="userSpaceOnUse">
      <stop offset=".06" stop-color="#d7c9ed"/>
      <stop offset=".44" stop-color="#fff"/>
      <stop offset="1" stop-color="#d7c9ed"/>
    </linearGradient>
    <linearGradient id="linear-gradient-2" x1="19.52" y1="20.53" x2="27.92" y2="20.53" gradientUnits="userSpaceOnUse">
      <stop offset="0" stop-color="#c19ffa"/>
      <stop offset=".04" stop-color="#d0b8f9"/>
      <stop offset=".58" stop-color="#cab5e8"/>
      <stop offset="1" stop-color="#c8b5e3"/>
    </linearGradient>
    <linearGradient id="linear-gradient-3" x1="27.68" y1="16.19" x2="35.05" y2="16.19" xlink:href="#linear-gradient"/>
    <linearGradient id="linear-gradient-4" x1="27.29" y1="16.19" x2="35.44" y2="16.19" xlink:href="#linear-gradient-2"/>
    <linearGradient id="linear-gradient-5" x1="34.47" y1="9.7" x2="41.75" y2="9.7" xlink:href="#linear-gradient"/>
    <linearGradient id="linear-gradient-6" x1="34.09" y1="9.7" x2="42.14" y2="9.7" xlink:href="#linear-gradient-2"/>
    <linearGradient id="linear-gradient-7" x1=".39" y1="8.37" x2="5.68" y2="8.37" xlink:href="#linear-gradient"/>
    <linearGradient id="linear-gradient-8" x1="0" y1="8.37" x2="6.07" y2="8.37" xlink:href="#linear-gradient-2"/>
    <linearGradient id="linear-gradient-9" x1="3.65" y1="17.04" x2="10.62" y2="17.04" xlink:href="#linear-gradient"/>
    <linearGradient id="linear-gradient-10" x1="3.26" y1="17.04" x2="11.01" y2="17.04" xlink:href="#linear-gradient-2"/>
    <linearGradient id="linear-gradient-11" x1="11.24" y1="20.43" x2="19.01" y2="20.43" xlink:href="#linear-gradient"/>
    <linearGradient id="linear-gradient-12" x1="10.85" y1="20.43" x2="19.39" y2="20.43" xlink:href="#linear-gradient-2"/>
    <linearGradient id="linear-gradient-13" x1="488.76" y1="-372.58" x2="492.53" y2="-372.58" gradientTransform="translate(-551.07 148.72) rotate(21.54) scale(1 .9)" xlink:href="#linear-gradient"/>
    <linearGradient id="linear-gradient-14" x1="29.26" y1="19.66" x2="26.27" y2="17.67" xlink:href="#linear-gradient-2"/>
    <linearGradient id="linear-gradient-15" x1="498" y1="-336.46" x2="501.51" y2="-336.46" gradientTransform="translate(-558.06 120.38) rotate(23.69)" xlink:href="#linear-gradient"/>
    <linearGradient id="linear-gradient-16" x1="35.55" y1="13.88" x2="33.97" y2="12.25" xlink:href="#linear-gradient-2"/>
    <linearGradient id="linear-gradient-17" x1="501.68" y1="-345.3" x2="505.18" y2="-345.3" gradientTransform="translate(-558.06 120.38) rotate(23.69)" xlink:href="#linear-gradient"/>
    <linearGradient id="linear-gradient-18" x1="42.47" y1="7.26" x2="40.89" y2="5.63" xlink:href="#linear-gradient-2"/>
    <linearGradient id="linear-gradient-19" x1="692.05" y1="-364.1" x2="697.86" y2="-364.1" gradientTransform="translate(-757.4 -172.95) rotate(41.34)" xlink:href="#linear-gradient"/>
    <linearGradient id="linear-gradient-20" x1="7.24" y1="15.14" x2="2.51" y2="10.26" xlink:href="#linear-gradient-2"/>
    <linearGradient id="linear-gradient-21" x1="773.55" y1="-611.82" x2="779.36" y2="-611.82" gradientTransform="translate(-914.63 -364.08) rotate(60.09)" xlink:href="#linear-gradient"/>
    <linearGradient id="linear-gradient-22" x1="4.87" y1="5.99" x2=".86" y2="1.85" xlink:href="#linear-gradient-2"/>
    <linearGradient id="linear-gradient-23" x1="657.56" y1="-274.75" x2="664.03" y2="-274.75" gradientTransform="translate(-688.14 -134.65) rotate(34.99)" xlink:href="#linear-gradient"/>
    <linearGradient id="linear-gradient-24" x1="13.21" y1="21.62" x2="8.36" y2="16.62" xlink:href="#linear-gradient-2"/>
    <linearGradient id="linear-gradient-25" x1="709.42" y1="-367.69" x2="713.24" y2="-367.69" gradientTransform="translate(-757.4 -172.95) rotate(41.34)" xlink:href="#linear-gradient"/>
    <linearGradient id="linear-gradient-26" x1="21.08" y1="22.41" x2="17.99" y2="19.23" xlink:href="#linear-gradient-2"/>
    <linearGradient id="linear-gradient-27" x1="46.01" y1="28.36" x2="50.46" y2="28.36" xlink:href="#linear-gradient"/>
    <linearGradient id="linear-gradient-28" x1="45.63" y1="28.36" x2="50.85" y2="28.36" xlink:href="#linear-gradient-2"/>
    <linearGradient id="linear-gradient-29" x1="46.23" y1="20.71" x2="50.68" y2="20.71" xlink:href="#linear-gradient"/>
    <linearGradient id="linear-gradient-30" x1="45.84" y1="20.71" x2="51.07" y2="20.71" xlink:href="#linear-gradient-2"/>
    <linearGradient id="linear-gradient-31" x1="46.13" y1="13.12" x2="50.58" y2="13.12" xlink:href="#linear-gradient"/>
    <linearGradient id="linear-gradient-32" x1="45.74" y1="13.12" x2="50.96" y2="13.12" xlink:href="#linear-gradient-2"/>
    <linearGradient id="linear-gradient-33" x1="46.03" y1="5.93" x2="50.48" y2="5.93" xlink:href="#linear-gradient"/>
    <linearGradient id="linear-gradient-34" x1="45.64" y1="5.93" x2="50.86" y2="5.93" xlink:href="#linear-gradient-2"/>
    <linearGradient id="linear-gradient-35" x1="47.7" y1="32.48" x2="48.75" y2="32.48" xlink:href="#linear-gradient"/>
    <linearGradient id="linear-gradient-36" x1="47.31" y1="32.48" x2="49.14" y2="32.48" xlink:href="#linear-gradient-2"/>
    <linearGradient id="linear-gradient-37" x1="47.78" y1="9.43" x2="48.83" y2="9.43" xlink:href="#linear-gradient"/>
    <linearGradient id="linear-gradient-38" x1="47.39" y1="9.43" x2="49.22" y2="9.43" xlink:href="#linear-gradient-2"/>
    <linearGradient id="linear-gradient-39" x1="47.78" y1="16.86" x2="48.84" y2="16.86" xlink:href="#linear-gradient"/>
    <linearGradient id="linear-gradient-40" x1="47.4" y1="16.86" x2="49.22" y2="16.86" xlink:href="#linear-gradient-2"/>
    <linearGradient id="linear-gradient-41" x1="47.78" y1="24.42" x2="48.84" y2="24.42" xlink:href="#linear-gradient"/>
    <linearGradient id="linear-gradient-42" x1="47.4" y1="24.42" x2="49.22" y2="24.42" xlink:href="#linear-gradient-2"/>
    <linearGradient id="linear-gradient-43" x1="47.78" y1="2.69" x2="48.83" y2="2.69" xlink:href="#linear-gradient"/>
    <linearGradient id="linear-gradient-44" x1="47.39" y1="2.69" x2="49.22" y2="2.69" xlink:href="#linear-gradient-2"/>
    <linearGradient id="linear-gradient-45" x1="47.4" y1="34.61" x2="49.05" y2="34.61" xlink:href="#linear-gradient"/>
    <linearGradient id="linear-gradient-46" x1="47.01" y1="34.61" x2="49.43" y2="34.61" xlink:href="#linear-gradient-2"/>
    <linearGradient id="linear-gradient-47" x1="41.66" y1="38.94" x2="54.81" y2="38.94" xlink:href="#linear-gradient"/>
    <linearGradient id="linear-gradient-48" x1="41.27" y1="38.94" x2="55.2" y2="38.94" xlink:href="#linear-gradient-2"/>
    <linearGradient id="linear-gradient-49" x1="42.78" y1="38.94" x2="53.61" y2="38.94" xlink:href="#linear-gradient-2"/>
    <linearGradient id="linear-gradient-50" x1="279.03" y1="240.22" x2="278.11" y2="228.46" gradientTransform="translate(332.18 -190.54) rotate(-178.66) scale(1 -1)" gradientUnits="userSpaceOnUse">
      <stop offset="0" stop-color="#000" stop-opacity="0"/>
      <stop offset="1" stop-color="#000"/>
    </linearGradient>
  </defs>
  <g class="cls-14">
    <g id="Layer_2" data-name="Layer 2">
      <g id="Layer_1-2" data-name="Layer 1">
        <g>
          <g>
            <g>
              <path class="cls-13" d="M27.31,19.39l-.53-.99c-.52-.95-1.73-1.29-2.68-.83-.95.46-1.9.88-2.85,1.2-.48.16-.84.5-1.08.93-.23.43-.33.96-.21,1.48l.25,1.09c.12.53.47.95.96,1.19.49.24,1.12.28,1.72.08,1.19-.41,2.33-.91,3.42-1.44,1.1-.54,1.52-1.78,1-2.73ZM24.54,18.48c.48-.23,1.07-.05,1.31.41l.52,1c.25.47.03,1.07-.49,1.32-1.06.51-2.16,1-3.3,1.39-.57.2-1.16-.08-1.3-.59l-.31-1.08c-.14-.51.14-1.04.62-1.2,1-.34,1.98-.77,2.96-1.25Z"/>
              <path class="cls-11" d="M25,17.37c.71,0,1.41.36,1.78,1.03l.53.99c.52.95.1,2.19-1,2.73-1.09.53-2.22,1.03-3.42,1.44-.26.09-.53.13-.78.13-.34,0-.66-.07-.93-.21-.49-.24-.84-.66-.96-1.19l-.25-1.09c-.12-.52-.02-1.06.21-1.48.23-.43.6-.77,1.08-.93.95-.33,1.9-.74,2.85-1.2.28-.14.59-.2.9-.2M22.2,22.66c.12,0,.25-.02.37-.06,1.15-.39,2.24-.87,3.3-1.39.52-.26.74-.85.49-1.32l-.52-1c-.17-.33-.51-.52-.87-.52-.15,0-.3.03-.44.1-.98.47-1.96.91-2.96,1.25-.49.17-.77.7-.62,1.2l.31,1.08c.11.4.5.66.93.66M25,16.99c-.37,0-.74.08-1.07.24-1.05.51-1.97.9-2.81,1.18-.55.19-1,.57-1.29,1.11-.3.55-.39,1.17-.25,1.76l.25,1.09c.15.64.56,1.15,1.17,1.45.33.16.71.25,1.1.25.31,0,.61-.05.91-.15,1.08-.37,2.18-.83,3.46-1.45.65-.32,1.12-.85,1.33-1.5.19-.6.13-1.22-.16-1.76l-.53-.98c-.42-.76-1.23-1.23-2.12-1.23h0ZM22.2,22.28c-.27,0-.5-.15-.56-.37l-.32-1.08c-.09-.3.08-.63.38-.73.92-.31,1.87-.72,3-1.27.09-.04.18-.06.27-.06.22,0,.43.12.53.31l.51.99c.06.12.07.27.03.41-.05.17-.18.31-.35.39-1.21.59-2.25,1.02-3.26,1.37-.08.03-.16.04-.24.04h0Z"/>
            </g>
            <g>
              <path class="cls-10" d="M34.58,14.14l-.74-.84c-.72-.81-1.99-.86-2.83-.13-.85.73-1.7,1.46-2.57,2.18-.86.73-1,1.97-.32,2.82l.71.87c.68.84,1.98.92,2.86.18.88-.73,1.75-1.48,2.62-2.23.88-.76,1-2.04.28-2.85ZM31.66,13.93c.42-.36,1.04-.33,1.39.07l.74.84c.35.4.29,1.02-.14,1.39-.87.75-1.74,1.48-2.61,2.22-.43.36-1.06.32-1.39-.08l-.72-.86c-.34-.41-.27-1.02.16-1.38.87-.72,1.72-1.45,2.58-2.19Z"/>
              <path class="cls-9" d="M32.38,12.65c.54,0,1.08.22,1.46.65l.74.84c.72.81.6,2.09-.28,2.85-.87.75-1.74,1.49-2.62,2.23-.4.34-.9.51-1.38.51-.57,0-1.11-.23-1.48-.69l-.71-.87c-.68-.84-.54-2.09.32-2.82.86-.72,1.72-1.45,2.57-2.18.4-.35.89-.52,1.37-.52M30.37,18.69c.23,0,.47-.08.67-.25.87-.73,1.74-1.47,2.61-2.22.42-.37.49-.99.14-1.39l-.74-.84c-.18-.21-.45-.32-.71-.32-.24,0-.48.08-.67.25-.85.73-1.71,1.46-2.58,2.19-.42.36-.49.97-.16,1.38l.72.86c.18.22.45.33.72.33M32.38,12.27c-.59,0-1.17.22-1.63.61-.85.73-1.7,1.45-2.56,2.18-1.03.87-1.19,2.34-.38,3.36l.71.87c.42.53,1.07.83,1.78.83.59,0,1.17-.21,1.63-.6.88-.73,1.75-1.48,2.62-2.23.51-.44.83-1.08.88-1.74.04-.62-.16-1.21-.56-1.66l-.74-.84c-.44-.49-1.08-.78-1.75-.78h0ZM30.37,18.31c-.17,0-.32-.07-.43-.19l-.72-.86c-.2-.24-.15-.62.11-.84.87-.73,1.73-1.46,2.58-2.19.12-.1.27-.16.42-.16.17,0,.32.07.42.19l.74.84c.09.11.14.25.13.4-.01.17-.1.33-.23.45-.86.74-1.73,1.48-2.6,2.21-.12.1-.27.16-.42.16h0Z"/>
            </g>
            <g>
              <path class="cls-6" d="M41.19,7.44l-.8-.78c-.78-.75-2.03-.72-2.83.05-.79.77-1.59,1.53-2.41,2.28-.82.75-.92,2.02-.2,2.83l.74.84c.72.81,2.01.84,2.87.05.85-.78,1.7-1.58,2.53-2.4.84-.82.87-2.13.09-2.88ZM38.27,7.43c.39-.38,1.01-.39,1.38-.02l.79.79c.38.37.36,1-.05,1.4-.82.81-1.66,1.6-2.5,2.37-.42.38-1.04.37-1.4-.02l-.75-.83c-.35-.39-.31-1.01.09-1.38.83-.76,1.64-1.52,2.43-2.31Z"/>
              <path class="cls-7" d="M39.02,6.11c.49,0,.99.18,1.36.54l.8.78c.78.75.75,2.05-.09,2.88-.83.82-1.68,1.62-2.53,2.4-.42.39-.94.57-1.45.57-.54,0-1.06-.21-1.42-.63l-.74-.84c-.72-.81-.62-2.07.2-2.83.82-.75,1.62-1.51,2.41-2.28.41-.4.94-.6,1.46-.6M37.18,12.25c.25,0,.5-.09.71-.28.85-.78,1.68-1.57,2.5-2.37.41-.4.43-1.03.05-1.4l-.79-.79c-.18-.18-.42-.27-.67-.27s-.52.1-.72.29c-.79.78-1.61,1.55-2.43,2.31-.4.37-.45.99-.09,1.38l.75.83c.18.2.43.3.69.3M39.02,5.73c-.65,0-1.26.25-1.73.71-.75.74-1.54,1.49-2.4,2.27-.98.9-1.08,2.41-.23,3.37l.75.84c.43.48,1.05.76,1.71.76.63,0,1.23-.24,1.71-.68.9-.83,1.73-1.62,2.54-2.41.49-.48.77-1.14.77-1.81,0-.62-.24-1.2-.68-1.62l-.8-.78c-.44-.42-1.02-.65-1.63-.65h0ZM37.18,11.87c-.16,0-.3-.06-.41-.17l-.75-.83c-.21-.23-.18-.61.07-.84.87-.8,1.67-1.56,2.44-2.31.12-.12.28-.18.44-.18.15,0,.29.06.4.16l.79.79c.1.1.16.24.15.38,0,.17-.07.34-.2.47-.79.78-1.6,1.55-2.5,2.37-.13.12-.28.18-.44.18h0Z"/>
            </g>
            <g>
              <path class="cls-5" d="M3.12,12.16l1.07-.35c.51-.17.92-.53,1.18-.92.26-.4.38-.86.3-1.33-.16-.94-.23-1.94-.23-2.98,0-1.03-.82-1.96-1.91-2.03l-1.12-.06c-1.08-.07-2.02.85-2.02,2.1,0,1.23.08,2.5.3,3.8.11.65.47,1.21.92,1.52.46.32,1,.41,1.52.24ZM4.67,9.73c.08.49-.24.98-.75,1.11l-1.09.26c-.51.13-1.06-.26-1.15-.87-.21-1.22-.28-2.44-.28-3.64,0-.59.44-1.05.97-1.03l1.12.03c.53.02.94.47.94.99,0,1.07.07,2.13.24,3.14Z"/>
              <path class="cls-4" d="M2.3,4.49s.07,0,.11,0l1.12.06c1.08.07,1.9,1,1.91,2.03,0,1.03.07,2.03.23,2.98.08.47-.04.93-.3,1.33-.25.4-.66.75-1.18.92l-1.07.35c-.17.06-.35.08-.52.08-.35,0-.69-.11-1-.32-.45-.32-.81-.87-.92-1.52-.22-1.29-.3-2.57-.3-3.8,0-1.21.88-2.11,1.91-2.11M2.63,11.12c.07,0,.13,0,.2-.02l1.09-.26c.51-.13.83-.62.75-1.11-.17-1.01-.24-2.07-.24-3.14,0-.52-.42-.97-.94-.99l-1.12-.03s-.02,0-.03,0c-.52,0-.94.45-.94,1.03,0,1.19.08,2.41.28,3.64.09.53.51.89.95.89M2.3,4.1c-.58,0-1.14.24-1.57.66C.26,5.24,0,5.89,0,6.6c0,1.41.1,2.67.3,3.86.12.72.52,1.39,1.08,1.78.37.26.79.39,1.22.39.22,0,.43-.03.64-.1l1.06-.35c.56-.19,1.05-.57,1.38-1.08.32-.5.44-1.06.35-1.6-.15-.88-.22-1.83-.22-2.91,0-1.26-1.02-2.34-2.27-2.42l-1.12-.06s-.09,0-.13,0h0ZM2.63,10.74c-.23,0-.51-.2-.57-.57-.19-1.1-.28-2.26-.28-3.57,0-.19.07-.36.19-.49.1-.1.23-.16.37-.16l1.14.03c.31.01.57.28.57.6,0,1.18.08,2.23.25,3.2.05.3-.16.59-.47.67l-1.09.26s-.07.01-.11.01h0Z"/>
            </g>
            <g>
              <path class="cls-8" d="M9.79,19.82l.55-.98c.27-.48.31-.99.25-1.47-.07-.47-.27-.87-.6-1.15-.66-.56-1.2-1.19-1.64-1.93-.11-.18-.25-.35-.43-.47-.18-.13-.37-.24-.6-.31-.45-.14-.97-.19-1.49,0l-1.05.38c-.5.18-.9.59-1.05,1.13-.07.27-.11.58-.06.89.05.31.15.64.34.95.72,1.21,1.66,2.33,2.74,3.23.54.46,1.2.64,1.76.57.56-.06,1.03-.38,1.29-.85ZM9.35,17c.17.16.29.36.32.6.03.24-.02.5-.17.71l-.64.92c-.15.22-.39.35-.65.36-.26.01-.57-.06-.81-.28-.99-.83-1.86-1.85-2.52-2.97-.32-.56-.16-1.21.33-1.43l1.02-.48c.48-.21,1.04-.05,1.27.36.49.83,1.12,1.57,1.86,2.19Z"/>
              <path class="cls-26" d="M6.55,13.39c.27,0,.53.05.77.12.23.07.42.18.6.31.18.12.32.29.43.47.44.74.98,1.38,1.64,1.93.33.28.53.68.6,1.15.07.47.02.99-.25,1.47l-.55.98c-.26.47-.73.79-1.29.85-.08,0-.15.01-.23.01-.5,0-1.06-.19-1.53-.59-1.08-.9-2.02-2.02-2.74-3.23-.19-.3-.28-.63-.34-.95-.05-.31-.01-.62.06-.89.15-.54.55-.95,1.05-1.13l1.05-.38c.24-.09.48-.12.72-.12M8.14,19.6s.04,0,.06,0c.27-.02.5-.14.65-.36l.64-.92c.15-.22.2-.47.17-.71-.02-.24-.14-.44-.32-.6-.74-.62-1.36-1.36-1.86-2.19-.16-.28-.49-.45-.83-.45-.15,0-.3.03-.44.09l-1.02.48c-.49.22-.65.87-.33,1.43.66,1.12,1.53,2.14,2.52,2.97.22.2.5.28.75.28M6.55,13.01c-.29,0-.58.05-.85.15l-1.06.38c-.63.23-1.11.75-1.29,1.39-.1.35-.12.72-.07,1.05.08.43.2.79.39,1.09.73,1.24,1.71,2.39,2.82,3.32.52.44,1.15.68,1.78.68.09,0,.19,0,.28-.02.66-.07,1.25-.46,1.58-1.04l.55-.97c.28-.5.38-1.09.29-1.71-.09-.59-.35-1.06-.73-1.39-.63-.53-1.14-1.13-1.56-1.83-.11-.17-.28-.41-.55-.59-.22-.16-.46-.28-.7-.36-.3-.09-.6-.14-.89-.14h0ZM8.14,19.21c-.11,0-.32-.02-.49-.18-.97-.81-1.81-1.81-2.45-2.88-.11-.2-.14-.42-.08-.6.03-.09.09-.21.24-.27l1.02-.48c.08-.04.18-.06.27-.06.21,0,.41.1.5.25.52.87,1.17,1.64,1.95,2.29.1.1.17.21.18.35.02.17-.02.33-.11.46l-.64.92c-.08.12-.21.19-.36.2h-.04Z"/>
            </g>
            <g>
              <path class="cls-27" d="M19.01,21.36l-.05-1.12c-.02-.54-.27-1.01-.59-1.37-.16-.18-.35-.32-.55-.43-.2-.11-.42-.17-.66-.2-.94-.09-1.87-.27-2.75-.58-.44-.15-.9-.11-1.34.08-.43.18-.85.52-1.11,1l-.52.99c-.25.48-.26,1.02-.02,1.54.24.5.73.95,1.37,1.17,1.27.43,2.58.69,3.89.82.33.04.65,0,.94-.09.29-.08.55-.23.76-.41.43-.35.64-.87.62-1.4ZM17.06,19.24c.25.03.47.15.63.32.16.18.26.43.25.69l-.03,1.12c0,.26-.13.5-.34.66-.21.17-.49.26-.8.23-1.24-.12-2.48-.36-3.67-.77-.29-.11-.52-.3-.64-.53-.12-.24-.14-.51-.03-.75l.44-1.03c.1-.24.3-.42.51-.52.22-.1.47-.13.7-.04.95.33,1.96.53,2.98.62Z"/>
              <path class="cls-28" d="M13.85,17.58c.18,0,.37.03.55.09.88.3,1.81.49,2.75.58.24.03.46.09.66.2.2.11.39.25.55.43.32.36.57.83.59,1.37l.05,1.12c.02.54-.19,1.05-.62,1.4-.21.18-.47.33-.76.41-.22.07-.46.11-.7.11-.08,0-.16,0-.24-.01-1.32-.13-2.63-.39-3.89-.82-.64-.22-1.13-.66-1.37-1.17-.24-.51-.24-1.06.02-1.54l.52-.99c.25-.48.67-.82,1.11-1,.26-.11.53-.17.8-.17M16.9,22.27c.26,0,.5-.09.67-.23.21-.16.33-.4.34-.66l.03-1.12c0-.26-.09-.51-.25-.69-.16-.18-.38-.3-.63-.32-1.01-.1-2.02-.3-2.98-.62-.09-.03-.19-.05-.28-.05-.14,0-.28.03-.42.09-.22.1-.41.28-.51.52l-.44,1.03c-.1.24-.09.51.03.75.12.24.35.43.64.53,1.19.41,2.42.65,3.67.77.04,0,.08,0,.12,0M13.85,17.19c-.31,0-.63.07-.95.21-.56.24-1.02.65-1.29,1.18l-.52.99c-.31.58-.32,1.25-.02,1.88.3.63.88,1.13,1.6,1.37,1.24.42,2.58.7,3.98.84.09.01.19.02.28.02.27,0,.54-.04.81-.12.32-.09.63-.26.9-.48.51-.42.79-1.05.76-1.72l-.05-1.12c-.03-.58-.26-1.14-.69-1.61-.19-.2-.4-.37-.65-.51-.25-.13-.51-.21-.8-.24-.97-.09-1.86-.28-2.67-.56-.22-.07-.44-.11-.67-.11h0ZM16.9,21.89s-.05,0-.08,0c-1.28-.12-2.48-.37-3.58-.75-.19-.07-.35-.2-.42-.34-.05-.1-.1-.25-.02-.42l.44-1.03c.06-.14.17-.25.31-.32.09-.04.18-.06.26-.06.05,0,.1,0,.15.03.95.33,1.98.54,3.07.65.14.02.27.08.38.2.1.12.16.27.16.42l-.03,1.12c0,.18-.11.3-.19.37-.12.1-.27.15-.43.15h0Z"/>
            </g>
          </g>
          <g>
            <path class="cls-15" d="M25,17.61c.66,0,1.27.35,1.57.91l.54.99c.21.38.25.83.11,1.27-.16.49-.51.89-1.01,1.13-1.26.61-2.34,1.06-3.39,1.42-.23.08-.47.12-.71.12-.3,0-.58-.06-.83-.18-.44-.21-.73-.58-.84-1.03l-.25-1.09c-.1-.44-.03-.91.19-1.32.22-.4.55-.69.95-.82.86-.3,1.8-.69,2.88-1.21.24-.12.52-.18.79-.18M22.2,22.9c.15,0,.3-.03.45-.08,1.03-.35,2.09-.8,3.33-1.4.32-.16.56-.43.67-.76.1-.3.07-.62-.07-.89l-.52-1c-.21-.4-.62-.64-1.08-.64-.19,0-.38.04-.54.13-1.11.54-2.04.93-2.94,1.24-.61.21-.95.87-.77,1.49l.31,1.07c.14.49.6.83,1.16.83M25,17.37c-.31,0-.61.07-.9.2-.95.46-1.9.88-2.85,1.2-.48.16-.84.5-1.08.93-.23.43-.33.96-.21,1.48l.25,1.09c.12.53.47.95.96,1.19.28.14.6.21.93.21.26,0,.52-.04.78-.13,1.19-.41,2.33-.91,3.42-1.44,1.1-.54,1.52-1.78,1-2.73l-.53-.99c-.37-.67-1.07-1.03-1.78-1.03h0ZM22.2,22.66c-.43,0-.82-.26-.93-.66l-.31-1.08c-.14-.51.14-1.04.62-1.2,1-.34,1.98-.77,2.96-1.25.14-.07.29-.1.44-.1.35,0,.7.19.87.52l.52,1c.25.47.03,1.07-.49,1.32-1.06.51-2.16,1-3.3,1.39-.12.04-.25.06-.37.06h0Z"/>
            <path class="cls-15" d="M32.38,12.89c.5,0,.96.21,1.28.57l.74.84c.29.33.43.76.4,1.21-.03.5-.27.97-.66,1.31-.87.75-1.74,1.49-2.62,2.22-.35.29-.78.45-1.23.45-.52,0-.99-.22-1.3-.6l-.71-.87c-.6-.75-.47-1.84.29-2.49.86-.72,1.72-1.45,2.57-2.18.34-.3.78-.46,1.22-.46M30.37,18.93c.3,0,.59-.11.82-.3.87-.73,1.74-1.47,2.61-2.22.26-.22.42-.54.44-.88.02-.31-.08-.62-.28-.85l-.74-.84c-.22-.25-.55-.4-.89-.4-.3,0-.6.11-.83.31-.85.73-1.71,1.46-2.57,2.19-.52.44-.61,1.21-.19,1.71l.72.86c.22.27.55.42.9.42M32.38,12.65c-.48,0-.97.17-1.37.52-.85.73-1.7,1.46-2.57,2.18-.86.73-1,1.97-.32,2.82l.71.87c.37.46.91.69,1.48.69.48,0,.98-.17,1.38-.51.88-.73,1.75-1.48,2.62-2.23.88-.76,1-2.04.28-2.85l-.74-.84c-.38-.43-.92-.65-1.46-.65h0ZM30.37,18.69c-.27,0-.54-.11-.72-.33l-.72-.86c-.34-.41-.27-1.02.16-1.38.87-.72,1.72-1.45,2.58-2.19.2-.17.44-.25.67-.25.27,0,.53.11.71.32l.74.84c.35.4.29,1.02-.14,1.39-.87.75-1.74,1.48-2.61,2.22-.2.17-.44.25-.67.25h0Z"/>
            <path class="cls-15" d="M39.02,6.35c.45,0,.88.17,1.2.48l.81.78c.31.3.49.72.49,1.17,0,.5-.21,1-.59,1.37-.8.79-1.62,1.57-2.52,2.39-.36.33-.82.51-1.29.51s-.93-.19-1.25-.55l-.74-.84c-.63-.71-.54-1.83.18-2.5.87-.79,1.66-1.54,2.41-2.29.35-.34.81-.53,1.3-.53M37.18,12.49c.32,0,.63-.12.87-.34.9-.82,1.72-1.6,2.51-2.38.25-.24.39-.57.39-.91,0-.32-.12-.61-.34-.83l-.79-.79c-.22-.22-.52-.34-.84-.34s-.64.13-.88.36c-.76.75-1.56,1.5-2.43,2.3-.5.46-.55,1.23-.11,1.72l.75.83c.22.24.53.38.87.38M39.02,6.11c-.52,0-1.05.2-1.46.6-.79.77-1.59,1.53-2.41,2.28-.82.75-.92,2.02-.2,2.83l.74.84c.37.42.89.63,1.42.63.51,0,1.03-.19,1.45-.57.85-.78,1.7-1.58,2.53-2.4.84-.82.87-2.13.09-2.88l-.8-.78c-.38-.36-.87-.54-1.36-.54h0ZM37.18,12.25c-.26,0-.51-.1-.69-.3l-.75-.83c-.35-.39-.31-1.01.09-1.38.83-.76,1.64-1.52,2.43-2.31.2-.2.46-.29.72-.29s.49.09.67.27l.79.79c.38.37.36,1-.05,1.4-.82.81-1.66,1.6-2.5,2.37-.2.19-.46.28-.71.28h0Z"/>
            <path class="cls-15" d="M2.3,4.72s.06,0,.1,0l1.12.06c.93.06,1.68.86,1.68,1.79,0,1.12.08,2.11.23,3.01.07.4-.02.79-.26,1.17-.25.39-.63.69-1.05.83l-1.07.35c-.15.05-.3.07-.45.07-.3,0-.6-.1-.86-.28-.42-.3-.73-.81-.82-1.37-.2-1.16-.29-2.39-.29-3.76,0-.54.19-1.04.55-1.39.31-.31.71-.48,1.13-.48M2.63,11.36c.09,0,.17-.01.25-.03l1.09-.26c.63-.16,1.03-.75.93-1.38-.16-.94-.24-1.95-.24-3.1,0-.65-.53-1.2-1.17-1.22l-1.16-.03c-.3,0-.59.12-.81.34-.24.24-.37.57-.37.93,0,1.34.1,2.55.29,3.67.1.62.61,1.09,1.19,1.09M2.3,4.49c-1.03,0-1.91.9-1.91,2.11,0,1.23.08,2.5.3,3.8.11.65.47,1.21.92,1.52.31.21.65.32,1,.32.17,0,.35-.03.52-.08l1.07-.35c.51-.17.92-.53,1.18-.92.26-.4.38-.86.3-1.33-.16-.94-.23-1.94-.23-2.98,0-1.03-.82-1.96-1.91-2.03l-1.12-.06s-.07,0-.11,0h0ZM2.63,11.12c-.45,0-.87-.36-.95-.89-.21-1.22-.28-2.44-.28-3.64,0-.58.43-1.03.94-1.03.01,0,.02,0,.03,0l1.12.03c.53.02.94.47.94.99,0,1.07.07,2.13.24,3.14.08.49-.24.98-.75,1.11l-1.09.26c-.07.02-.13.02-.2.02h0Z"/>
            <path class="cls-15" d="M6.55,13.63c.23,0,.46.04.7.11.18.06.35.14.54.28.13.09.24.21.36.39.46.77,1.01,1.42,1.69,1.99.27.23.45.58.52,1,.07.49,0,.94-.22,1.32l-.55.98c-.23.41-.64.68-1.11.73-.07,0-.13.01-.2.01-.47,0-.98-.19-1.38-.53-1.06-.89-1.99-1.98-2.69-3.17-.15-.24-.24-.52-.3-.86-.04-.25-.02-.53.05-.79.13-.46.45-.81.9-.97l1.05-.38c.2-.07.42-.11.64-.11M8.14,19.84h.08c.34-.02.64-.19.83-.47l.64-.92c.17-.25.25-.56.21-.87-.03-.28-.16-.54-.4-.76-.72-.61-1.33-1.32-1.81-2.13-.2-.35-.6-.57-1.04-.57-.19,0-.37.04-.54.12l-1.01.47c-.27.12-.48.35-.57.65-.12.35-.07.76.14,1.11.67,1.14,1.56,2.18,2.57,3.03.24.22.56.34.9.34M6.55,13.39c-.23,0-.48.04-.72.12l-1.05.38c-.5.18-.9.59-1.05,1.13-.07.27-.11.58-.06.89.05.31.15.64.34.95.72,1.21,1.66,2.33,2.74,3.23.47.4,1.02.59,1.53.59.08,0,.15,0,.23-.01.56-.06,1.03-.38,1.29-.85l.55-.98c.27-.48.31-.99.25-1.47-.07-.47-.27-.87-.6-1.15-.66-.56-1.2-1.19-1.64-1.93-.11-.18-.25-.35-.43-.47-.18-.13-.37-.24-.6-.31-.24-.08-.5-.12-.77-.12h0ZM8.14,19.6c-.25,0-.53-.08-.75-.28-.99-.83-1.86-1.85-2.52-2.97-.32-.56-.16-1.21.33-1.43l1.02-.48c.14-.06.29-.09.44-.09.35,0,.67.17.83.45.49.83,1.12,1.57,1.86,2.19.17.16.29.36.32.6.03.24-.02.5-.17.71l-.64.92c-.15.22-.39.35-.65.36-.02,0-.04,0-.06,0h0Z"/>
            <path class="cls-15" d="M13.85,17.81c.16,0,.32.03.47.08.85.29,1.79.49,2.8.59.22.02.4.08.57.17.2.11.36.23.49.38.23.26.51.68.53,1.23l.05,1.12c.02.47-.17.91-.54,1.21-.2.17-.43.29-.68.36-.21.06-.42.1-.63.1-.07,0-.15,0-.22-.01-1.36-.13-2.65-.4-3.84-.81-.55-.19-1.01-.58-1.23-1.04-.21-.45-.21-.92.01-1.33l.52-.99c.21-.39.57-.72.99-.9.24-.1.47-.15.7-.15M16.9,22.51c.3,0,.6-.1.82-.28.27-.21.42-.51.43-.84l.03-1.12c0-.31-.1-.61-.31-.85-.2-.23-.48-.37-.78-.4-1.05-.1-2.03-.31-2.92-.61-.12-.04-.24-.06-.37-.06-.17,0-.35.04-.51.11-.29.13-.51.36-.63.64l-.44,1.03c-.13.3-.11.64.04.95.15.29.42.52.78.65,1.15.39,2.4.66,3.72.78.05,0,.1,0,.15,0M13.85,17.58c-.27,0-.54.06-.8.17-.43.18-.85.52-1.11,1l-.52.99c-.25.48-.26,1.02-.02,1.54.24.5.73.95,1.37,1.17,1.27.43,2.58.69,3.89.82.08,0,.16.01.24.01.24,0,.48-.04.7-.11.29-.08.55-.23.76-.41.43-.35.64-.87.62-1.4l-.05-1.12c-.02-.54-.27-1.01-.59-1.37-.16-.18-.35-.32-.55-.43-.2-.11-.42-.17-.66-.2-.94-.09-1.87-.27-2.75-.58-.18-.06-.36-.09-.55-.09h0ZM16.9,22.27s-.08,0-.12,0c-1.24-.12-2.48-.36-3.67-.77-.29-.11-.52-.3-.64-.53-.12-.24-.14-.51-.03-.75l.44-1.03c.1-.24.3-.42.51-.52.13-.06.27-.09.42-.09.1,0,.19.02.28.05.95.33,1.96.53,2.98.62.25.03.47.15.63.32.16.18.26.43.25.69l-.03,1.12c0,.26-.13.5-.34.66-.18.14-.42.23-.67.23h0Z"/>
          </g>
          <g>
            <g>
              <path class="cls-29" d="M30.13,17.61c-1.26,1.04-2.54,2.08-3.92,3.02-.28.19-.69.13-.9-.13-.21-.26-.15-.62.12-.81,1.33-.91,2.58-1.93,3.84-2.96.26-.21.66-.19.9.05.24.24.22.61-.03.82Z"/>
              <path class="cls-31" d="M29.69,16.58c.18,0,.35.07.48.2.24.24.22.61-.03.82-1.26,1.04-2.54,2.08-3.92,3.02-.11.08-.24.11-.38.11-.2,0-.4-.09-.52-.24-.21-.26-.15-.62.12-.81,1.33-.91,2.58-1.93,3.84-2.96.12-.1.27-.15.42-.15M29.69,16.2h0c-.24,0-.48.08-.66.23-1.26,1.04-2.5,2.05-3.81,2.94-.22.15-.36.38-.4.64-.04.26.03.52.2.73.19.24.5.39.83.39.22,0,.42-.06.59-.18,1.37-.93,2.65-1.97,3.95-3.04.21-.17.33-.41.34-.68.01-.26-.09-.52-.28-.72-.2-.2-.47-.31-.76-.31h0Z"/>
            </g>
            <g>
              <path class="cls-42" d="M37.18,11.76c-1.32,1.21-2.66,2.39-4.01,3.55-.28.24-.69.22-.91-.05-.22-.26-.18-.67.09-.91,1.35-1.15,2.68-2.32,3.98-3.52.27-.24.67-.24.91.01.24.25.21.66-.06.91Z"/>
              <path class="cls-43" d="M36.79,10.65c.17,0,.33.06.45.19.24.25.21.66-.06.91-1.32,1.21-2.66,2.39-4.01,3.55-.13.11-.29.17-.44.17-.18,0-.35-.07-.47-.21-.22-.26-.18-.67.09-.91,1.35-1.15,2.68-2.32,3.98-3.52.13-.12.3-.18.46-.18M36.79,10.27h0c-.26,0-.52.1-.72.28-1.19,1.09-2.49,2.24-3.97,3.51-.44.38-.5,1.03-.14,1.45.19.22.47.35.76.35.25,0,.5-.09.69-.26,1.5-1.29,2.82-2.45,4.02-3.56.21-.19.33-.45.35-.74.01-.27-.08-.53-.26-.72-.19-.2-.45-.32-.74-.32h0Z"/>
            </g>
            <g>
              <path class="cls-44" d="M44.1,5.14c-1.32,1.21-2.66,2.39-4.01,3.55-.28.24-.69.22-.91-.05-.22-.26-.18-.67.09-.91,1.35-1.15,2.68-2.32,3.98-3.52.27-.24.67-.24.91.01.24.25.21.66-.06.91Z"/>
              <path class="cls-45" d="M43.71,4.03c.17,0,.33.06.45.19.24.25.21.66-.06.91-1.32,1.21-2.66,2.39-4.01,3.55-.13.11-.29.17-.44.17-.18,0-.35-.07-.47-.21-.22-.26-.18-.67.09-.91,1.35-1.15,2.68-2.32,3.98-3.52.13-.12.3-.18.46-.18M43.71,3.65h0c-.26,0-.52.1-.72.28-1.19,1.09-2.48,2.24-3.97,3.51-.44.38-.5,1.03-.14,1.45.19.22.47.35.76.35.25,0,.5-.09.69-.26,1.5-1.28,2.82-2.45,4.02-3.56.21-.19.33-.45.35-.74.01-.27-.08-.53-.26-.72-.19-.2-.45-.32-.74-.32h0Z"/>
            </g>
            <g>
              <path class="cls-30" d="M5.14,15.53c-.96-1.61-1.49-3.44-1.69-5.26-.05-.38.21-.7.56-.73.35-.03.64.23.69.58.19,1.7.68,3.34,1.52,4.76.18.28.09.68-.19.88-.29.2-.69.1-.89-.23Z"/>
              <path class="cls-33" d="M4.06,9.54c.33,0,.59.25.64.58.19,1.7.68,3.34,1.52,4.76.18.28.09.68-.19.88-.1.07-.21.1-.33.1-.21,0-.43-.12-.56-.34-.96-1.61-1.49-3.44-1.69-5.26-.05-.38.21-.7.56-.73.02,0,.03,0,.05,0M4.06,9.15s-.06,0-.08,0c-.26.02-.51.15-.69.37-.18.22-.26.51-.22.8.23,2.03.82,3.85,1.74,5.4.21.33.54.52.9.52.2,0,.39-.06.55-.18.45-.32.58-.94.29-1.4-.77-1.3-1.27-2.85-1.47-4.6-.07-.53-.51-.92-1.02-.92h0Z"/>
            </g>
            <g>
              <path class="cls-32" d="M2.21,6.69c-.39-1.84-.3-3.73.09-5.52.07-.37.43-.6.76-.51.34.08.53.43.47.77-.36,1.67-.43,3.38-.09,5,.08.33-.13.67-.46.77-.34.1-.68-.13-.77-.5Z"/>
              <path class="cls-34" d="M2.91.64s.09,0,.14.02c.34.08.53.43.47.77-.36,1.67-.43,3.38-.09,5,.08.33-.13.67-.46.77-.05.02-.11.02-.16.02-.28,0-.53-.21-.61-.53-.39-1.84-.3-3.74.09-5.52.06-.32.33-.53.62-.53M2.91.25h0c-.48,0-.9.35-1,.84-.43,2-.46,3.91-.09,5.68.12.49.52.84.99.84.09,0,.18-.01.27-.04.52-.16.85-.71.72-1.23-.31-1.48-.28-3.1.09-4.83.11-.56-.22-1.09-.75-1.23-.08-.02-.16-.03-.24-.03h0Z"/>
            </g>
            <g>
              <path class="cls-35" d="M13.04,20.82c-1.8-.39-3.56-1.13-5.04-2.29-.15-.12-.24-.28-.27-.45-.02-.17.03-.34.15-.47.12-.13.27-.2.43-.21.16-.01.33.03.46.13,1.3,1.02,2.88,1.69,4.53,2.05.34.07.57.39.51.73-.05.34-.4.57-.78.49Z"/>
              <path class="cls-51" d="M8.38,17.41c.14,0,.28.04.4.13,1.3,1.02,2.88,1.7,4.53,2.05.34.07.57.39.51.73-.05.3-.32.51-.63.51-.05,0-.09,0-.14-.01-1.8-.39-3.56-1.13-5.04-2.29-.15-.12-.24-.28-.27-.45-.02-.17.03-.34.15-.47.12-.13.27-.2.43-.21.02,0,.04,0,.06,0M8.38,17.02s-.07,0-.1,0c-.26.02-.5.13-.68.33-.19.21-.27.48-.25.76.04.28.18.53.41.71,1.45,1.13,3.24,1.94,5.2,2.36.08.02.15.02.22.02.51,0,.94-.35,1.02-.83.09-.55-.28-1.07-.82-1.17-1.65-.35-3.16-1.04-4.37-1.97-.18-.14-.4-.22-.63-.22h0Z"/>
            </g>
            <g>
              <path class="cls-37" d="M21.38,21.48c-1.23.1-2.5.05-3.72-.14-.26-.04-.4-.36-.34-.7.07-.34.31-.57.54-.54,1.13.18,2.28.23,3.43.13.23-.02.45.24.49.59.04.34-.14.64-.4.66Z"/>
              <path class="cls-52" d="M17.81,20.09s.03,0,.05,0c.76.12,1.52.18,2.28.18.38,0,.77-.02,1.15-.05,0,0,.02,0,.03,0,.22,0,.43.26.47.59.04.34-.14.64-.4.66-.41.03-.82.05-1.24.05-.83,0-1.67-.07-2.48-.2-.26-.04-.4-.36-.34-.7.06-.32.28-.54.49-.54M17.81,19.71c-.41,0-.77.35-.87.86-.06.3,0,.61.16.84.12.18.3.29.5.32.84.13,1.7.2,2.54.2.43,0,.85-.02,1.27-.05.2-.02.39-.12.53-.28.17-.21.25-.5.22-.81-.06-.53-.42-.93-.85-.93-.01,0-.05,0-.06,0-.37.03-.74.05-1.12.05-.73,0-1.47-.06-2.22-.17-.02,0-.08,0-.1,0h0Z"/>
            </g>
          </g>
          <g>
            <path class="cls-15" d="M29.69,16.82c.12,0,.24.05.32.13.07.07.11.16.1.25,0,.09-.05.17-.12.23-1.34,1.1-2.55,2.09-3.9,3.01-.07.05-.15.07-.24.07-.13,0-.26-.06-.34-.16-.06-.08-.09-.16-.07-.25.01-.09.06-.16.14-.21,1.33-.9,2.58-1.92,3.85-2.98.07-.06.17-.09.27-.09M29.69,16.58c-.15,0-.3.05-.42.15-1.25,1.04-2.51,2.06-3.84,2.96-.27.19-.33.54-.12.81.13.16.32.24.52.24.13,0,.26-.04.38-.11,1.38-.94,2.66-1.98,3.92-3.02.26-.21.27-.58.03-.82-.13-.13-.31-.2-.48-.2h0Z"/>
            <path class="cls-15" d="M36.79,10.89h0c.11,0,.21.04.28.12.07.07.1.17.1.27,0,.12-.06.22-.15.3-1.2,1.1-2.51,2.26-4.01,3.54-.08.07-.18.11-.29.11-.12,0-.22-.05-.29-.13-.14-.16-.11-.42.07-.57,1.49-1.28,2.79-2.43,3.98-3.52.08-.08.19-.12.3-.12M36.79,10.65c-.16,0-.33.06-.46.18-1.3,1.2-2.63,2.37-3.98,3.52-.28.24-.32.64-.09.91.12.14.29.21.47.21.15,0,.31-.05.44-.17,1.35-1.16,2.7-2.34,4.01-3.55.27-.25.3-.66.06-.91-.12-.13-.28-.19-.45-.19h0Z"/>
            <path class="cls-15" d="M43.71,4.27h0c.11,0,.21.04.28.12.07.07.1.17.1.27,0,.12-.06.22-.15.3-1.2,1.1-2.51,2.26-4.01,3.54-.08.07-.18.11-.29.11-.12,0-.22-.05-.29-.13-.14-.16-.11-.42.07-.57,1.49-1.28,2.79-2.43,3.98-3.52.08-.08.19-.12.3-.12M43.71,4.03c-.16,0-.33.06-.46.18-1.3,1.2-2.63,2.37-3.98,3.52-.28.24-.32.64-.09.91.12.14.29.21.47.21.15,0,.31-.05.44-.17,1.35-1.16,2.7-2.34,4.01-3.55.27-.25.3-.66.06-.91-.12-.13-.28-.19-.45-.19h0Z"/>
            <path class="cls-15" d="M4.06,9.78c.2,0,.38.16.4.37.21,1.84.73,3.47,1.56,4.86.11.18.05.43-.12.56-.06.04-.12.06-.19.06-.14,0-.28-.08-.36-.22-.88-1.48-1.44-3.21-1.66-5.17-.02-.12.02-.24.09-.33.07-.08.16-.13.25-.14h.03M4.06,9.54s-.03,0-.05,0c-.34.03-.61.35-.56.73.21,1.82.73,3.64,1.69,5.26.13.22.35.34.56.34.11,0,.23-.03.33-.1.28-.2.36-.59.19-.88-.85-1.42-1.33-3.07-1.52-4.76-.04-.33-.31-.58-.64-.58h0Z"/>
            <path class="cls-15" d="M2.91.87h0s.06,0,.08.01c.21.05.34.27.29.49-.39,1.81-.42,3.53-.09,5.1.05.2-.09.43-.3.49-.03,0-.06.01-.1.01-.17,0-.33-.14-.38-.34-.36-1.68-.33-3.51.09-5.43.04-.2.2-.34.39-.34M2.91.64c-.29,0-.56.21-.62.53-.39,1.79-.48,3.69-.09,5.52.07.32.33.53.61.53.05,0,.11,0,.16-.02.32-.1.53-.44.46-.77-.34-1.62-.27-3.33.09-5,.07-.34-.13-.69-.47-.77-.05-.01-.09-.02-.14-.02h0Z"/>
            <path class="cls-15" d="M8.38,17.65c.07,0,.16.01.25.08,1.28.99,2.87,1.72,4.63,2.09.21.04.36.25.33.47-.03.18-.2.31-.4.31-.03,0-.06,0-.09,0-1.87-.4-3.58-1.17-4.94-2.24-.1-.08-.16-.19-.18-.29-.01-.11.02-.21.09-.29.07-.08.16-.12.28-.13h.04M8.38,17.41s-.04,0-.06,0c-.16,0-.31.08-.43.21-.12.13-.17.3-.15.47.02.16.11.33.27.45,1.48,1.15,3.24,1.9,5.04,2.29.05,0,.1.01.14.01.32,0,.59-.21.63-.51.05-.34-.18-.67-.51-.73-1.65-.35-3.23-1.03-4.53-2.05-.11-.09-.25-.13-.4-.13h0Z"/>
            <path class="cls-15" d="M17.81,20.33h0c.78.12,1.56.18,2.32.18.39,0,.78-.02,1.18-.05.08,0,.21.15.23.38.01.13-.02.27-.08.34-.03.04-.06.06-.1.06-.4.03-.81.05-1.22.05-.81,0-1.63-.06-2.45-.19-.03,0-.06-.03-.09-.06-.05-.07-.09-.2-.05-.36.05-.23.18-.35.26-.35M17.81,20.09c-.22,0-.43.22-.49.54-.07.34.08.66.34.7.82.13,1.65.2,2.48.2.41,0,.83-.02,1.24-.05.26-.02.43-.32.4-.66-.03-.33-.24-.59-.47-.59,0,0-.02,0-.03,0-.38.03-.77.05-1.15.05-.76,0-1.52-.06-2.28-.18-.02,0-.03,0-.05,0h0Z"/>
          </g>
        </g>
        <g>
          <g>
            <g>
              <path class="cls-50" d="M48.71,25.16l-.98.03c-.95.03-1.69.81-1.69,1.74,0,.93,0,1.86-.03,2.8-.02.94.71,1.74,1.65,1.78l.98.04c.94.04,1.75-.72,1.78-1.71.03-.98.04-1.96.03-2.94,0-.99-.8-1.78-1.75-1.74ZM46.92,26.93c0-.46.37-.84.83-.85l.98-.02c.46,0,.85.37.85.85,0,.97,0,1.94-.03,2.91-.01.48-.4.85-.87.83l-.98-.03c-.46-.02-.82-.41-.81-.87.03-.94.04-1.89.03-2.82Z"/>
              <path class="cls-36" d="M48.77,25.16c.92,0,1.69.77,1.69,1.75,0,.98,0,1.96-.03,2.94-.03.96-.79,1.71-1.71,1.71-.02,0-.05,0-.07,0l-.98-.04c-.95-.04-1.68-.84-1.65-1.78.03-.94.04-1.87.03-2.8,0-.93.74-1.71,1.69-1.74l.98-.03s.04,0,.06,0M48.71,30.66c.45,0,.82-.37.84-.83.03-.97.04-1.94.03-2.91,0-.47-.38-.85-.83-.85,0,0-.01,0-.02,0l-.98.02c-.46,0-.83.39-.83.85,0,.94,0,1.88-.03,2.82-.01.46.35.85.81.87l.98.03s.02,0,.03,0M48.77,24.78h-.07s-.98.03-.98.03c-1.16.04-2.07.98-2.06,2.13,0,.88,0,1.82-.03,2.78-.03,1.15.88,2.13,2.02,2.18l.98.04h.09c1.12,0,2.06-.93,2.09-2.08.03-1.03.04-2,.03-2.95,0-1.17-.94-2.13-2.08-2.13h0ZM48.71,30.66l-.02-.39-.98-.03c-.25,0-.44-.22-.44-.47.03-1,.04-1.93.03-2.84,0-.25.2-.46.45-.46l.98-.02h0c.25,0,.45.21.46.47,0,.93,0,1.88-.03,2.9,0,.25-.21.46-.45.46v.39h0Z"/>
            </g>
            <g>
              <path class="cls-53" d="M48.93,17.51l-.98.03c-.95.03-1.69.81-1.69,1.74,0,.93,0,1.86-.03,2.8-.02.94.71,1.74,1.65,1.78l.98.04c.94.04,1.75-.72,1.78-1.71.03-.98.04-1.96.03-2.94,0-.99-.8-1.78-1.75-1.74ZM47.14,19.28c0-.46.37-.84.83-.85l.98-.02c.46,0,.85.37.85.85,0,.97,0,1.94-.03,2.91-.01.48-.4.85-.87.83l-.98-.03c-.46-.02-.82-.41-.81-.87.03-.94.04-1.89.03-2.82Z"/>
              <path class="cls-41" d="M48.98,17.51c.92,0,1.69.77,1.69,1.75,0,.98,0,1.96-.03,2.94-.03.96-.79,1.71-1.71,1.71-.02,0-.05,0-.07,0l-.98-.04c-.95-.04-1.68-.84-1.65-1.78.03-.94.04-1.87.03-2.8,0-.93.74-1.71,1.69-1.74l.98-.03s.04,0,.06,0M48.93,23.01c.45,0,.82-.37.84-.83.03-.97.04-1.94.03-2.91,0-.47-.38-.85-.83-.85,0,0-.01,0-.02,0l-.98.02c-.46,0-.83.39-.83.85,0,.94,0,1.88-.03,2.82-.01.46.35.85.81.87l.98.03s.02,0,.03,0M48.98,17.13h-.07s-.98.03-.98.03c-1.16.04-2.07.98-2.06,2.13,0,.88,0,1.82-.03,2.78-.03,1.15.88,2.13,2.02,2.18l.98.04h.09c1.12,0,2.06-.93,2.09-2.08.03-1.03.04-2,.03-2.95,0-1.17-.94-2.13-2.08-2.13h0ZM48.93,23.01l-.02-.39-.98-.03c-.25,0-.44-.22-.44-.47.03-1,.04-1.93.03-2.84,0-.25.2-.46.45-.46l.98-.02h0c.25,0,.45.21.46.47,0,.93,0,1.88-.03,2.9,0,.25-.21.46-.45.46v.39h0Z"/>
            </g>
            <g>
              <path class="cls-39" d="M48.83,9.92l-.98.03c-.95.03-1.69.81-1.69,1.74,0,.93,0,1.86-.03,2.8-.02.94.71,1.74,1.65,1.78l.98.04c.94.04,1.75-.72,1.78-1.71.03-.98.04-1.96.03-2.94,0-.99-.8-1.78-1.75-1.74ZM47.04,11.69c0-.46.37-.84.83-.85l.98-.02c.46,0,.85.37.85.85,0,.97,0,1.94-.03,2.91-.01.48-.4.85-.87.83l-.98-.03c-.46-.02-.82-.41-.81-.87.03-.94.04-1.89.03-2.82Z"/>
              <path class="cls-38" d="M48.88,9.92c.92,0,1.69.77,1.69,1.75,0,.98,0,1.96-.03,2.94-.03.96-.79,1.71-1.71,1.71-.02,0-.05,0-.07,0l-.98-.04c-.95-.04-1.68-.84-1.65-1.78.03-.94.04-1.87.03-2.8,0-.93.74-1.71,1.69-1.74l.98-.03s.04,0,.06,0M48.83,15.42c.45,0,.82-.37.84-.83.03-.97.04-1.94.03-2.91,0-.47-.38-.85-.83-.85,0,0-.01,0-.02,0l-.98.02c-.46,0-.83.39-.83.85,0,.94,0,1.88-.03,2.82-.01.46.35.85.81.87l.98.03s.02,0,.03,0M48.88,9.53h-.07s-.98.03-.98.03c-1.16.04-2.07.98-2.06,2.13,0,.89,0,1.8-.03,2.78-.03,1.15.88,2.13,2.02,2.18l.98.04h.09c1.12,0,2.06-.93,2.09-2.08.03-1.02.04-2.01.03-2.95,0-1.17-.94-2.13-2.08-2.13h0ZM48.83,15.42l-.02-.39-.98-.03c-.25,0-.44-.22-.44-.47.03-1,.04-1.93.03-2.84,0-.25.2-.46.45-.46l.98-.02h0c.25,0,.45.21.46.47,0,.93,0,1.88-.03,2.9,0,.25-.21.46-.45.46v.39h0Z"/>
            </g>
            <g>
              <path class="cls-40" d="M48.72,2.74l-.98.03c-.95.03-1.69.81-1.69,1.74,0,.93,0,1.86-.03,2.8-.02.94.71,1.74,1.65,1.78l.98.04c.94.04,1.75-.72,1.78-1.71.03-.98.04-1.96.03-2.94,0-.99-.8-1.78-1.75-1.74ZM46.94,4.5c0-.46.37-.84.83-.85l.98-.02c.46,0,.85.37.85.85,0,.97,0,1.94-.03,2.91-.01.48-.4.85-.87.83l-.98-.03c-.46-.02-.82-.41-.81-.87.03-.94.04-1.89.03-2.82Z"/>
              <path class="cls-47" d="M48.78,2.74c.92,0,1.69.77,1.69,1.75,0,.98,0,1.96-.03,2.94-.03.96-.79,1.71-1.71,1.71-.02,0-.05,0-.07,0l-.98-.04c-.95-.04-1.68-.84-1.65-1.78.03-.94.04-1.87.03-2.8,0-.93.74-1.71,1.69-1.74l.98-.03s.04,0,.06,0M48.73,8.23c.45,0,.82-.37.84-.83.03-.97.04-1.94.03-2.91,0-.47-.38-.85-.83-.85,0,0-.01,0-.02,0l-.98.02c-.46,0-.83.39-.83.85,0,.94,0,1.88-.03,2.82-.01.46.35.85.81.87l.98.03s.02,0,.03,0M48.78,2.35h-.07s-.98.03-.98.03c-1.16.04-2.07.98-2.06,2.13,0,.89,0,1.8-.03,2.78-.03,1.15.88,2.13,2.02,2.18l.98.04h.09c1.12,0,2.06-.93,2.09-2.08.03-1.04.04-2,.03-2.95,0-1.17-.94-2.13-2.08-2.13h0ZM48.73,8.23l-.02-.39-.98-.03c-.25,0-.44-.22-.44-.47.03-1,.04-1.93.03-2.84,0-.25.2-.46.45-.46l.98-.02h0c.25,0,.45.21.45.47,0,.93,0,1.88-.03,2.9,0,.25-.21.46-.45.46v.39h0Z"/>
            </g>
          </g>
          <g>
            <path class="cls-15" d="M48.77,25.41c.79,0,1.44.67,1.44,1.5,0,.94,0,1.9-.03,2.93-.02.81-.67,1.46-1.46,1.46h-.06s-.98-.04-.98-.04c-.8-.03-1.44-.72-1.42-1.52.03-.97.04-1.92.03-2.81,0-.81.63-1.46,1.44-1.49l.98-.03h.05M48.71,30.91c.59,0,1.07-.47,1.09-1.08.03-1.03.04-1.98.03-2.92,0-.61-.49-1.1-1.1-1.1h0l-.98.02c-.6.01-1.08.51-1.07,1.1,0,.9,0,1.83-.03,2.82-.02.6.46,1.1,1.05,1.13l.98.03s.04,0,.04,0M48.77,25.16s-.04,0-.06,0l-.98.03c-.95.03-1.69.81-1.69,1.74,0,.93,0,1.86-.03,2.8-.02.94.71,1.74,1.65,1.78l.98.04s.05,0,.07,0c.91,0,1.68-.75,1.71-1.71.03-.98.04-1.96.03-2.94,0-.97-.77-1.75-1.69-1.75h0ZM48.71,30.66s-.02,0-.03,0l-.98-.03c-.46-.02-.82-.41-.81-.87.03-.94.04-1.89.03-2.82,0-.46.37-.84.83-.85l.98-.02s.01,0,.02,0c.46,0,.83.38.83.85,0,.97,0,1.94-.03,2.91-.01.47-.39.83-.84.83h0Z"/>
            <path class="cls-15" d="M48.98,17.76c.79,0,1.44.67,1.44,1.5,0,.94,0,1.9-.03,2.93-.02.81-.67,1.46-1.46,1.46h-.06s-.98-.04-.98-.04c-.8-.03-1.44-.72-1.42-1.52.03-.97.04-1.92.03-2.81,0-.81.63-1.46,1.44-1.49l.98-.03h.05M48.93,23.26c.59,0,1.07-.47,1.09-1.08.03-1.03.04-1.98.03-2.92,0-.61-.49-1.1-1.1-1.1h0l-.98.02c-.6.01-1.08.51-1.07,1.1,0,.9,0,1.82-.03,2.82-.02.6.46,1.1,1.05,1.13l.98.03s.04,0,.04,0M48.98,17.51s-.04,0-.06,0l-.98.03c-.95.03-1.69.81-1.69,1.74,0,.93,0,1.86-.03,2.8-.02.94.71,1.74,1.65,1.78l.98.04s.05,0,.07,0c.91,0,1.68-.75,1.71-1.71.03-.98.04-1.96.03-2.94,0-.97-.77-1.75-1.69-1.75h0ZM48.93,23.01s-.02,0-.03,0l-.98-.03c-.46-.02-.82-.41-.81-.87.03-.94.04-1.89.03-2.82,0-.46.37-.84.83-.85l.98-.02s.01,0,.02,0c.46,0,.83.38.83.85,0,.97,0,1.94-.03,2.91-.01.47-.39.83-.84.83h0Z"/>
            <path class="cls-15" d="M48.88,10.17c.79,0,1.44.67,1.44,1.5,0,.93,0,1.92-.03,2.93-.02.81-.67,1.46-1.46,1.46h-.06s-.98-.04-.98-.04c-.8-.03-1.44-.72-1.42-1.52.03-.99.04-1.91.03-2.81,0-.81.63-1.46,1.44-1.49l.98-.03h.05M48.83,15.67c.59,0,1.07-.47,1.09-1.08.03-1.03.04-1.98.03-2.92,0-.61-.49-1.1-1.1-1.1h0l-.98.02c-.6.01-1.08.51-1.07,1.1,0,.9,0,1.83-.03,2.82-.02.6.46,1.1,1.05,1.13l.98.03s.04,0,.04,0M48.88,9.92s-.04,0-.06,0l-.98.03c-.95.03-1.69.81-1.69,1.74,0,.93,0,1.86-.03,2.8-.02.94.71,1.74,1.65,1.78l.98.04s.05,0,.07,0c.91,0,1.68-.75,1.71-1.71.03-.98.04-1.96.03-2.94,0-.97-.77-1.75-1.69-1.75h0ZM48.83,15.42s-.02,0-.03,0l-.98-.03c-.46-.02-.82-.41-.81-.87.03-.94.04-1.89.03-2.82,0-.46.37-.84.83-.85l.98-.02s.01,0,.02,0c.46,0,.83.38.83.85,0,.97,0,1.94-.03,2.91-.01.47-.39.83-.84.83h0Z"/>
            <path class="cls-15" d="M48.78,2.99c.79,0,1.44.67,1.44,1.5,0,.94,0,1.9-.03,2.93-.02.81-.67,1.46-1.46,1.46h-.06s-.98-.04-.98-.04c-.8-.03-1.44-.72-1.42-1.52.03-.99.04-1.91.03-2.81,0-.81.63-1.46,1.44-1.49l.98-.03h.05M48.73,8.48c.59,0,1.07-.47,1.09-1.08.03-1.03.04-1.98.03-2.92,0-.61-.49-1.1-1.1-1.1h0l-.98.02c-.6.01-1.08.51-1.07,1.1,0,.9,0,1.82-.03,2.82-.02.6.46,1.1,1.05,1.13l.98.03s.04,0,.04,0M48.78,2.74s-.04,0-.06,0l-.98.03c-.95.03-1.69.81-1.69,1.74,0,.93,0,1.86-.03,2.8-.02.94.71,1.74,1.65,1.78l.98.04s.05,0,.07,0c.91,0,1.68-.75,1.71-1.71.03-.98.04-1.96.03-2.94,0-.97-.77-1.75-1.69-1.75h0ZM48.73,8.23s-.02,0-.03,0l-.98-.03c-.46-.02-.82-.41-.81-.87.03-.94.04-1.89.03-2.82,0-.46.37-.84.83-.85l.98-.02s.01,0,.02,0c.46,0,.83.38.83.85,0,.97,0,1.94-.03,2.91-.01.47-.39.83-.84.83h0Z"/>
          </g>
          <g>
            <g>
              <path class="cls-46" d="M48.69,30.63c.05,1.23.06,2.47.06,3.7,0,.25-.22.45-.5.45-.27,0-.5-.21-.5-.46,0-1.22-.01-2.45-.06-3.67,0-.25.2-.46.48-.46.27,0,.51.19.52.45Z"/>
              <path class="cls-48" d="M48.19,30.18c.27,0,.5.2.5.45.05,1.23.06,2.47.06,3.7,0,.25-.22.45-.49.45,0,0,0,0,0,0-.27,0-.5-.21-.5-.46,0-1.22-.01-2.45-.06-3.67,0-.25.2-.46.48-.46,0,0,0,0,.01,0M48.19,29.79s-.02,0-.02,0c-.24,0-.47.11-.63.27-.15.16-.23.37-.23.59.04,1.11.06,2.31.06,3.66,0,.46.39.84.88.85h0c.5,0,.89-.38.89-.84,0-1.37-.02-2.58-.06-3.71-.01-.45-.41-.82-.89-.82h0Z"/>
            </g>
            <g>
              <path class="cls-54" d="M48.77,7.58c.05,1.23.06,2.47.06,3.7,0,.25-.22.45-.5.45-.27,0-.5-.21-.5-.46,0-1.22-.01-2.45-.06-3.67,0-.25.2-.46.48-.46.27,0,.51.19.52.45Z"/>
              <path class="cls-49" d="M48.27,7.13c.27,0,.5.2.5.45.05,1.23.06,2.47.06,3.7,0,.25-.22.45-.49.45,0,0,0,0,0,0-.27,0-.5-.21-.5-.46,0-1.22-.01-2.45-.06-3.67,0-.25.2-.46.48-.46,0,0,0,0,.01,0M48.27,6.74s-.02,0-.02,0c-.24,0-.47.11-.63.28-.15.16-.23.37-.23.59.04,1.11.06,2.31.06,3.66,0,.46.39.84.88.85h0c.5,0,.89-.38.89-.84,0-1.37-.02-2.58-.06-3.71-.01-.45-.41-.82-.89-.82h0Z"/>
            </g>
            <g>
              <path class="cls-55" d="M48.78,15.01c.05,1.23.06,2.47.06,3.7,0,.25-.22.45-.5.45-.27,0-.5-.21-.5-.46,0-1.22-.01-2.45-.06-3.67,0-.25.2-.46.48-.46.27,0,.51.19.52.45Z"/>
              <path class="cls-17" d="M48.27,14.56c.27,0,.5.2.5.45.05,1.23.06,2.47.06,3.7,0,.25-.22.45-.49.45,0,0,0,0,0,0-.27,0-.5-.21-.5-.46,0-1.22-.01-2.45-.06-3.67,0-.25.2-.46.48-.46,0,0,0,0,.01,0M48.27,14.18s-.02,0-.02,0c-.24,0-.47.11-.63.28-.15.16-.23.37-.23.59.04,1.11.06,2.31.06,3.66,0,.46.39.84.88.85h0c.5,0,.89-.38.89-.84,0-1.37-.02-2.58-.06-3.71-.01-.45-.41-.82-.89-.82h0Z"/>
            </g>
            <g>
              <path class="cls-18" d="M48.78,22.57c.05,1.23.06,2.47.06,3.7,0,.25-.22.45-.5.45-.27,0-.5-.21-.5-.46,0-1.22-.01-2.45-.06-3.67,0-.25.2-.46.48-.46.27,0,.51.19.52.45Z"/>
              <path class="cls-19" d="M48.27,22.12c.27,0,.5.2.5.45.05,1.23.06,2.47.06,3.7,0,.25-.22.45-.49.45,0,0,0,0,0,0-.27,0-.5-.21-.5-.46,0-1.22-.01-2.45-.06-3.67,0-.25.2-.46.48-.46,0,0,0,0,.01,0M48.27,21.73s-.02,0-.02,0c-.24,0-.47.11-.63.28-.15.16-.23.37-.23.59.04,1.11.06,2.31.06,3.66,0,.46.39.84.88.85h0c.5,0,.89-.38.89-.84,0-1.37-.02-2.58-.06-3.71-.01-.45-.41-.82-.89-.82h0Z"/>
            </g>
            <g>
              <path class="cls-16" d="M48.77.84c.05,1.23.06,2.47.06,3.7,0,.25-.22.45-.5.45-.27,0-.5-.21-.5-.46,0-1.22-.01-2.45-.06-3.67,0-.25.2-.46.48-.46.27,0,.51.19.52.45Z"/>
              <path class="cls-24" d="M48.27.39c.27,0,.5.2.5.45.05,1.23.06,2.47.06,3.7,0,.25-.22.45-.49.45,0,0,0,0,0,0-.27,0-.5-.21-.5-.46,0-1.22-.01-2.45-.06-3.67,0-.25.2-.46.48-.46,0,0,0,0,.01,0M48.27,0s-.02,0-.02,0c-.24,0-.47.11-.63.27-.15.16-.23.37-.23.59.04,1.11.06,2.31.06,3.66,0,.46.39.84.88.85h0c.5,0,.89-.38.89-.84,0-1.37-.02-2.58-.06-3.71-.01-.45-.41-.82-.89-.82h0Z"/>
            </g>
          </g>
          <g>
            <path class="cls-15" d="M48.19,30.18v.25c.13,0,.25.09.25.21.04,1.12.06,2.33.06,3.69,0,.11-.11.2-.24.2-.14,0-.25-.1-.25-.21,0-1.36-.02-2.56-.06-3.68,0-.06.03-.1.05-.13.04-.05.11-.07.18-.08v-.25M48.19,30.18s0,0-.01,0c-.27,0-.49.21-.48.46.05,1.22.06,2.44.06,3.67,0,.25.22.46.5.46,0,0,0,0,0,0,.27,0,.49-.2.49-.45,0-1.23-.01-2.47-.06-3.7,0-.25-.23-.45-.5-.45h0Z"/>
            <path class="cls-15" d="M48.27,7.13v.25c.13,0,.25.09.25.21.04,1.12.06,2.33.06,3.69,0,.11-.11.2-.24.2-.14,0-.25-.1-.25-.21,0-1.36-.02-2.56-.06-3.68,0-.06.03-.1.05-.13.04-.05.11-.07.18-.08v-.25M48.27,7.13s0,0-.01,0c-.27,0-.49.21-.48.46.05,1.22.06,2.44.06,3.67,0,.25.22.46.5.46,0,0,0,0,0,0,.27,0,.49-.2.49-.45,0-1.23-.01-2.47-.06-3.7,0-.25-.23-.45-.5-.45h0Z"/>
            <path class="cls-15" d="M48.27,14.56v.25c.13,0,.25.09.25.21.04,1.12.06,2.33.06,3.69,0,.11-.11.2-.24.2-.14,0-.25-.1-.25-.21,0-1.36-.02-2.56-.06-3.68,0-.06.03-.1.05-.13.04-.05.11-.07.18-.08v-.25M48.27,14.56s0,0-.01,0c-.27,0-.49.21-.48.46.05,1.22.06,2.44.06,3.67,0,.25.22.46.5.46,0,0,0,0,0,0,.27,0,.49-.2.49-.45,0-1.23-.01-2.47-.06-3.7,0-.25-.23-.45-.5-.45h0Z"/>
            <path class="cls-15" d="M48.27,22.12v.25c.13,0,.25.09.25.21.04,1.12.06,2.33.06,3.69,0,.11-.11.2-.24.2-.14,0-.25-.1-.25-.21,0-1.36-.02-2.56-.06-3.68,0-.06.03-.1.05-.13.04-.05.11-.07.18-.08v-.25M48.27,22.12s0,0-.01,0c-.27,0-.49.21-.48.46.05,1.22.06,2.44.06,3.67,0,.25.22.46.5.46,0,0,0,0,0,0,.27,0,.49-.2.49-.45,0-1.23-.01-2.47-.06-3.7,0-.25-.23-.45-.5-.45h0Z"/>
            <path class="cls-15" d="M48.27.39v.25c.13,0,.25.09.25.21.04,1.12.06,2.33.06,3.69,0,.11-.11.2-.24.2-.14,0-.25-.1-.25-.21,0-1.36-.02-2.56-.06-3.68,0-.06.03-.1.05-.13.04-.05.11-.07.18-.08v-.25M48.27.39s0,0-.01,0c-.27,0-.49.21-.48.46.05,1.22.06,2.44.06,3.67,0,.25.22.46.5.46,0,0,0,0,0,0,.27,0,.49-.2.49-.45,0-1.23-.01-2.47-.06-3.7,0-.25-.23-.45-.5-.45h0Z"/>
          </g>
          <g>
            <g>
              <circle class="cls-22" cx="48.22" cy="34.61" r=".82"/>
              <path class="cls-25" d="M48.22,33.79c.45,0,.82.37.82.82s-.37.82-.82.82-.82-.37-.82-.82.37-.82.82-.82M48.22,33.4c-.67,0-1.21.54-1.21,1.21s.54,1.21,1.21,1.21,1.21-.54,1.21-1.21-.54-1.21-1.21-1.21h0Z"/>
            </g>
            <g>
              <g>
                <path class="cls-23" d="M48.21,43.97s9.02-4.55,5.97-8.71c-.41-.57-.89-.93-1.37-1.13-2.03-.83-4.41,1.14-4.57,2.64-.13-1.22-1.7-2.75-3.38-2.85-.89-.05-1.81.29-2.56,1.3-3.07,4.15,5.91,8.76,5.91,8.76Z"/>
                <path class="cls-21" d="M44.7,33.9c.05,0,.11,0,.16,0,1.68.1,3.25,1.63,3.38,2.85.14-1.25,1.83-2.84,3.56-2.84.34,0,.68.06,1.01.2.49.21.96.57,1.37,1.13,3.05,4.17-5.97,8.71-5.97,8.71,0,0-8.98-4.6-5.91-8.76.71-.95,1.56-1.31,2.4-1.31M44.7,33.52c-1.06,0-2,.51-2.71,1.46-.65.88-.86,1.85-.62,2.87.8,3.42,6.43,6.34,6.67,6.46.06.03.12.04.18.04s.12-.01.17-.04c.24-.12,5.89-3,6.72-6.42.25-1.02.04-1.99-.6-2.87-.43-.59-.95-1.01-1.54-1.26-.37-.15-.76-.23-1.16-.23-1.47,0-2.88,1-3.55,2.11-.62-1.06-1.92-2.04-3.36-2.13-.06,0-.12,0-.18,0h0Z"/>
              </g>
              <g>
                <path class="cls-12" d="M51.61,35.27c-1.54-.18-2.61,1.32-3.11,2.23-.09.13-.28.56-.3.61-.78-1.74-2.02-3-3.42-2.83-2.56.3-2.54,4.71,3.41,7.36h0s0,0,0,0c0,0,0,0,0,0,0,0,.07-.04.17-.09,5.77-2.65,5.77-6.98,3.24-7.27Z"/>
                <path class="cls-20" d="M51.36,35.25c.08,0,.17,0,.25.01,2.53.3,2.53,4.62-3.24,7.27-.1.05-.17.09-.17.09,0,0,0,0,0,0,0,0,0,0,0,0h0c-5.94-2.65-5.96-7.06-3.41-7.36.08,0,.16-.01.25-.01,1.3,0,2.44,1.21,3.17,2.85.02-.04.21-.47.3-.61.47-.86,1.45-2.24,2.86-2.24M51.36,34.87c-1.57,0-2.64,1.46-3.16,2.37-.85-1.52-1.98-2.37-3.17-2.37-.1,0-.19,0-.29.02-1.03.12-1.77.84-1.93,1.87-.28,1.81,1.22,4.43,5.18,6.2.06.04.13.06.2.06,0,0,.02,0,.02,0,.06,0,.11-.02.16-.04l.17-.09c3.85-1.77,5.3-4.37,5.02-6.15-.16-1.02-.9-1.73-1.92-1.85-.1-.01-.2-.02-.3-.02h0Z"/>
              </g>
              <g class="cls-3">
                <path class="cls-15" d="M51.36,35.4c.08,0,.16,0,.24.01.79.09,1.33.62,1.45,1.4.25,1.58-1.12,3.92-4.75,5.59l-.1.05c-3.69-1.66-5.1-4.02-4.86-5.63.12-.8.67-1.33,1.46-1.42.08,0,.15-.01.23-.01,1.13,0,2.26,1.03,3.04,2.76l.14.31.13-.32c.05-.11.21-.47.29-.59.45-.81,1.39-2.16,2.72-2.16M51.36,35.25c-1.4,0-2.38,1.38-2.86,2.24-.09.13-.28.56-.3.61-.73-1.63-1.87-2.85-3.17-2.85-.08,0-.16,0-.25.01-2.56.3-2.54,4.71,3.41,7.36h0s0,0,0,0c0,0,0,0,0,0,0,0,.07-.04.17-.09,5.77-2.65,5.77-6.98,3.24-7.27-.09-.01-.17-.01-.25-.01h0Z"/>
              </g>
              <path class="cls-2" d="M48.21,43.97s9.02-4.55,5.97-8.71c-.41-.57-.89-.93-1.37-1.13.09,3.33-1.61,8.53-5.21,7.01-3.74-1.58-3.09-5.76-2.75-7.22-.89-.05-1.81.29-2.56,1.3-3.07,4.15,5.91,8.76,5.91,8.76Z"/>
              <g class="cls-3">
                <path class="cls-15" d="M44.68,34.17c1.6,0,3.18,1.47,3.3,2.62.01.13.13.24.26.24h0c.13,0,.25-.1.26-.24.13-1.15,1.71-2.6,3.3-2.6.86,0,1.59.41,2.18,1.21.53.73.69,1.49.49,2.33-.69,2.87-5.43,5.5-6.25,5.94-.82-.44-5.54-3.1-6.21-5.98-.2-.84-.03-1.6.51-2.33.59-.8,1.32-1.2,2.17-1.2M44.68,33.91c-.83,0-1.68.37-2.38,1.31-3.07,4.14,5.92,8.76,5.92,8.76,0,0,9.02-4.56,5.97-8.72-.7-.95-1.55-1.32-2.39-1.32-1.74,0-3.42,1.58-3.56,2.84-.13-1.26-1.82-2.86-3.56-2.86h0Z"/>
              </g>
              <ellipse class="cls-1" cx="52.29" cy="35.37" rx="1.08" ry="1.61" transform="translate(-3.44 65.03) rotate(-62.09)"/>
            </g>
          </g>
        </g>
      </g>
    </g>
  </g>
</svg>